<svg width="20" height="20" viewBox="0 0 20 20" fill="none" xmlns="http://www.w3.org/2000/svg">
<rect width="20" height="20" rx="10" fill="#157442"/>
<g clip-path="url(#clip0_2632_1997)">
<path d="M6.65119 6.40388C6.67816 6.41673 6.70515 6.42955 6.73216 6.44233C6.78817 6.46888 6.84411 6.49559 6.9 6.5224C7.01618 6.57799 7.13322 6.63169 7.25027 6.68542C7.31364 6.71453 7.37694 6.74378 7.44026 6.77302C7.46565 6.78474 7.49104 6.79646 7.51643 6.80818C8.77326 7.38826 10.0301 7.96834 12.5819 9.14607C12.6073 9.1578 12.6327 9.16952 12.6581 9.18125C12.7213 9.21041 12.7844 9.23957 12.8476 9.26874C12.9654 9.32315 13.0833 9.37752 13.2012 9.43172C13.2563 9.45702 13.3113 9.48236 13.3664 9.50769C13.3923 9.51964 13.4183 9.53157 13.4443 9.54349C13.5144 9.57562 13.5843 9.60794 13.6541 9.64069C13.6756 9.65078 13.6971 9.66081 13.7186 9.6708C13.749 9.68491 13.7792 9.69929 13.8093 9.71376C13.8264 9.72183 13.8434 9.7299 13.861 9.73822C13.9262 9.77811 13.9717 9.83426 13.9988 9.90584C14.011 9.99522 14.0129 10.0826 13.9676 10.1627C13.8768 10.2797 13.7264 10.3305 13.5946 10.3891C13.5369 10.4148 13.4793 10.4408 13.4217 10.4667C13.4099 10.4721 13.398 10.4774 13.3859 10.4829C13.2667 10.5367 13.1484 10.5922 13.0301 10.648C12.8507 10.7326 12.6706 10.8153 12.4899 10.897C12.3308 10.969 12.1724 11.0424 12.0145 11.1168C11.8351 11.2013 11.655 11.2841 11.4743 11.3658C11.3152 11.4378 11.1568 11.5111 10.9988 11.5855C10.8195 11.67 10.6393 11.7528 10.4587 11.8345C10.2996 11.9065 10.1412 11.9799 9.98323 12.0543C9.80383 12.1388 9.62371 12.2216 9.44303 12.3033C9.28395 12.3753 9.12555 12.4486 8.9676 12.523C8.7882 12.6075 8.60809 12.6903 8.4274 12.772C8.26832 12.844 8.10993 12.9174 7.95198 12.9918C7.77264 13.0763 7.59261 13.159 7.41196 13.2407C7.25957 13.3096 7.10788 13.3799 6.95663 13.4513C6.86667 13.4937 6.77652 13.5357 6.68635 13.5777C6.66949 13.5856 6.65262 13.5935 6.63525 13.6016C6.59058 13.6223 6.54574 13.6426 6.5008 13.6627C6.48838 13.6685 6.47596 13.6743 6.46316 13.6803C6.37019 13.721 6.26958 13.7415 6.17074 13.7076C6.09466 13.6682 6.03709 13.6073 5.99885 13.5308C5.98208 13.4015 5.99386 13.3106 6.0702 13.2045C6.08275 13.1884 6.0953 13.1724 6.10823 13.1558C6.12432 13.1349 6.14042 13.114 6.1565 13.093C6.1936 13.045 6.23102 12.9973 6.26856 12.9496C6.32534 12.8772 6.3801 12.8034 6.4344 12.7291C6.51198 12.623 6.59083 12.518 6.67073 12.4136C6.74989 12.3102 6.82814 12.2062 6.9051 12.1011C6.99239 11.982 7.08155 11.8643 7.17134 11.747C7.2398 11.6574 7.30722 11.5671 7.37385 11.4761C7.46114 11.357 7.5503 11.2393 7.64009 11.122C7.70855 11.0324 7.77597 10.9421 7.8426 10.8511C7.92975 10.7322 8.01875 10.6147 8.10839 10.4976C8.20699 10.3685 8.30343 10.238 8.39929 10.1069C8.41477 10.0858 8.43085 10.0652 8.4473 10.0449C8.47206 10.0162 8.47206 10.0162 8.46101 9.98018C8.42587 9.91877 8.38293 9.86522 8.33869 9.81013C8.26067 9.71147 8.18435 9.61192 8.11018 9.51033C8.0326 9.40424 7.95375 9.29925 7.87385 9.1949C7.78551 9.07949 7.69862 8.96315 7.61274 8.8459C7.54459 8.75307 7.47509 8.66134 7.4051 8.5699C7.31676 8.45449 7.22987 8.33815 7.14399 8.2209C7.07584 8.12807 7.00634 8.03634 6.93635 7.9449C6.84801 7.82949 6.76112 7.71315 6.67524 7.5959C6.60709 7.50307 6.53759 7.41135 6.4676 7.3199C5.98415 6.68787 5.98415 6.68787 5.99885 6.48396C6.02453 6.40964 6.06433 6.3631 6.12385 6.31209C6.31605 6.22272 6.47743 6.31909 6.65119 6.40388Z" fill="#F9F9F9"/>
</g>
<defs>
<clipPath id="clip0_2632_1997">
<rect width="8" height="8" fill="white" transform="translate(6 6)"/>
</clipPath>
</defs>
</svg>
