<svg width="1440" height="360" viewBox="0 0 1440 360" fill="none" xmlns="http://www.w3.org/2000/svg">
<g opacity="0.1">
<mask id="mask0_2632_2039" style="mask-type:luminance" maskUnits="userSpaceOnUse" x="-152" y="-151" width="1697" height="646">
<path d="M1544.49 -150.848H-152V494.763H1544.49V-150.848Z" fill="white"/>
</mask>
<g mask="url(#mask0_2632_2039)">
<path d="M-508.626 582.987C-504.273 529.976 -499.736 478.152 -495.139 428.95C-490.532 379.634 -485.727 331.472 -480.858 285.798C-475.999 240.241 -470.936 195.858 -465.811 153.887C-460.704 112.085 -455.388 71.465 -450.008 33.1556C-444.664 -4.89099 -439.099 -41.801 -433.466 -76.5498C-427.889 -110.95 -422.081 -144.237 -416.206 -175.488C-410.409 -206.316 -404.37 -236.096 -398.257 -263.995C-392.248 -291.417 -385.989 -317.825 -379.655 -342.483C-373.441 -366.676 -366.978 -389.874 -360.444 -411.438C-354.052 -432.535 -347.401 -452.704 -340.675 -471.387C-334.117 -489.6 -327.297 -506.936 -320.405 -522.911C-313.706 -538.433 -306.739 -553.139 -299.699 -566.618C-292.884 -579.659 -285.794 -591.946 -278.627 -603.138C-271.719 -613.918 -264.532 -624.002 -257.265 -633.111C-250.29 -641.851 -243.032 -649.948 -235.697 -657.178C-221.995 -670.67 -207.382 -681.75 -192.264 -690.109C-178.616 -697.646 -164.06 -703.24 -148.998 -706.738C-135.743 -709.807 -121.617 -711.364 -107.001 -711.364H-106.583C-82.4648 -711.3 -56.4615 -707.16 -27.0865 -698.713C20.7308 -684.927 64.1104 -664.376 92.8157 -650.777L93.4722 -650.466C120.133 -637.831 136.673 -629.559 138.59 -628.598C139.487 -626.998 145.827 -615.73 157.019 -596.892C174.094 -568.156 190.98 -541.433 208.645 -515.197C233.753 -477.911 259.751 -442.816 285.916 -410.886C300.794 -392.736 316.03 -375.242 331.201 -358.889C346.954 -341.911 363.054 -325.715 379.053 -310.751C395.198 -295.657 411.658 -281.423 427.979 -268.446C444.042 -255.68 460.366 -243.814 476.498 -233.18C492.017 -222.953 507.74 -213.614 523.229 -205.42C537.801 -197.715 552.52 -190.838 566.977 -184.979C580.273 -179.593 593.67 -174.938 606.794 -171.144C618.583 -167.74 630.429 -164.948 642.005 -162.845C652.112 -161.009 662.272 -159.652 672.203 -158.81C680.589 -158.102 689.011 -157.741 697.234 -157.741C705.458 -157.741 713.879 -158.102 722.265 -158.81C732.196 -159.652 742.357 -161.009 752.464 -162.845C764.039 -164.948 775.886 -167.74 787.674 -171.144C800.799 -174.939 814.195 -179.594 827.491 -184.979C841.949 -190.837 856.668 -197.715 871.24 -205.42C886.726 -213.613 902.449 -222.952 917.971 -233.18C934.103 -243.814 950.426 -255.68 966.489 -268.446C982.813 -281.425 999.275 -295.659 1015.42 -310.751C1031.42 -325.716 1047.52 -341.911 1063.27 -358.889C1078.44 -375.246 1093.68 -392.741 1108.55 -410.888C1134.72 -442.818 1160.72 -477.912 1185.82 -515.198C1203.49 -541.433 1220.37 -568.156 1237.45 -596.892C1248.64 -615.728 1254.98 -626.996 1255.88 -628.597C1257.79 -629.556 1274.33 -637.829 1301 -650.466L1301.66 -650.782C1330.36 -664.38 1373.74 -684.928 1421.56 -698.714C1450.93 -707.161 1476.93 -711.3 1501.05 -711.365C1515.77 -711.329 1530.09 -709.838 1543.47 -706.739C1558.53 -703.241 1573.08 -697.647 1586.73 -690.11C1601.85 -681.751 1616.46 -670.67 1630.16 -657.179C1637.5 -649.948 1644.76 -641.852 1651.73 -633.111C1659 -624.003 1666.19 -613.919 1673.09 -603.139C1680.27 -591.941 1687.36 -579.655 1694.17 -566.619C1701.21 -553.132 1708.18 -538.426 1714.87 -522.912C1721.77 -506.937 1728.58 -489.601 1735.14 -471.387C1741.87 -452.704 1748.52 -432.535 1754.91 -411.438C1761.45 -389.874 1767.91 -366.676 1774.12 -342.484C1780.46 -317.825 1786.72 -291.418 1792.73 -263.995C1798.84 -236.096 1804.88 -206.317 1810.67 -175.489C1816.55 -144.238 1822.36 -110.951 1827.93 -76.5503C1833.56 -41.8315 1839.13 -4.91956 1844.48 33.1552C1849.86 71.4645 1855.17 112.084 1860.28 153.886C1865.41 195.9 1870.47 240.282 1875.33 285.798C1880.19 331.405 1884.99 379.568 1889.61 428.949C1894.2 478.15 1898.74 529.974 1903.1 582.986H1904.44C1900.09 529.918 1895.54 478.037 1890.94 428.786C1886.33 379.396 1881.52 331.227 1876.66 285.612C1871.8 240.088 1866.74 195.696 1861.61 153.674C1856.5 111.863 1851.18 71.2328 1845.8 32.913C1840.45 -5.17548 1834.89 -42.0978 1829.25 -76.8299C1823.67 -111.244 1817.86 -144.546 1811.99 -175.812C1806.19 -206.657 1800.14 -236.453 1794.03 -264.37C1788.01 -291.81 1781.75 -318.239 1775.41 -342.919C1769.19 -367.132 1762.72 -390.354 1756.18 -411.942C1749.78 -433.066 1743.12 -453.263 1736.39 -471.972C1729.82 -490.219 1722.98 -507.585 1716.08 -523.592C1709.37 -539.144 1702.38 -553.884 1695.32 -567.407C1688.49 -580.484 1681.37 -592.812 1674.18 -604.047C1667.24 -614.871 1660.02 -624.999 1652.73 -634.146C1645.71 -642.933 1638.42 -651.073 1631.04 -658.342C1617.25 -671.922 1602.54 -683.075 1587.32 -691.493C1573.57 -699.085 1558.91 -704.721 1543.73 -708.244C1530.27 -711.363 1515.83 -712.919 1501.05 -712.9C1476.82 -712.836 1450.71 -708.681 1421.23 -700.202C1373.32 -686.39 1329.89 -665.815 1301.15 -652.2L1300.48 -651.885C1272.22 -638.489 1255.32 -629.994 1255.15 -629.91L1254.97 -629.815L1254.86 -629.62C1254.79 -629.506 1248.38 -618.016 1236.34 -597.755C1219.28 -569.045 1202.41 -542.346 1184.76 -516.135C1159.68 -478.889 1133.71 -443.83 1107.57 -411.937C1092.72 -393.814 1077.5 -376.342 1062.35 -360.008C1046.62 -343.055 1030.54 -326.883 1014.57 -311.94C998.453 -296.873 982.02 -282.664 965.725 -269.707C949.693 -256.967 933.401 -245.123 917.302 -234.511C901.814 -224.306 886.129 -214.988 870.678 -206.815C856.143 -199.129 841.462 -192.269 827.044 -186.428C813.787 -181.057 800.431 -176.415 787.346 -172.633C775.597 -169.24 763.789 -166.458 752.254 -164.362C742.183 -162.532 732.061 -161.18 722.168 -160.343C713.813 -159.636 705.425 -159.277 697.235 -159.277C689.044 -159.277 680.656 -159.636 672.301 -160.343C662.408 -161.18 652.286 -162.532 642.214 -164.362C630.679 -166.458 618.872 -169.24 607.122 -172.633C594.038 -176.415 580.682 -181.057 567.425 -186.428C553.006 -192.269 538.326 -199.129 523.791 -206.815C508.338 -214.989 492.651 -224.308 477.167 -234.511C461.068 -245.124 444.776 -256.967 428.745 -269.707C412.452 -282.661 396.019 -296.871 379.902 -311.94C363.927 -326.882 347.851 -343.053 332.12 -360.008C316.97 -376.337 301.754 -393.809 286.895 -411.937C260.759 -443.831 234.789 -478.887 209.707 -516.135C192.06 -542.346 175.188 -569.045 158.129 -597.755C146.091 -618.016 139.674 -629.506 139.611 -629.62L139.502 -629.815L139.315 -629.91C139.148 -629.993 122.249 -638.489 93.9861 -651.885L93.329 -652.195C64.5878 -665.813 21.1533 -686.389 -26.7597 -700.201C-56.2414 -708.68 -82.3517 -712.835 -106.58 -712.9C-121.441 -712.832 -135.797 -711.364 -149.264 -708.243C-164.436 -704.72 -179.099 -699.084 -192.848 -691.492C-208.072 -683.074 -222.782 -671.922 -236.572 -658.342C-243.949 -651.073 -251.245 -642.932 -258.257 -634.145C-265.556 -624.998 -272.774 -614.871 -279.71 -604.047C-286.902 -592.816 -294.014 -580.49 -300.85 -567.407C-307.91 -553.891 -314.894 -539.15 -321.609 -523.592C-328.514 -507.585 -335.347 -490.218 -341.917 -471.972C-348.651 -453.263 -355.312 -433.065 -361.713 -411.941C-368.252 -390.353 -374.722 -367.131 -380.943 -342.918C-387.281 -318.239 -393.544 -291.81 -399.558 -264.37C-405.675 -236.452 -411.717 -206.656 -417.517 -175.812C-423.395 -144.545 -429.205 -111.244 -434.785 -76.8294C-440.42 -42.0688 -445.987 -5.1449 -451.332 32.9135C-456.713 71.2333 -462.032 111.863 -467.139 153.674C-472.265 195.655 -477.329 240.044 -482.188 285.613C-487.059 331.293 -491.864 379.463 -496.472 428.786C-501.072 478.039 -505.615 529.92 -509.973 582.987H-508.626Z" fill="#CCCCCC"/>
<path d="M1213.61 -505.5L1214 -505.566C1239.21 -509.853 1277.31 -516.332 1320.59 -517.428C1347.09 -518.089 1370.81 -516.397 1393.09 -512.26C1421.98 -506.882 1449.01 -497.034 1473.44 -482.99C1487.86 -474.684 1501.9 -464.632 1515.17 -453.117C1529.68 -440.504 1543.81 -425.666 1557.15 -409.02C1571.55 -391.035 1585.57 -370.283 1598.8 -347.341C1605.76 -335.281 1612.66 -322.328 1619.33 -308.846C1626.18 -294.976 1632.99 -280.122 1639.56 -264.694C1646.3 -248.875 1652.99 -231.987 1659.44 -214.498C1666.04 -196.62 1672.58 -177.576 1678.9 -157.896C1685.35 -137.833 1691.74 -116.528 1697.9 -94.5692C1704.17 -72.2429 1710.39 -48.5808 1716.39 -24.2447C1722.46 0.409546 1728.49 26.4977 1734.31 53.2968C1740.18 80.3499 1746.02 108.916 1751.64 138.201C1757.29 167.639 1762.91 198.708 1768.34 230.543C1773.78 262.474 1779.18 296.043 1784.39 330.314C1789.59 364.603 1794.76 400.634 1799.76 437.408C1804.73 474.053 1809.67 512.48 1814.43 551.624C1815.69 561.949 1816.94 572.421 1818.19 582.987H1819.55C1818.29 572.35 1817.03 561.805 1815.76 551.411C1810.99 512.261 1806.06 473.825 1801.08 437.171C1796.09 400.39 1790.92 364.349 1785.71 330.05C1780.5 295.768 1775.1 262.19 1769.66 230.248C1764.23 198.401 1758.6 167.321 1752.95 137.871C1747.32 108.572 1741.49 79.9924 1735.61 52.9245C1729.79 26.1116 1723.76 0.00769043 1717.68 -24.6623C1711.67 -49.0162 1705.45 -72.695 1699.18 -95.041C1693.01 -117.019 1686.61 -138.346 1680.16 -158.428C1673.84 -178.13 1667.28 -197.196 1660.67 -215.096C1654.21 -232.61 1647.51 -249.523 1640.77 -265.368C1634.18 -280.823 1627.36 -295.706 1620.49 -309.602C1613.81 -323.116 1606.89 -336.098 1599.92 -348.188C1586.65 -371.199 1572.59 -392.015 1558.14 -410.059C1544.74 -426.774 1530.56 -441.672 1515.97 -454.342C1502.64 -465.915 1488.53 -476.015 1474.04 -484.364C1449.49 -498.478 1422.33 -508.374 1393.31 -513.777C1370.94 -517.927 1347.14 -519.612 1320.56 -518.965C1277.19 -517.868 1239.04 -511.38 1213.8 -507.085L1213.41 -507.02C1188.68 -502.808 1174.07 -499.97 1173.92 -499.943L1174.15 -498.427C1174.29 -498.455 1188.9 -501.29 1213.61 -505.5Z" fill="#CCCCCC"/>
<path d="M1131.22 -391.988C1152.33 -389.086 1184.23 -384.701 1220.98 -375.807C1243.95 -370.241 1264.65 -363.776 1284.26 -356.043C1310.16 -345.818 1333.62 -333.598 1355.98 -318.686C1369.03 -309.967 1381.82 -300.207 1393.98 -289.677C1407.33 -278.111 1420.39 -265.206 1432.81 -251.318C1446.26 -236.269 1459.44 -219.531 1471.97 -201.565C1485.38 -182.352 1498.5 -161.081 1510.99 -138.343C1524.17 -114.316 1537.09 -87.8502 1549.37 -59.6803C1555.71 -45.1207 1562.04 -29.7574 1568.18 -14.0179C1574.42 2.00128 1580.64 18.8636 1586.66 36.1026C1592.78 53.6079 1598.87 72.0161 1604.78 90.8168C1610.75 109.844 1616.7 129.827 1622.47 150.214C1628.28 170.766 1634.08 192.34 1639.7 214.335C1645.35 236.422 1650.98 259.58 1656.44 283.164C1661.91 306.789 1667.36 331.507 1672.64 356.631C1677.91 381.722 1683.17 407.951 1688.27 434.589C1693.34 461.097 1698.4 488.766 1703.31 516.826C1707.06 538.283 1710.81 560.466 1714.49 582.987H1715.85C1712.16 560.363 1708.39 538.078 1704.63 516.523C1699.72 488.455 1694.66 460.778 1689.58 434.259C1684.48 407.61 1679.22 381.372 1673.94 356.27C1668.66 331.135 1663.21 306.406 1657.73 282.771C1652.27 259.173 1646.64 236.002 1640.99 213.902C1635.37 191.894 1629.57 170.306 1623.75 149.74C1617.98 129.338 1612.02 109.338 1606.04 90.2976C1600.13 71.4787 1594.03 53.0522 1587.91 35.5326C1581.88 18.2739 1575.65 1.39178 1569.4 -14.6451C1563.26 -30.4044 1556.92 -45.7869 1550.57 -60.3676C1538.27 -88.581 1525.33 -115.092 1512.12 -139.163C1499.61 -161.946 1486.46 -183.265 1473.02 -202.526C1460.45 -220.538 1447.24 -237.326 1433.75 -252.417C1421.29 -266.35 1408.18 -279.297 1394.79 -290.901C1382.59 -301.47 1369.76 -311.264 1356.65 -320.012C1334.22 -334.978 1310.68 -347.238 1284.7 -357.496C1265.03 -365.25 1244.28 -371.732 1221.26 -377.311C1184.45 -386.218 1152.51 -390.609 1131.38 -393.514L1129.72 -393.741C1108.8 -396.617 1096.57 -398.121 1096.45 -398.137L1096.31 -396.609C1096.43 -396.594 1108.65 -395.089 1129.56 -392.217L1131.22 -391.988Z" fill="#CCCCCC"/>
<path d="M1125.46 -268.386C1153.31 -253.335 1195.36 -229.151 1238.9 -193.048C1262.33 -173.604 1284.7 -151.887 1305.39 -128.504C1317.19 -115.162 1328.82 -100.866 1339.94 -86.0179C1351.87 -70.0904 1363.62 -52.9969 1374.86 -35.2095C1386.78 -16.3595 1398.52 3.89529 1409.76 24.9908C1421.53 47.0696 1433.13 70.7869 1444.24 95.485C1455.73 121.027 1467.06 148.417 1477.92 176.896C1489.01 205.98 1499.95 237.116 1510.45 269.439C1521.02 302.023 1531.46 336.8 1541.48 372.803C1551.44 408.596 1561.28 446.692 1570.73 486.037C1578.18 517.025 1585.56 549.55 1592.75 582.986H1594.13C1586.91 549.406 1579.5 516.744 1572.03 485.629C1562.57 446.266 1552.72 408.149 1542.76 372.337C1532.74 336.311 1522.29 301.511 1511.7 268.904C1501.2 236.554 1490.25 205.392 1479.15 176.28C1468.28 147.773 1456.94 120.352 1445.43 94.7793C1434.3 70.0502 1422.69 46.3008 1410.91 24.189C1399.65 3.06097 1387.89 -17.2274 1375.95 -36.1104C1364.69 -53.9318 1352.91 -71.0603 1340.96 -87.0179C1329.81 -101.9 1318.16 -116.226 1306.33 -129.597C1285.59 -153.038 1263.17 -174.804 1239.69 -194.295C1196.06 -230.472 1153.93 -254.7 1126.03 -269.777C1097.51 -285.184 1073.45 -296.659 1055.88 -305.036L1023.93 -320.292L1023.42 -318.872L1055.36 -303.617C1072.92 -295.244 1096.96 -283.777 1125.46 -268.386Z" fill="#CCCCCC"/>
<path d="M1126.75 -101.032C1145.73 -80.4555 1163.9 -59.1183 1180.76 -37.612C1200.84 -11.9761 1220.19 15.3457 1238.28 43.5936C1258.73 75.5357 1278.51 110.145 1297.09 146.459C1306.96 165.769 1316.76 186.077 1326.21 206.819C1335.88 228.059 1345.48 250.387 1354.73 273.183C1364.09 296.243 1373.38 320.483 1382.34 345.229C1391.28 369.916 1400.17 395.845 1408.75 422.292C1417.18 448.285 1425.57 475.538 1433.68 503.292C1441.17 528.946 1448.63 555.747 1455.87 582.988H1457.27C1449.99 555.578 1442.49 528.611 1434.95 502.806C1426.84 475.034 1418.45 447.766 1410.01 421.758C1401.42 395.292 1392.53 369.346 1383.58 344.641C1374.61 319.875 1365.31 295.616 1355.95 272.534C1346.69 249.717 1337.08 227.369 1327.4 206.108C1317.94 185.344 1308.13 165.012 1298.25 145.681C1279.65 109.322 1259.84 74.6688 1239.36 42.6838C1221.25 14.3951 1201.86 -12.9657 1181.75 -38.6391C1164.88 -60.1775 1146.68 -81.5447 1127.68 -102.149C1094.57 -138.027 1063.4 -167.135 1037.27 -190.875C989.242 -234.513 957.617 -262.21 957.303 -262.484L956.488 -261.262C956.802 -260.988 988.418 -233.3 1036.44 -189.671C1062.54 -165.949 1093.68 -136.87 1126.75 -101.032Z" fill="#CCCCCC"/>
<path d="M961.21 -126.549C979.619 -100.494 1000.48 -70.9645 1023.37 -36.9968C1055.48 10.6671 1083.28 55.2561 1108.36 99.3189C1124.21 127.167 1139.61 155.921 1154.12 184.777C1169.85 216.071 1185.22 248.818 1199.79 282.108C1214.77 316.333 1229.47 352.403 1243.48 389.316C1257.05 425.094 1270.42 462.834 1283.22 501.487C1291.92 527.777 1300.56 555.092 1308.99 582.987H1310.41C1301.92 554.905 1293.23 527.402 1284.47 500.941C1271.67 462.267 1258.29 424.504 1244.71 388.703C1230.69 351.765 1215.98 315.668 1200.99 281.42C1186.41 248.102 1171.03 215.329 1155.28 184.01C1140.76 155.129 1125.35 126.352 1109.49 98.4782C1084.38 54.3828 1056.56 9.75983 1024.43 -37.9366C1001.54 -71.9182 980.667 -101.455 962.253 -127.516L956.728 -135.337C920.532 -186.601 897.404 -220.758 897.174 -221.098L896.113 -220.155C896.342 -219.816 919.479 -185.648 955.685 -134.37L961.21 -126.549Z" fill="#CCCCCC"/>
<path d="M930.406 2.37978L931.555 4.85954C951.37 47.6058 970.833 89.7515 991.08 135.354C1014.75 188.678 1036.59 240.471 1056 289.291C1076.98 342.076 1097.92 398.561 1116.56 452.643C1131.11 494.877 1145.34 538.702 1158.94 582.988H1160.37C1146.71 538.509 1132.42 494.493 1117.81 452.078C1099.16 397.972 1078.21 341.461 1057.22 288.654C1037.81 239.814 1015.96 188.001 992.276 134.658C972.025 89.0444 952.558 46.8908 932.74 4.13864L931.591 1.65887C914.595 -35.0021 898.541 -69.6311 885.539 -98.2675C860.008 -154.496 844.033 -192.507 843.874 -192.885L842.664 -192.218C842.823 -191.841 858.807 -153.81 884.348 -97.5589C897.353 -68.9156 913.407 -34.2842 930.406 2.37978Z" fill="#CCCCCC"/>
<path d="M1009.1 567.253C1008.94 566.658 993.04 506.815 969.445 424.129C947.717 348.003 919.624 253.994 890.331 156.283C861.134 58.8962 838.453 -18.8514 822.918 -74.8017C806.492 -133.977 796.281 -174.094 796.18 -174.492L797.468 -174.922C797.57 -174.524 807.777 -134.423 824.197 -75.2672C839.728 -19.3287 862.406 58.408 891.6 155.785C920.895 253.5 948.99 347.515 970.721 423.652C994.321 506.355 1010.23 566.212 1010.38 566.806L1009.1 567.253Z" fill="#CCCCCC"/>
<path d="M870.176 524.543C870.091 524.07 861.597 476.575 849.506 408.136C832.934 314.329 819.312 235.393 807.86 166.817C780.294 1.69411 756.766 -162.751 756.531 -164.392L757.856 -164.641C758.09 -162.999 781.616 1.42686 809.179 166.529C820.629 235.101 834.251 314.03 850.823 407.83C862.913 476.268 871.407 523.763 871.491 524.234L870.176 524.543Z" fill="#CCCCCC"/>
<path d="M766.421 506.346C750.102 276.698 735.641 52.611 723.438 -159.693L724.777 -159.795C736.98 52.5011 751.441 276.581 767.759 506.22L766.421 506.346Z" fill="#CCCCCC"/>
<path d="M697.909 -158.508H696.566V502.28H697.909V-158.508Z" fill="#CCCCCC"/>
<path d="M628.041 506.346L626.703 506.22C643.021 276.581 657.483 52.5011 669.685 -159.795L671.025 -159.693C658.821 52.611 644.359 276.698 628.041 506.346Z" fill="#CCCCCC"/>
<path d="M524.295 524.543L522.98 524.234C523.065 523.763 531.558 476.268 543.65 407.83C560.213 314.075 573.835 235.145 585.293 166.529C612.856 1.42686 636.382 -162.999 636.616 -164.641L637.941 -164.392C637.707 -162.751 614.178 1.69411 586.611 166.817C575.152 235.44 561.53 314.376 544.966 408.136C532.874 476.575 524.379 524.07 524.295 524.543Z" fill="#CCCCCC"/>
<path d="M385.366 567.253L384.082 566.806C384.24 566.212 400.145 506.355 423.745 423.652C445.476 347.515 473.571 253.5 502.865 155.785C532.059 58.408 554.737 -19.3282 570.268 -75.2672C586.69 -134.423 596.896 -174.524 596.998 -174.922L598.285 -174.492C598.185 -174.094 587.973 -133.977 571.547 -74.8017C556.013 -18.8513 533.332 58.8962 504.135 156.283C474.842 253.994 446.748 348.003 425.02 424.129C401.425 506.816 385.524 566.659 385.366 567.253Z" fill="#CCCCCC"/>
<path d="M235.523 582.987C249.124 538.701 263.356 494.876 277.907 452.642C296.547 398.56 317.487 342.075 338.466 289.29C357.873 240.47 379.716 188.678 403.388 135.354C423.648 89.7195 443.106 47.5871 462.914 4.85907L464.168 2.151C481.125 -34.4257 497.141 -68.9748 510.119 -97.5589C535.66 -153.81 551.645 -191.841 551.803 -192.218L550.593 -192.885C550.435 -192.507 534.459 -154.496 508.928 -98.2675C495.952 -69.6898 479.937 -35.1436 462.982 1.43059L461.728 4.13815C441.917 46.8726 422.456 89.0109 402.191 134.657C378.51 188 356.659 239.813 337.243 288.653C316.257 341.461 295.307 397.971 276.658 452.078C262.045 494.493 247.753 538.508 234.098 582.987H235.523Z" fill="#CCCCCC"/>
<path d="M85.4689 582.987C93.8992 555.102 102.534 527.787 111.239 501.487C124.036 462.834 137.408 425.094 150.981 389.316C164.986 352.413 179.683 316.343 194.666 282.108C209.239 248.818 224.606 216.071 240.339 184.778C254.853 155.922 270.248 127.167 286.098 99.3189C311.178 55.264 338.979 10.6745 371.089 -36.9968C393.975 -70.965 414.84 -100.495 433.249 -126.549L438.774 -134.37C474.98 -185.648 498.117 -219.816 498.346 -220.155L497.286 -221.098C497.056 -220.758 473.928 -186.601 437.731 -135.337L432.206 -127.516C413.793 -101.455 392.923 -71.9182 370.027 -37.9366C337.895 9.76772 310.074 54.3902 284.974 98.4782C269.111 126.352 253.703 155.129 239.177 184.01C223.431 215.329 208.051 248.102 193.467 281.42C178.473 315.679 163.764 351.775 149.751 388.703C136.169 424.504 122.79 462.267 109.985 500.941C101.222 527.413 92.5339 554.914 84.0508 582.987H85.4689Z" fill="#CCCCCC"/>
<path d="M-61.3999 582.989C-54.1527 555.726 -46.6973 528.922 -39.2112 503.293C-31.0963 475.518 -22.7085 448.265 -14.2821 422.293C-5.69924 395.845 3.18617 369.917 12.1269 345.23C21.0913 320.484 30.3815 296.244 39.7383 273.184C48.989 250.388 58.5837 228.06 68.2574 206.82C77.7066 186.078 87.5047 165.77 97.3798 146.46C115.957 110.141 135.743 75.5317 156.187 43.5945C174.278 15.3437 193.632 -11.9766 213.713 -37.6111C230.566 -59.1163 248.735 -80.455 267.714 -101.031C300.786 -136.869 331.927 -165.949 358.027 -189.669C406.049 -233.297 437.666 -260.986 437.98 -261.261L437.165 -262.482C436.851 -262.208 405.225 -234.511 357.193 -190.873C331.07 -167.133 299.901 -138.025 266.792 -102.148C247.786 -81.5417 229.592 -60.1745 212.714 -38.6377C192.605 -12.9657 173.222 14.395 155.104 42.6853C134.634 74.6644 114.823 109.319 96.2213 145.683C86.3358 165.014 76.5269 185.346 67.0674 206.109C57.3843 227.37 47.7802 249.718 38.5206 272.536C29.1554 295.617 19.8583 319.877 10.8865 344.642C1.93982 369.346 -6.95153 395.293 -15.5408 421.759C-23.9726 447.746 -32.3649 475.014 -40.4847 502.807C-48.0157 528.59 -55.5161 555.556 -62.8047 582.989L-61.3999 582.989Z" fill="#CCCCCC"/>
<path d="M-198.282 582.988C-191.093 549.552 -183.713 517.028 -176.268 486.04C-166.814 446.695 -156.971 408.599 -147.015 372.805C-136.992 336.784 -126.55 302.008 -115.98 269.441C-105.487 237.123 -94.545 205.987 -83.4576 176.899C-72.5977 148.417 -61.2655 121.026 -49.7758 95.4874C-38.6622 70.7923 -27.0619 47.075 -15.2963 24.9933C-4.05637 3.90366 7.68509 -16.3497 19.6013 -35.207C30.8456 -52.9944 42.5945 -70.0875 54.5215 -86.0154C65.6469 -100.863 77.2724 -115.159 89.0745 -128.502C109.768 -151.885 132.139 -173.602 155.566 -193.046C199.102 -229.149 241.159 -253.333 269.005 -268.384C297.502 -283.775 321.547 -295.241 339.104 -303.614L371.048 -318.869L370.532 -320.289L338.588 -305.033C321.019 -296.656 296.958 -285.18 268.433 -269.774C240.537 -254.697 198.406 -230.469 154.778 -194.291C131.296 -174.801 108.873 -153.034 88.1312 -129.594C76.3024 -116.223 64.6518 -101.897 53.5022 -87.0144C41.5515 -71.0569 29.7794 -53.9288 18.5123 -36.1069C6.57642 -17.218 -5.18423 3.06985 -16.4424 24.1925C-28.2243 46.3058 -39.8409 70.0566 -50.9688 94.7843C-62.4723 120.353 -73.8169 147.774 -84.6871 176.284C-95.7844 205.398 -106.737 236.56 -117.238 268.908C-127.816 301.494 -138.265 336.295 -148.295 372.34C-158.256 408.152 -168.103 446.269 -177.562 485.632C-185.038 516.747 -192.447 549.409 -199.664 582.989L-198.282 582.988Z" fill="#CCCCCC"/>
<path d="M-320.015 582.987C-316.334 560.466 -312.59 538.283 -308.838 516.826C-303.932 488.766 -298.872 461.097 -293.798 434.589C-288.696 407.939 -283.436 381.709 -278.165 356.631C-272.885 331.517 -267.436 306.8 -261.966 283.164C-256.507 259.58 -250.876 236.422 -245.233 214.335C-239.611 192.34 -233.813 170.766 -227.999 150.214C-222.231 129.827 -216.279 109.844 -210.305 90.8168C-204.401 72.0161 -198.306 53.6079 -192.19 36.1026C-186.166 18.8636 -179.946 2.00076 -173.704 -14.0179C-167.573 -29.7441 -161.245 -45.1069 -154.893 -59.6803C-142.61 -87.8561 -129.697 -114.322 -116.514 -138.343C-104.03 -161.081 -90.9047 -182.352 -77.5028 -201.565C-64.9667 -219.531 -51.7898 -236.269 -38.3385 -251.318C-25.9218 -265.203 -12.858 -278.108 0.489105 -289.677C12.6472 -300.206 25.4351 -309.966 38.4954 -318.686C60.8548 -333.598 84.3135 -345.818 110.212 -356.043C129.825 -363.776 150.525 -370.241 173.494 -375.807C210.243 -384.7 242.144 -389.086 263.254 -391.988L264.91 -392.217C285.822 -395.089 298.043 -396.594 298.164 -396.609L298.021 -398.137C297.9 -398.121 285.671 -396.617 264.75 -393.741L263.095 -393.514C241.961 -390.609 210.023 -386.218 173.217 -377.311C150.193 -371.732 129.441 -365.25 109.775 -357.496C83.7927 -347.238 60.2561 -334.977 37.8202 -320.012C24.7129 -311.263 11.8806 -301.469 -0.320404 -290.901C-13.7125 -279.295 -26.8182 -266.348 -39.2759 -252.417C-52.7662 -237.326 -65.98 -220.538 -78.5502 -202.526C-91.9843 -183.266 -105.139 -161.947 -117.65 -139.162C-130.857 -115.099 -143.791 -88.5874 -156.094 -60.3681C-162.455 -45.7736 -168.792 -30.3896 -174.93 -14.6456C-181.179 1.3913 -187.406 18.2733 -193.437 35.5321C-199.558 53.0522 -205.659 71.4786 -211.568 90.2971C-217.546 109.337 -223.504 129.337 -229.276 149.739C-235.093 170.306 -240.896 191.894 -246.521 213.902C-252.168 236.001 -257.801 259.173 -263.264 282.77C-268.735 306.416 -274.188 331.145 -279.469 356.27C-284.743 381.359 -290.005 407.599 -295.108 434.258C-300.184 460.777 -305.247 488.454 -310.154 516.523C-313.922 538.077 -317.683 560.362 -321.379 582.987L-320.015 582.987Z" fill="#CCCCCC"/>
<path d="M-423.731 582.987C-422.481 572.421 -421.227 561.949 -419.971 551.625C-415.203 512.466 -410.265 474.038 -405.293 437.408C-400.304 400.65 -395.132 364.618 -389.923 330.314C-384.719 296.043 -379.32 262.474 -373.878 230.543C-368.449 198.708 -362.83 167.639 -357.177 138.201C-351.547 108.889 -345.717 80.3243 -339.848 53.2969C-334.029 26.4973 -327.998 0.409607 -321.923 -24.2446C-315.926 -48.5807 -309.708 -72.2433 -303.44 -94.569C-297.276 -116.527 -290.883 -137.833 -284.442 -157.896C-278.122 -177.576 -271.573 -196.62 -264.977 -214.498C-258.518 -231.997 -251.83 -248.885 -245.099 -264.694C-238.531 -280.111 -231.724 -294.967 -224.866 -308.846C-218.201 -322.328 -211.296 -335.28 -204.341 -347.341C-191.105 -370.285 -177.091 -391.036 -162.687 -409.02C-149.346 -425.666 -135.221 -440.502 -120.702 -453.117C-107.438 -464.632 -93.3986 -474.683 -78.9744 -482.989C-54.5517 -497.034 -27.5202 -506.882 1.36963 -512.26C23.656 -516.394 47.3733 -518.076 73.8697 -517.428C117.155 -516.332 155.254 -509.852 180.464 -505.565L180.852 -505.499C205.569 -501.29 220.17 -498.455 220.315 -498.426L220.54 -499.942C220.396 -499.969 205.782 -502.808 181.05 -507.02L180.662 -507.084C155.418 -511.379 117.269 -517.867 73.8988 -518.965C47.3161 -519.62 23.5227 -517.929 1.1554 -513.776C-27.8692 -508.374 -55.032 -498.477 -79.5766 -484.363C-94.0733 -476.015 -108.183 -465.914 -121.513 -454.341C-136.095 -441.671 -150.28 -426.772 -163.675 -410.058C-178.127 -392.014 -192.186 -371.198 -205.46 -348.187C-212.432 -336.098 -219.353 -323.115 -226.033 -309.602C-232.905 -295.696 -239.725 -280.813 -246.305 -265.366C-253.047 -249.535 -259.745 -232.621 -266.213 -215.096C-272.817 -197.196 -279.374 -178.13 -285.702 -158.428C-292.15 -138.345 -298.548 -117.019 -304.718 -95.041C-310.99 -72.6954 -317.213 -49.0161 -323.216 -24.6622C-329.294 0.00726318 -335.328 26.1116 -341.15 52.9261C-347.022 79.9658 -352.855 108.547 -358.488 137.871C-364.143 167.321 -369.765 198.401 -375.195 230.248C-380.64 262.19 -386.04 295.768 -391.246 330.05C-396.456 364.364 -401.628 400.404 -406.619 437.171C-411.592 473.809 -416.531 512.247 -421.299 551.411C-422.565 561.805 -423.827 572.349 -425.086 582.987H-423.731Z" fill="#CCCCCC"/>
<path d="M697.232 2.79517C686.139 2.79517 674.771 2.38245 663.446 1.56738C649.351 0.549622 634.938 -1.11951 620.606 -3.39215C603.545 -6.09973 586.122 -9.73676 568.82 -14.2057C548.95 -19.3393 528.742 -25.6948 508.759 -33.0961C486.474 -41.3544 463.925 -51.1098 441.74 -62.093C417.678 -74.0081 393.445 -87.6599 369.718 -102.67C344.666 -118.526 319.58 -136.273 295.156 -155.421C270.066 -175.098 245.046 -196.744 220.794 -219.758C173.245 -264.896 126.975 -316.861 83.2686 -374.207C45.6917 -423.531 9.16232 -477.952 -25.3048 -535.961C-86.8749 -639.625 -118.295 -710.79 -118.605 -711.497L-117.406 -712.188C-117.097 -711.482 -85.711 -640.398 -24.1952 -536.826C10.2413 -478.868 46.7377 -424.495 84.279 -375.219C127.938 -317.934 174.156 -266.027 221.651 -220.941C245.871 -197.957 270.858 -176.339 295.914 -156.688C320.302 -137.567 345.351 -119.847 370.366 -104.015C394.056 -89.0287 418.249 -75.3976 442.272 -63.5037C464.418 -52.5403 486.926 -42.8016 509.171 -34.5581C529.116 -27.1716 549.283 -20.8284 569.114 -15.7037C586.38 -11.2457 603.766 -7.61603 620.789 -4.91437C635.088 -2.64813 649.468 -0.98291 663.53 0.0328979C674.827 0.845032 686.166 1.25769 697.232 1.25769C708.296 1.25769 719.635 0.845032 730.933 0.0328979C744.995 -0.98291 759.374 -2.64813 773.674 -4.91437C790.697 -7.61603 808.082 -11.2457 825.349 -15.7037C845.177 -20.8284 865.345 -27.1716 885.292 -34.5581C907.537 -42.8016 930.045 -52.5403 952.192 -63.5037C976.214 -75.3981 1000.41 -89.0287 1024.1 -104.015C1049.11 -119.848 1074.16 -137.569 1098.55 -156.689C1123.6 -176.337 1148.59 -197.955 1172.81 -220.941C1220.31 -266.03 1266.53 -317.937 1310.18 -375.219C1347.73 -424.495 1384.22 -478.868 1418.66 -536.826C1480.17 -640.398 1511.56 -711.482 1511.87 -712.188L1513.07 -711.497C1512.76 -710.79 1481.34 -639.625 1419.77 -535.961C1385.3 -477.952 1348.77 -423.531 1311.19 -374.207C1267.49 -316.864 1221.22 -264.899 1173.67 -219.758C1149.41 -196.742 1124.4 -175.096 1099.31 -155.42C1074.88 -136.273 1049.8 -118.525 1024.75 -102.67C1001.02 -87.6584 976.785 -74.0067 952.723 -62.093C930.537 -51.1098 907.989 -41.3544 885.704 -33.0961C865.719 -25.6948 845.511 -19.3393 825.643 -14.2057C808.341 -9.73676 790.918 -6.09973 773.858 -3.39215C759.525 -1.11951 745.112 0.549622 731.018 1.56738C719.691 2.38196 708.324 2.79517 697.232 2.79517Z" fill="#CCCCCC"/>
<path d="M697.232 30.0859C691.819 30.0859 686.286 29.9973 680.783 29.8217C674.534 29.6205 668.184 29.3024 661.907 28.8744C647.054 27.864 631.862 26.1994 616.753 23.9302C598.666 21.2088 580.199 17.5417 561.867 13.0309C540.734 7.82825 519.241 1.3667 497.987 -6.17468C474.224 -14.6105 450.202 -24.5942 426.591 -35.8485C400.921 -48.0911 375.114 -62.1299 349.888 -77.5786C295.723 -110.766 242.571 -151.433 191.906 -198.45C141.754 -245.017 93.1411 -298.666 47.4202 -357.907C8.27959 -408.64 -29.6354 -464.64 -65.2723 -524.351C-128.54 -630.404 -160.586 -703.428 -160.902 -704.153L-159.702 -704.84C-159.386 -704.115 -127.376 -631.176 -64.1652 -525.219C-28.5588 -465.559 9.32259 -409.609 48.4257 -358.924C94.0977 -299.746 142.656 -246.157 192.752 -199.644C243.35 -152.688 296.431 -112.076 350.52 -78.9336C375.709 -63.5087 401.476 -49.489 427.106 -37.2681C450.679 -26.0316 474.66 -16.0646 498.383 -7.64258C519.601 -0.11499 541.054 6.33514 562.149 11.5269C580.445 16.0298 598.875 19.6911 616.927 22.4051C632.005 24.6713 647.164 26.332 661.986 27.3404C668.249 27.7669 674.585 28.085 680.821 28.2847C691.797 28.6358 702.661 28.6358 713.641 28.2847C719.875 28.085 726.212 27.7669 732.475 27.3404C747.296 26.332 762.456 24.6713 777.534 22.4051C795.586 19.6916 814.016 16.0303 832.313 11.5269C853.407 6.33466 874.861 -0.11499 896.078 -7.64258C919.801 -16.0646 943.782 -26.032 967.355 -37.2681C992.986 -49.4895 1018.75 -63.5092 1043.94 -78.9336C1098.03 -112.076 1151.11 -152.688 1201.71 -199.645C1251.81 -246.157 1300.36 -299.747 1346.04 -358.925C1385.14 -409.61 1423.02 -465.559 1458.63 -525.219C1521.84 -631.177 1553.85 -704.116 1554.16 -704.841L1555.36 -704.153C1555.05 -703.429 1523 -630.405 1459.74 -524.351C1424.1 -464.641 1386.18 -408.64 1347.04 -357.907C1301.32 -298.666 1252.71 -245.018 1202.56 -198.45C1151.89 -151.433 1098.74 -110.766 1044.58 -77.5795C1019.35 -62.1294 993.542 -48.0901 967.872 -35.848C944.261 -24.5937 920.24 -14.61 896.476 -6.17413C875.221 1.36676 853.729 7.82874 832.596 13.0314C814.264 17.5422 795.798 21.2093 777.71 23.9307C762.601 26.2004 747.409 27.8646 732.556 28.8749C726.279 29.3024 719.928 29.621 713.68 29.8222C708.176 29.9973 702.643 30.0859 697.232 30.0859Z" fill="#CCCCCC"/>
<path d="M697.236 59.6497C691.585 59.6497 685.803 59.5639 680.053 59.3943C673.525 59.2005 666.855 58.8928 660.229 58.4771C652.787 58.0091 645.214 57.3938 637.719 56.6462C629.394 55.8164 620.914 54.8001 612.513 53.6246C593.251 50.9268 573.624 47.2858 554.177 42.8007C531.602 37.5936 508.677 31.1124 486.038 23.538C460.62 15.0316 434.961 4.94141 409.777 -6.44806C382.331 -18.8632 354.786 -33.1229 327.907 -48.8329C270.185 -82.5847 213.744 -124.024 160.151 -171.999C106.947 -219.66 55.4287 -274.854 7.03 -336.047C-33.3377 -387.101 -72.2325 -443.211 -108.573 -502.82C-172.516 -607.738 -205.263 -682.171 -205.586 -682.911L-204.386 -683.599C-204.064 -682.86 -171.355 -608.519 -107.473 -503.699C-71.1643 -444.144 -32.3051 -388.086 8.02512 -337.079C56.3725 -275.95 107.834 -220.817 160.978 -173.209C214.504 -125.294 270.872 -83.9081 328.518 -50.2012C355.359 -34.5139 382.864 -20.2734 410.27 -7.87653C435.418 3.4967 461.036 13.5701 486.415 22.0641C509.017 29.6247 531.905 36.0956 554.442 41.2938C573.856 45.7715 593.449 49.4071 612.677 52.0999C621.061 53.272 629.526 54.2868 637.836 55.1152C645.317 55.8613 652.875 56.4751 660.302 56.9435C666.915 57.3577 673.572 57.666 680.087 57.8577C691.567 58.197 702.905 58.197 714.385 57.8577C720.9 57.666 727.557 57.3582 734.17 56.9435C741.597 56.4751 749.155 55.8613 756.636 55.1152C764.946 54.2868 773.411 53.272 781.795 52.0999C801.023 49.4071 820.616 45.7715 840.03 41.2938C862.569 36.0941 885.456 29.6247 908.057 22.0641C933.436 13.5696 959.055 3.4967 984.202 -7.87653C1011.61 -20.2719 1039.11 -34.5125 1065.95 -50.2012C1123.6 -83.9081 1179.97 -125.294 1233.49 -173.209C1286.64 -220.817 1338.1 -275.95 1386.45 -337.079C1426.78 -388.086 1465.64 -444.144 1501.94 -503.699C1565.83 -608.519 1598.54 -682.86 1598.86 -683.599L1600.06 -682.911C1599.73 -682.172 1566.99 -607.739 1503.04 -502.82C1466.7 -443.211 1427.81 -387.101 1387.44 -336.047C1339.04 -274.854 1287.53 -219.66 1234.32 -171.999C1180.73 -124.024 1124.29 -82.5847 1066.56 -48.8324C1039.68 -33.121 1012.14 -18.8617 984.695 -6.44757C959.51 4.94189 933.852 15.0321 908.434 23.5385C885.797 31.1129 862.871 37.5926 840.295 42.8011C820.847 47.2863 801.22 50.9278 781.958 53.6251C773.558 54.8006 765.078 55.8163 756.752 56.6467C749.258 57.3943 741.684 58.0096 734.243 58.4776C727.617 58.8938 720.947 59.201 714.419 59.3948C708.669 59.5639 702.887 59.6497 697.236 59.6497Z" fill="#CCCCCC"/>
<path d="M697.233 91.7842C691.295 91.7842 685.242 91.7034 679.244 91.5456C672.322 91.3627 665.3 91.0698 658.374 90.6778C650.492 90.2335 642.482 89.6467 634.57 88.9352C625.708 88.1364 616.705 87.161 607.812 86.0333C587.257 83.4229 566.331 79.8849 545.615 75.5186C521.419 70.4136 496.89 64.0448 472.708 56.5878C445.44 48.1761 417.956 38.1746 391.022 26.8625C361.619 14.512 332.155 0.299194 303.447 -15.3837C241.915 -49.0102 181.938 -90.3941 125.178 -138.385C69.8188 -185.223 16.3502 -239.473 -33.7411 -299.631C-75.4879 -349.782 -115.618 -404.916 -153.017 -463.501C-218.765 -566.529 -252.221 -639.605 -252.551 -640.331L-251.361 -641.041C-251.031 -640.315 -217.616 -567.333 -151.932 -464.408C-114.568 -405.876 -74.4755 -350.795 -32.7691 -300.691C17.2683 -240.598 70.6781 -186.407 125.975 -139.622C182.667 -91.689 242.57 -50.3553 304.024 -16.7698C332.695 -1.10815 362.12 13.0855 391.483 25.4193C418.382 36.7161 445.827 46.7037 473.057 55.105C497.204 62.5502 521.698 68.9102 545.858 74.0058C566.542 78.3677 587.436 81.8997 607.961 84.5057C616.839 85.6314 625.827 86.6058 634.675 87.4041C642.575 88.1142 650.571 88.6995 658.442 89.1437C665.356 89.5338 672.365 89.8252 679.276 90.0082C691.252 90.3267 703.215 90.3267 715.19 90.0082C722.101 89.8252 729.111 89.5338 736.024 89.1437C743.895 88.6995 751.891 88.1142 759.791 87.4041C768.638 86.6058 777.626 85.6314 786.505 84.5057C807.028 81.8997 827.923 78.3677 848.608 74.0058C872.768 68.9102 897.262 62.5502 921.409 55.105C948.638 46.7037 976.084 36.7161 1002.98 25.4193C1032.35 13.0855 1061.77 -1.10962 1090.44 -16.7698C1151.9 -50.3553 1211.8 -91.689 1268.49 -139.622C1323.79 -186.407 1377.2 -240.598 1427.24 -300.691C1468.94 -350.795 1509.04 -405.878 1546.4 -464.408C1612.08 -567.333 1645.5 -640.314 1645.83 -641.041L1647.02 -640.331C1646.69 -639.605 1613.23 -566.529 1547.48 -463.501C1510.08 -404.918 1469.95 -349.783 1428.21 -299.631C1378.11 -239.473 1324.65 -185.223 1269.29 -138.385C1212.53 -90.3941 1152.55 -49.0107 1091.02 -15.3832C1062.31 0.298157 1032.85 14.5126 1003.44 26.8631C976.508 38.1752 949.024 48.1761 921.756 56.5883C897.575 64.0453 873.046 70.4141 848.851 75.5191C828.133 79.8869 807.207 83.4233 786.652 86.0338C777.759 87.161 768.757 88.1368 759.895 88.9357C751.983 89.6472 743.973 90.234 736.089 90.6783C729.165 91.0703 722.143 91.3627 715.221 91.5461C709.222 91.7034 703.17 91.7842 697.233 91.7842Z" fill="#CCCCCC"/>
<path d="M697.236 126.838C690.965 126.838 684.616 126.765 678.365 126.624C671.059 126.459 663.648 126.194 656.337 125.839C648 125.435 639.504 124.899 631.087 124.245C621.66 123.511 612.072 122.607 602.59 121.561C592.076 120.399 581.407 119.027 570.881 117.486C559.314 115.79 547.596 113.843 536.052 111.697C510.025 106.859 483.691 100.798 457.782 93.6799C428.445 85.6178 398.919 76.001 370.025 65.0928C338.464 53.1762 306.879 39.4268 276.147 24.2301C210.619 -8.18634 146.861 -48.19 86.6448 -94.6695C28.7738 -139.361 -26.9343 -190.985 -78.9324 -248.11C-122.437 -295.919 -163.965 -348.251 -202.362 -403.655C-268.14 -498.607 -301.224 -564.642 -301.551 -565.298L-300.385 -566.061C-300.06 -565.404 -267.02 -499.461 -201.311 -404.61C-162.952 -349.261 -121.465 -296.98 -78.0034 -249.219C-26.0606 -192.155 29.5877 -140.585 87.3941 -95.9446C147.543 -49.5179 211.227 -9.55908 276.678 22.8194C307.374 37.9978 338.921 51.731 370.445 63.6337C399.304 74.5267 428.794 84.1331 458.095 92.1848C483.972 99.2938 510.273 105.348 536.267 110.181C547.796 112.323 559.498 114.268 571.051 115.961C581.564 117.501 592.219 118.87 602.719 120.03C612.189 121.076 621.765 121.979 631.178 122.711C639.584 123.366 648.068 123.902 656.394 124.304C663.696 124.66 671.096 124.923 678.391 125.088C690.876 125.37 703.594 125.37 716.081 125.088C723.376 124.922 730.776 124.66 738.078 124.304C746.404 123.902 754.888 123.366 763.294 122.711C772.707 121.979 782.283 121.077 791.753 120.03C802.253 118.87 812.907 117.501 823.422 115.961C834.973 114.268 846.677 112.323 858.205 110.181C884.199 105.348 910.501 99.2938 936.377 92.1848C965.678 84.1331 995.167 74.5267 1024.03 63.6337C1055.55 51.7305 1087.1 37.9978 1117.79 22.8194C1183.24 -9.55908 1246.93 -49.5179 1307.08 -95.9446C1364.88 -140.585 1420.53 -192.155 1472.47 -249.22C1515.94 -296.981 1557.42 -349.262 1595.78 -404.609C1661.49 -499.461 1694.53 -565.404 1694.86 -566.06L1696.02 -565.298C1695.7 -564.641 1662.61 -498.607 1596.83 -403.655C1558.44 -348.254 1516.91 -295.92 1473.4 -248.111C1421.41 -190.985 1365.7 -139.361 1307.83 -94.6705C1247.61 -48.1895 1183.85 -8.18585 1118.33 24.2306C1087.59 39.4272 1056.01 53.1768 1024.45 65.0933C995.553 76.0015 966.027 85.6183 936.69 93.6804C910.781 100.798 884.447 106.859 858.42 111.697C846.876 113.844 835.158 115.79 823.592 117.486C813.064 119.028 802.394 120.4 791.881 121.561C782.398 122.608 772.811 123.512 763.384 124.245C754.968 124.9 746.471 125.436 738.134 125.839C730.823 126.195 723.412 126.459 716.107 126.624C709.855 126.765 703.506 126.838 697.236 126.838Z" fill="#CCCCCC"/>
<path d="M697.232 165.228C690.606 165.228 683.929 165.17 677.387 165.053C669.65 164.915 661.805 164.693 654.069 164.393C645.141 164.047 636.101 163.589 627.198 163.031C617.096 162.397 606.849 161.615 596.743 160.707C585.431 159.689 573.99 158.487 562.738 157.132C550.301 155.634 537.704 153.906 525.294 151.994C497.175 147.659 468.802 142.193 440.962 135.753C409.318 128.428 377.501 119.64 346.396 109.637C312.5 98.7318 278.572 86.0986 245.554 72.0884C176.063 42.5901 108.303 6.05823 44.1592 -36.4928C-92.7897 -127.396 -193.384 -233.68 -253.656 -306.837C-279.684 -338.44 -303.853 -370.38 -327.544 -404.479C-343.691 -427.721 -352.124 -440.954 -352.207 -441.086L-351.122 -441.99C-351.039 -441.86 -342.621 -428.649 -326.495 -405.437C-302.827 -371.371 -278.682 -339.464 -252.679 -307.891C-192.469 -234.811 -91.9778 -128.632 44.831 -37.8232C108.91 4.68448 176.6 41.1788 246.021 70.6471C279.004 84.6431 312.897 97.2618 346.759 108.157C377.831 118.15 409.615 126.928 441.228 134.246C469.039 140.681 497.383 146.14 525.474 150.471C537.87 152.381 550.455 154.108 562.878 155.604C574.119 156.957 585.548 158.159 596.848 159.177C606.944 160.083 617.18 160.864 627.271 161.497C636.165 162.054 645.197 162.512 654.115 162.857C661.842 163.156 669.68 163.378 677.408 163.516C690.476 163.751 703.986 163.751 717.056 163.516C724.784 163.378 732.621 163.156 740.348 162.857C749.267 162.512 758.299 162.054 767.193 161.497C777.285 160.864 787.521 160.083 797.616 159.177C808.916 158.159 820.344 156.957 831.586 155.604C844.012 154.108 856.597 152.38 868.99 150.471C897.082 146.14 925.427 140.681 953.236 134.246C984.849 126.928 1016.63 118.15 1047.7 108.157C1081.57 97.2618 1115.46 84.6431 1148.44 70.6471C1217.87 41.1793 1285.56 4.68448 1349.63 -37.8232C1486.44 -128.632 1586.93 -234.811 1647.14 -307.891C1673.15 -339.463 1697.29 -371.371 1720.96 -405.437C1737.09 -428.649 1745.5 -441.86 1745.59 -441.99L1746.67 -441.084C1746.59 -440.954 1738.16 -427.721 1722.01 -404.479C1698.32 -370.38 1674.15 -338.44 1648.12 -306.837C1587.85 -233.68 1487.25 -127.395 1350.31 -36.4928C1286.16 6.05823 1218.4 42.5901 1148.91 72.0884C1115.89 86.0991 1081.96 98.7318 1048.07 109.637C1016.96 119.641 985.147 128.428 953.501 135.753C925.663 142.193 897.29 147.659 869.17 151.994C856.762 153.904 844.165 155.634 831.725 157.132C820.473 158.487 809.032 159.69 797.721 160.707C787.615 161.615 777.368 162.397 767.266 163.031C758.363 163.589 749.322 164.047 740.394 164.393C732.658 164.692 724.813 164.915 717.077 165.053C710.535 165.17 703.858 165.228 697.232 165.228Z" fill="#CCCCCC"/>
<path d="M697.235 207.461C690.678 207.461 683.703 207.425 676.311 207.336C668.075 207.239 659.744 207.078 651.548 206.862C641.987 206.608 632.33 206.27 622.847 205.856C611.901 205.374 600.906 204.782 590.171 204.094C578.006 203.315 565.687 202.383 553.557 201.322C540.079 200.143 526.48 198.776 513.138 197.258C482.647 193.785 451.957 189.351 421.919 184.078C387.752 178.079 353.359 170.804 319.695 162.456C283.371 153.447 246.86 142.932 211.177 131.203C138.584 107.337 66.6459 77.561 -2.63834 42.7027C-110.514 -11.5918 -213.026 -78.4819 -307.326 -156.111C-332.557 -176.885 -356.326 -197.664 -379.989 -219.634C-395.648 -234.174 -403.838 -242.244 -403.918 -242.324L-403.042 -243.488C-402.961 -243.408 -394.785 -235.353 -379.144 -220.829C-355.501 -198.877 -331.753 -178.114 -306.542 -157.36C-212.319 -79.7926 -109.889 -12.9562 -2.09882 41.2939C67.1306 76.1256 139.012 105.879 211.547 129.726C247.202 141.444 283.684 151.952 319.979 160.954C353.617 169.294 387.983 176.564 422.122 182.559C452.137 187.828 482.804 192.258 513.269 195.727C526.602 197.245 540.191 198.612 553.659 199.791C565.78 200.849 578.089 201.781 590.245 202.56C600.974 203.248 611.96 203.839 622.898 204.32C632.374 204.734 642.025 205.073 651.579 205.325C659.769 205.543 668.094 205.702 676.325 205.799C683.713 205.888 690.682 205.924 697.235 205.924C703.786 205.924 710.757 205.888 718.144 205.799C726.374 205.702 734.701 205.543 742.891 205.325C752.444 205.073 762.093 204.734 771.571 204.32C782.51 203.839 793.496 203.248 804.224 202.56C816.38 201.781 828.689 200.849 840.81 199.791C854.279 198.612 867.867 197.245 881.2 195.727C911.665 192.258 942.332 187.828 972.347 182.559C1006.49 176.564 1040.86 169.294 1074.49 160.954C1110.79 151.952 1147.27 141.444 1182.92 129.726C1255.46 105.879 1327.34 76.1256 1396.57 41.2939C1504.36 -12.9557 1606.79 -79.7921 1701.01 -157.36C1726.22 -178.114 1749.97 -198.877 1773.61 -220.829C1789.25 -235.353 1797.43 -243.408 1797.51 -243.488L1798.39 -242.324C1798.31 -242.244 1790.12 -234.174 1774.46 -219.634C1750.8 -197.663 1727.03 -176.885 1701.8 -156.111C1607.5 -78.4819 1504.98 -11.5918 1397.11 42.7022C1327.82 77.5605 1255.89 107.336 1183.29 131.203C1147.61 142.932 1111.1 153.446 1074.77 162.455C1041.11 170.802 1006.72 178.078 972.551 184.078C942.513 189.351 911.823 193.785 881.333 197.258C867.991 198.776 854.392 200.143 840.914 201.321C828.783 202.382 816.465 203.314 804.3 204.094C793.564 204.781 782.57 205.374 771.624 205.855C762.14 206.27 752.483 206.607 742.923 206.861C734.727 207.077 726.396 207.238 718.16 207.336C710.766 207.425 703.791 207.461 697.235 207.461Z" fill="#CCCCCC"/>
<path d="M697.233 254.136C690.322 254.136 682.946 254.123 675.107 254.086C666.787 254.047 657.988 253.984 648.714 253.879C638.477 253.767 628.121 253.606 617.935 253.402C606.057 253.163 594.211 252.858 582.723 252.497C569.418 252.077 556.094 251.563 543.122 250.972C528.436 250.299 513.689 249.502 499.292 248.601C466.092 246.525 432.757 243.77 400.213 240.409C363.472 236.613 326.177 231.889 289.362 226.365C251.147 220.631 211.802 213.788 172.417 206.028C104.063 192.559 32.0887 175.685 -54.0887 152.924C-79.1689 146.302 -103.094 139.929 -125.849 133.866C-228.02 106.647 -308.721 85.1463 -362.735 76.5768C-424.274 66.8575 -455.284 70.001 -455.589 70.037L-455.715 68.5059C-455.406 68.4758 -424.268 65.3057 -362.551 75.0552C-308.477 83.6335 -227.75 105.14 -125.545 132.37C-102.791 138.433 -78.8668 144.807 -53.7876 151.426C32.3651 174.181 104.315 191.05 172.643 204.513C212.01 212.272 251.339 219.11 289.536 224.841C326.333 230.362 363.61 235.086 400.333 238.879C432.861 242.238 466.18 244.993 499.364 247.068C513.755 247.967 528.494 248.764 543.175 249.435C556.141 250.027 569.459 250.54 582.759 250.96C594.241 251.322 606.084 251.627 617.957 251.866C628.14 252.07 638.492 252.231 648.726 252.343C657.997 252.448 666.794 252.511 675.11 252.55C682.948 252.586 690.322 252.599 697.232 252.599C704.141 252.599 711.514 252.586 719.352 252.55C727.669 252.511 736.465 252.448 745.737 252.343C755.972 252.231 766.324 252.07 776.505 251.866C788.38 251.627 800.223 251.322 811.703 250.96C825.002 250.54 838.32 250.027 851.287 249.435C865.965 248.764 880.705 247.967 895.099 247.068C928.282 244.994 961.601 242.238 994.13 238.879C1030.85 235.085 1068.13 230.361 1104.93 224.841C1143.12 219.11 1182.45 212.271 1221.82 204.513C1290.15 191.05 1362.1 174.181 1448.25 151.426C1473.33 144.806 1497.25 138.433 1520 132.37C1622.21 105.14 1702.94 83.6335 1757.01 75.0552C1818.73 65.3072 1849.87 68.4778 1850.18 68.5059L1850.05 70.037C1849.75 70.0024 1818.73 66.858 1757.2 76.5768C1703.18 85.1463 1622.48 106.647 1520.31 133.868C1497.55 139.93 1473.63 146.304 1448.55 152.924C1362.37 175.685 1290.4 192.559 1222.05 206.028C1182.66 213.788 1143.32 220.632 1105.1 226.365C1068.29 231.889 1030.99 236.613 994.251 240.409C961.706 243.77 928.371 246.525 895.172 248.601C880.771 249.502 866.025 250.299 851.341 250.972C838.369 251.563 825.045 252.076 811.74 252.497C800.254 252.858 788.408 253.164 776.528 253.402C766.344 253.606 755.988 253.767 745.749 253.879C736.475 253.984 727.676 254.047 719.357 254.086C711.52 254.123 704.144 254.136 697.233 254.136Z" fill="#CCCCCC"/>
<path d="M1901 557.184C1900.73 556.549 1873.73 492.94 1812.76 434.095C1763.24 386.365 1669.63 326.042 1504.9 309.711C1429.65 302.327 1345.54 302.27 1265.86 303.3C1235.07 303.705 1203.39 304.305 1172.75 304.886C1161.75 305.095 1150.74 305.303 1139.72 305.505C1092.25 306.375 1053.94 306.923 1019.15 307.231C1000.35 307.398 981.523 307.506 963.182 307.552C946.081 307.594 928.543 307.593 911.053 307.536C894.667 307.486 878.735 307.395 863.287 307.281C848.432 307.172 834.074 307.042 820.241 306.908L782.112 306.532C770.521 306.417 759.464 306.315 748.954 306.231C739.007 306.154 729.591 306.092 720.712 306.051C712.369 306.015 704.546 305.996 697.238 305.996C689.93 305.996 682.105 306.015 673.763 306.051C664.884 306.092 655.468 306.154 645.521 306.231C635.011 306.315 623.954 306.418 612.363 306.532L574.234 306.908C560.4 307.042 546.043 307.173 531.188 307.281C515.741 307.395 499.808 307.486 483.422 307.536C465.932 307.593 448.393 307.596 431.292 307.552C412.951 307.506 394.12 307.398 375.323 307.231C340.539 306.923 302.225 306.375 254.75 305.505C243.738 305.303 232.729 305.095 221.734 304.886C191.091 304.305 159.404 303.705 128.619 303.3C48.9337 302.267 -35.1794 302.329 -110.427 309.711C-275.159 326.042 -368.766 386.365 -418.285 434.095C-479.259 492.94 -506.258 556.548 -506.523 557.184L-507.734 556.52C-507.468 555.882 -480.357 491.99 -419.149 432.92C-369.482 385.046 -275.625 324.546 -110.542 308.18C-35.2357 300.791 48.9175 300.728 128.634 301.763C159.423 302.168 191.111 302.769 221.756 303.35C232.752 303.558 243.76 303.767 254.771 303.968C302.243 304.839 340.552 305.387 375.334 305.694C394.128 305.861 412.956 305.969 431.295 306.016C448.395 306.061 465.931 306.056 483.418 306C499.803 305.95 515.734 305.859 531.179 305.744C546.034 305.636 560.39 305.506 574.222 305.372L612.352 304.995C623.944 304.881 635.001 304.779 645.512 304.695C655.461 304.617 664.877 304.555 673.758 304.515C682.103 304.479 689.929 304.459 697.238 304.459C704.547 304.459 712.373 304.479 720.718 304.515C729.598 304.556 739.015 304.617 748.964 304.695C759.475 304.779 770.532 304.881 782.124 304.995L820.254 305.372C834.086 305.506 848.441 305.636 863.297 305.744C878.741 305.859 894.673 305.95 911.057 306C928.545 306.058 946.082 306.061 963.18 306.016C981.519 305.969 1000.35 305.862 1019.14 305.694C1053.92 305.387 1092.23 304.839 1139.7 303.968C1150.72 303.767 1161.73 303.558 1172.72 303.35C1203.37 302.769 1235.05 302.168 1265.84 301.763C1345.56 300.735 1429.71 300.789 1505.02 308.18C1670.1 324.546 1763.96 385.046 1813.62 432.919C1874.83 491.99 1901.94 555.883 1902.21 556.52L1901 557.184Z" fill="#CCCCCC"/>
</g>
</g>
</svg>
