<svg width="48" height="48" viewBox="0 0 48 48" fill="none" xmlns="http://www.w3.org/2000/svg">
<g clip-path="url(#clip0_2632_2196)">
<path d="M5.14724 -0.0438768C5.27437 -0.0445438 5.40151 -0.0452657 5.52864 -0.0460397C5.79444 -0.0472961 6.06021 -0.0474491 6.32601 -0.046898C6.66424 -0.0463464 7.00235 -0.0492098 7.34056 -0.0530027C7.60303 -0.0554435 7.86546 -0.0556971 8.12793 -0.0553566C8.31247 -0.0555896 8.49701 -0.0578945 8.68154 -0.0602533C9.60795 -0.0531752 10.3926 0.173075 11.0634 0.843819C11.5547 1.49895 11.7448 2.12555 11.7379 2.9499C11.7377 3.01348 11.7374 3.07705 11.7371 3.14256C11.7361 3.34313 11.7337 3.54365 11.7313 3.74421C11.7304 3.88123 11.7296 4.01826 11.7288 4.15528C11.7267 4.48897 11.7235 4.82264 11.7196 5.15632C12.643 5.15056 13.5664 5.14331 14.4898 5.13422C14.9187 5.13004 15.3475 5.12636 15.7764 5.12384C16.191 5.12139 16.6055 5.11759 17.0201 5.1129C17.1775 5.11134 17.335 5.11026 17.4925 5.10967C18.5817 5.10518 19.5913 5.06101 20.5438 4.47077C20.638 4.41349 20.7321 4.35621 20.8291 4.29719C21.0618 4.14638 21.2858 3.98821 21.5106 3.82624C22.5995 3.10101 23.9287 3.02201 25.187 3.24946C25.9085 3.44762 26.4835 3.79681 27.0946 4.21882C27.2497 4.32219 27.4059 4.42382 27.5634 4.52351C27.6291 4.56653 27.6949 4.60955 27.7626 4.65388C28.7223 5.10764 29.7047 5.10666 30.7432 5.11054C30.9036 5.11212 31.0639 5.11383 31.2243 5.11564C31.643 5.12007 32.0618 5.12288 32.4805 5.12534C32.9092 5.12815 33.3378 5.13251 33.7664 5.13673C34.605 5.14476 35.4436 5.15109 36.2821 5.15632C36.2802 5.07368 36.2782 4.99104 36.2762 4.9059C36.2697 4.59435 36.2651 4.28287 36.2615 3.97128C36.2597 3.83736 36.2571 3.70344 36.2538 3.56955C36.2305 2.58944 36.2872 1.68072 36.8915 0.861397C37.4475 0.283723 38.2 -0.0254787 38.991 -0.0712281C39.225 -0.0742659 39.459 -0.074174 39.693 -0.0713426C39.8195 -0.0714839 39.9459 -0.0718067 40.0724 -0.0722996C40.3354 -0.0727024 40.5984 -0.0711525 40.8614 -0.0681154C41.1959 -0.0643787 41.5303 -0.065263 41.8649 -0.0675749C42.1253 -0.0689137 42.3857 -0.0679519 42.6462 -0.0663081C42.8286 -0.0655052 43.0111 -0.0664615 43.1936 -0.0674673C44.1112 -0.0529683 44.7682 0.160991 45.4579 0.773506C46.007 1.36668 46.23 2.10688 46.2328 2.90405C46.2333 2.99563 46.2339 3.08721 46.2344 3.18157C46.2345 3.28098 46.2346 3.38038 46.2347 3.4828C46.2352 3.58835 46.2357 3.6939 46.2361 3.80264C46.2375 4.1517 46.2382 4.50074 46.2387 4.8498C46.2392 5.09281 46.2398 5.33581 46.2403 5.57882C46.2412 6.02337 46.2417 6.46792 46.242 6.91248C46.2424 7.56481 46.2441 8.21712 46.2468 8.86944C46.2491 9.43613 46.2498 10.0028 46.25 10.5695C46.2503 10.8097 46.251 11.0499 46.2522 11.2902C46.2538 11.6269 46.2537 11.9637 46.253 12.3004C46.2539 12.3989 46.2548 12.4973 46.2557 12.5988C46.2503 13.5532 46.0652 14.3985 45.3759 15.0938C44.7746 15.5788 44.1956 15.8651 43.4114 15.8711C43.3034 15.8723 43.1955 15.8734 43.0842 15.8747C42.9688 15.8749 42.8533 15.8751 42.7344 15.8753C42.6144 15.8759 42.4945 15.8766 42.3708 15.8772C42.1173 15.8783 41.8638 15.8787 41.6103 15.8786C41.2876 15.8785 40.9649 15.8811 40.6421 15.8843C40.3317 15.8869 40.0214 15.8868 39.711 15.887C39.5961 15.8884 39.4812 15.8897 39.3629 15.8911C38.3884 15.886 37.7209 15.6519 37.0061 14.9869C36.4491 14.3856 36.2574 13.689 36.2638 12.8826C36.2642 12.7839 36.2642 12.7839 36.2646 12.6833C36.2657 12.475 36.268 12.2669 36.2704 12.0587C36.2714 11.9167 36.2722 11.7747 36.273 11.6328C36.275 11.2864 36.2783 10.9401 36.2821 10.5938C35.3726 10.5996 34.463 10.6068 33.5535 10.6159C33.131 10.6201 32.7086 10.6238 32.2861 10.6263C31.8776 10.6288 31.4691 10.6326 31.0607 10.6372C30.9056 10.6388 30.7506 10.6399 30.5956 10.6405C29.1599 10.6465 28.0817 10.8433 26.8819 11.6796C25.7975 12.4298 24.6088 12.7709 23.2802 12.6036C22.3266 12.4173 21.5735 12.0282 20.7949 11.4606C19.8204 10.7648 18.8049 10.668 17.6462 10.6555C17.0293 10.6358 17.0293 10.6358 16.7265 10.4228C16.533 10.1235 16.5511 9.91109 16.5946 9.56257C16.7596 9.26397 16.8289 9.20323 17.1571 9.09382C18.9948 9.01277 20.4732 9.26321 21.9921 10.3532C22.77 10.9027 23.6062 11.1603 24.5575 11.004C25.2628 10.8394 25.8468 10.5034 26.4267 10.0782C27.7701 9.1147 29.2366 9.06505 30.8256 9.07551C30.9837 9.07586 31.1419 9.07613 31.3 9.07631C31.7124 9.07702 32.1248 9.07886 32.5373 9.08094C32.9596 9.08288 33.382 9.08372 33.8043 9.08466C34.6303 9.08666 35.4562 9.08996 36.2821 9.09382C36.2821 8.28944 36.2821 7.48507 36.2821 6.65632C36.0642 6.65779 35.8462 6.65926 35.6216 6.66078C34.8972 6.66547 34.1727 6.66856 33.4483 6.67089C33.0096 6.67235 32.5708 6.67433 32.1321 6.67754C31.7078 6.68062 31.2835 6.68228 30.8592 6.683C30.6983 6.68352 30.5373 6.68452 30.3763 6.68606C28.747 6.70092 27.3997 6.45273 26.0517 5.47272C25.1848 4.85216 24.4134 4.6649 23.3446 4.78132C22.6533 4.92939 22.1165 5.34845 21.5473 5.74457C20.5866 6.39589 19.5386 6.67276 18.3822 6.66696C18.3098 6.66698 18.2375 6.66699 18.163 6.667C17.9256 6.66694 17.6882 6.66621 17.4508 6.66547C17.2856 6.6653 17.1203 6.66517 16.9551 6.66507C16.5214 6.66471 16.0877 6.66379 15.654 6.66276C15.211 6.66179 14.7679 6.66137 14.3249 6.6609C13.4564 6.65989 12.588 6.65824 11.7196 6.65632C11.7196 7.46069 11.7196 8.26507 11.7196 9.09382C11.898 9.09164 12.0764 9.08947 12.2602 9.08723C12.494 9.08547 12.7279 9.08376 12.9618 9.0821C13.0794 9.08053 13.197 9.07896 13.3181 9.07734C13.4311 9.07673 13.5441 9.07613 13.6605 9.07551C13.8167 9.07403 13.8167 9.07403 13.9759 9.07253C14.248 9.0936 14.399 9.13439 14.6259 9.28132C14.8225 9.53406 14.8129 9.66503 14.7958 9.9903C14.6957 10.4139 14.6957 10.4139 14.4384 10.5938C14.1569 10.6257 14.1569 10.6257 13.8162 10.6213C13.6944 10.6204 13.5727 10.6195 13.4472 10.6185C13.3186 10.6162 13.19 10.6138 13.0614 10.6114C12.9317 10.61 12.802 10.6087 12.6723 10.6076C12.3547 10.6042 12.0372 10.5996 11.7196 10.5938C11.7226 10.7228 11.7226 10.7228 11.7256 10.8543C11.732 11.1776 11.7367 11.5008 11.7402 11.8241C11.7421 11.9632 11.7446 12.1023 11.7479 12.2414C11.774 13.3804 11.6684 14.2644 10.8565 15.1231C10.3123 15.6353 9.75043 15.8654 9.00665 15.8711C8.89898 15.8723 8.7913 15.8734 8.68037 15.8747C8.56522 15.8749 8.45008 15.8751 8.33145 15.8753C8.15182 15.8762 8.15182 15.8762 7.96856 15.8772C7.71545 15.8783 7.46235 15.8787 7.20924 15.8786C6.88731 15.8785 6.56545 15.8811 6.24354 15.8843C5.93365 15.8869 5.62377 15.8868 5.31387 15.887C5.19948 15.8884 5.08509 15.8897 4.96724 15.8911C3.99887 15.886 3.227 15.6799 2.50942 15.0059C1.99909 14.4071 1.7717 13.7183 1.76896 12.9398C1.76816 12.8025 1.76816 12.8025 1.76734 12.6623C1.76723 12.5629 1.76713 12.4635 1.76702 12.3611C1.76656 12.2555 1.76609 12.15 1.76561 12.0412C1.76424 11.6922 1.7636 11.3431 1.76309 10.9941C1.76255 10.7511 1.76201 10.5081 1.76147 10.2651C1.76061 9.82051 1.76002 9.37596 1.75973 8.93141C1.75931 8.27908 1.75767 7.62677 1.75495 6.97445C1.75267 6.40776 1.75196 5.84108 1.75179 5.27438C1.75151 5.03417 1.75076 4.79395 1.74953 4.55373C1.74792 4.21696 1.7481 3.88023 1.74871 3.54346C1.74785 3.445 1.74698 3.34654 1.74609 3.2451C1.75137 2.30545 1.92647 1.45618 2.6061 0.767647C3.4132 0.0197588 4.07085 -0.0437085 5.14724 -0.0438768ZM3.75454 1.7425C3.71079 1.79785 3.66705 1.8532 3.62197 1.91022C3.57677 1.96509 3.53158 2.01996 3.48501 2.07648C3.28676 2.39183 3.27029 2.70178 3.26896 3.06793C3.26843 3.15663 3.26789 3.24534 3.26734 3.33673C3.26724 3.43341 3.26713 3.53009 3.26702 3.6297C3.26656 3.73203 3.26609 3.83435 3.26561 3.93978C3.26424 4.27852 3.2636 4.61726 3.26309 4.956C3.26255 5.19141 3.26201 5.42681 3.26147 5.66222C3.26061 6.09287 3.26002 6.52351 3.25973 6.95416C3.25931 7.58696 3.25767 8.21975 3.25495 8.85255C3.25268 9.40157 3.25196 9.95058 3.25179 10.4996C3.25151 10.7327 3.25076 10.9659 3.24953 11.199C3.24793 11.5253 3.2481 11.8515 3.24871 12.1778C3.24785 12.2739 3.24698 12.37 3.24609 12.469C3.24925 13.0108 3.29901 13.3982 3.56338 13.8751C3.94745 14.231 4.18034 14.355 4.69671 14.3604C4.79624 14.3616 4.89576 14.3628 4.9983 14.3641C5.16031 14.3651 5.16031 14.3651 5.32559 14.3662C5.43635 14.3669 5.54712 14.3677 5.66125 14.3685C5.8961 14.3698 6.13095 14.3708 6.36581 14.3715C6.72467 14.3731 7.08345 14.3772 7.44229 14.3814C7.67031 14.3823 7.89834 14.3831 8.12637 14.3837C8.28723 14.3862 8.28723 14.3862 8.45135 14.3887C9.03909 14.3871 9.39998 14.3678 9.84463 13.9688C10.1509 13.6203 10.2311 13.3282 10.2334 12.8703C10.2341 12.7794 10.2348 12.6884 10.2355 12.5947C10.2357 12.4951 10.236 12.3954 10.2362 12.2928C10.2368 12.1877 10.2375 12.0826 10.2381 11.9744C10.2399 11.626 10.241 11.2777 10.242 10.9293C10.2423 10.8104 10.2427 10.6915 10.2431 10.569C10.2449 10.0046 10.2462 9.44019 10.247 8.8758C10.2479 8.22516 10.2504 7.57454 10.2542 6.92391C10.2574 6.35973 10.2585 5.79556 10.2589 5.23136C10.2593 4.99169 10.2604 4.75202 10.2621 4.51236C10.2644 4.17685 10.2643 3.84142 10.2637 3.5059C10.2649 3.40701 10.2661 3.30812 10.2673 3.20624C10.2632 2.6171 10.195 2.26077 9.84463 1.78132C9.42214 1.45633 8.9909 1.39524 8.46845 1.3927C8.38427 1.3921 8.30008 1.3915 8.21335 1.39089C8.12349 1.39078 8.03364 1.39068 7.94106 1.39057C7.84756 1.39026 7.75406 1.38995 7.65773 1.38963C7.46026 1.38915 7.26279 1.38893 7.06532 1.38895C6.76432 1.38874 6.46336 1.38704 6.16238 1.38526C5.97012 1.38499 5.77786 1.3848 5.5856 1.38471C5.49612 1.38404 5.40665 1.38336 5.31446 1.38267C4.48293 1.38251 4.48293 1.38251 3.75454 1.7425ZM38.1747 1.81647C37.8743 2.17698 37.7588 2.42137 37.7577 2.89174C37.757 2.98294 37.7564 3.07415 37.7557 3.16812C37.7559 3.26758 37.7561 3.36703 37.7564 3.46951C37.7559 3.57473 37.7554 3.67995 37.7549 3.78836C37.7536 4.13668 37.7537 4.48499 37.7539 4.83332C37.7536 5.07526 37.7532 5.31719 37.7527 5.55913C37.752 6.06651 37.752 6.57388 37.7525 7.08126C37.7531 7.66705 37.7519 8.25283 37.75 8.83862C37.7481 9.40285 37.7478 9.96708 37.7481 10.5313C37.7481 10.7711 37.7476 11.0108 37.7467 11.2506C37.7455 11.5858 37.7461 11.9211 37.7472 12.2564C37.7465 12.3554 37.7458 12.4545 37.7451 12.5566C37.7487 13.0659 37.7704 13.4383 38.0634 13.8751C38.4529 14.2266 38.678 14.355 39.1967 14.3604C39.2962 14.3616 39.3958 14.3628 39.4983 14.3641C39.6603 14.3651 39.6603 14.3651 39.8256 14.3662C39.9364 14.3669 40.0471 14.3677 40.1613 14.3685C40.3961 14.3698 40.631 14.3708 40.8658 14.3715C41.2247 14.3731 41.5835 14.3772 41.9423 14.3814C42.1703 14.3823 42.3983 14.3831 42.6264 14.3837C42.7872 14.3862 42.7872 14.3862 42.9514 14.3887C43.5393 14.3871 43.8996 14.3675 44.3446 13.9688C44.6803 13.5985 44.731 13.2605 44.7328 12.7718C44.7333 12.6821 44.7339 12.5925 44.7344 12.5002C44.7345 12.4025 44.7346 12.3048 44.7347 12.2041C44.7352 12.1007 44.7357 11.9973 44.7361 11.8908C44.7375 11.5485 44.7382 11.2063 44.7387 10.8641C44.7392 10.6263 44.7398 10.3886 44.7403 10.1509C44.7412 9.71605 44.7417 9.28121 44.742 8.84637C44.7424 8.20709 44.7441 7.56783 44.7468 6.92855C44.7491 6.37413 44.7498 5.81971 44.75 5.26528C44.7503 5.02972 44.751 4.79417 44.7522 4.55861C44.7538 4.22916 44.7537 3.89976 44.753 3.5703C44.7539 3.47298 44.7548 3.37566 44.7557 3.27538C44.7523 2.69638 44.6994 2.26911 44.3043 1.81464C43.8677 1.46179 43.5169 1.39536 42.9685 1.3927C42.8843 1.3921 42.8001 1.3915 42.7133 1.39089C42.6235 1.39078 42.5336 1.39068 42.4411 1.39057C42.3476 1.39026 42.2541 1.38995 42.1577 1.38963C41.9603 1.38915 41.7628 1.38893 41.5653 1.38895C41.2643 1.38874 40.9634 1.38704 40.6624 1.38526C40.4701 1.38499 40.2779 1.3848 40.0856 1.38471C39.9961 1.38404 39.9067 1.38336 39.8145 1.38267C39.1921 1.38479 38.6684 1.39957 38.1747 1.81647Z" fill="#157442"/>
<path d="M5.30398 32.1065C5.42342 32.1062 5.54287 32.1058 5.66593 32.1055C5.91724 32.1052 6.16842 32.1057 6.41971 32.1075C6.73955 32.1096 7.05927 32.1084 7.3791 32.1061C7.6874 32.1044 7.99568 32.1056 8.30398 32.1065C8.41767 32.1058 8.53137 32.105 8.6485 32.1042C9.61669 32.1149 10.2855 32.3525 10.9956 33.0133C11.5459 33.6072 11.7445 34.2995 11.7379 35.097C11.7377 35.1607 11.7374 35.2244 11.7371 35.2901C11.7361 35.4916 11.7337 35.6931 11.7313 35.8946C11.7304 36.0321 11.7296 36.1695 11.7288 36.307C11.7267 36.6422 11.7235 36.9774 11.7196 37.3126C12.6659 37.309 13.6121 37.3034 14.5583 37.2954C14.9978 37.2917 15.4372 37.2887 15.8767 37.2872C16.3016 37.2858 16.7265 37.2825 17.1514 37.2781C17.3127 37.2767 17.474 37.2759 17.6353 37.2759C18.8878 37.2746 19.9346 37.1397 20.9716 36.3751C22.2203 35.5026 23.4168 35.1625 24.9552 35.3874C25.8378 35.5811 26.5566 35.9926 27.2763 36.5274C28.3131 37.2586 29.3871 37.2754 30.6059 37.276C30.7703 37.2774 30.9347 37.279 31.0992 37.2807C31.5283 37.2847 31.9573 37.2866 32.3864 37.2881C32.8257 37.2899 33.265 37.2938 33.7044 37.2976C34.5636 37.3046 35.4229 37.3094 36.2821 37.3126C36.2807 37.229 36.2792 37.1454 36.2777 37.0592C36.2728 36.7452 36.2693 36.4313 36.2667 36.1173C36.2653 35.9821 36.2634 35.8469 36.2609 35.7117C36.2399 34.5231 36.333 33.719 37.1804 32.8287C37.6974 32.3644 38.2713 32.1465 38.9632 32.1398C39.0709 32.1386 39.1786 32.1374 39.2895 32.1361C39.4061 32.1354 39.5227 32.1347 39.6428 32.134C39.763 32.1333 39.8831 32.1325 40.0069 32.1317C40.2617 32.1303 40.5165 32.1294 40.7713 32.1287C41.0954 32.1276 41.4195 32.1244 41.7436 32.1207C42.0551 32.1176 42.3665 32.1172 42.678 32.1164C42.7933 32.1148 42.9085 32.1132 43.0273 32.1115C43.9996 32.1139 44.7717 32.3174 45.4923 32.9942C46.2471 33.8798 46.2387 34.8459 46.2431 35.9532C46.246 36.1387 46.246 36.1387 46.2489 36.3279C46.2494 36.4469 46.2499 36.5659 46.2504 36.6886C46.2513 36.797 46.2521 36.9055 46.253 37.0173C46.216 37.3443 46.1342 37.5194 45.9384 37.7814C45.6485 37.9263 45.4139 37.9026 45.0946 37.8751C44.818 37.6717 44.7296 37.5602 44.6729 37.2184C44.6727 37.1106 44.6726 37.0029 44.6724 36.8918C44.6706 36.7733 44.6689 36.6548 44.6671 36.5328C44.667 36.4092 44.667 36.2856 44.6669 36.1583C44.7047 35.0934 44.7047 35.0934 44.3446 34.1251C43.8286 33.6551 43.313 33.6955 42.6395 33.7003C42.5293 33.6999 42.4191 33.6996 42.3055 33.6992C42.0729 33.699 41.8403 33.6996 41.6077 33.7012C41.2521 33.7032 40.8967 33.7012 40.5412 33.6988C40.3148 33.6991 40.0885 33.6996 39.8622 33.7003C39.7561 33.6995 39.6501 33.6988 39.5408 33.698C38.9779 33.7047 38.5824 33.7146 38.1571 34.1251C37.8101 34.6461 37.836 35.1387 37.8395 35.7423C37.839 35.8477 37.8385 35.9531 37.838 36.0617C37.8368 36.4095 37.8376 36.7572 37.8385 37.105C37.8383 37.3469 37.8381 37.5887 37.8377 37.8306C37.8373 38.3373 37.8379 38.8439 37.8392 39.3506C37.8407 39.9358 37.8402 40.5209 37.8387 41.106C37.8373 41.6699 37.8374 42.2337 37.8382 42.7976C37.8384 43.0371 37.8382 43.2767 37.8375 43.5162C37.8368 43.8508 37.8379 44.1854 37.8395 44.52C37.8386 44.6687 37.8386 44.6687 37.8378 44.8204C37.842 45.3069 37.8507 45.6306 38.1571 46.0314C38.1571 46.0932 38.1571 46.1551 38.1571 46.2189C38.8196 46.4546 39.4055 46.5411 40.1065 46.5342C40.1993 46.5342 40.2921 46.5343 40.3878 46.5343C40.5825 46.5341 40.7771 46.5332 40.9718 46.5316C41.2687 46.5294 41.5654 46.5297 41.8623 46.5303C42.0524 46.5298 42.2425 46.5291 42.4326 46.5283C42.5646 46.5284 42.5646 46.5284 42.6993 46.5286C43.5117 46.5251 43.5117 46.5251 44.2267 46.1811C44.5451 45.7497 44.6374 45.4732 44.6377 44.9437C44.6382 44.7823 44.6382 44.7823 44.6388 44.6176C44.6389 44.4431 44.6389 44.4431 44.6391 44.2651C44.6408 44.0199 44.6426 43.7748 44.6446 43.5296C44.6474 43.1422 44.6495 42.7548 44.6494 42.3673C44.6493 41.994 44.6529 41.6208 44.6566 41.2475C44.656 41.1314 44.6553 41.0153 44.6546 40.8957C44.6569 40.7338 44.6569 40.7338 44.6593 40.5686C44.6596 40.4737 44.66 40.3788 44.6603 40.281C44.7196 40.0314 44.7196 40.0314 44.9365 39.8099C45.1884 39.6564 45.1884 39.6564 45.5282 39.6622C45.8304 39.7462 45.9471 39.783 46.1259 40.0314C46.2463 40.2722 46.2329 40.4461 46.2347 40.7158C46.2356 40.8197 46.2365 40.9237 46.2375 41.0308C46.2381 41.2003 46.2381 41.2003 46.2387 41.3731C46.2392 41.4893 46.2397 41.6054 46.2403 41.725C46.2412 41.9716 46.2418 42.2181 46.2421 42.4646C46.2426 42.7161 46.2439 42.9676 46.246 43.2191C46.2489 43.5823 46.2498 43.9455 46.2504 44.3087C46.2521 44.4759 46.2521 44.4759 46.2539 44.6465C46.2513 45.6304 46.1115 46.5073 45.3957 47.2325C44.5886 47.9804 43.9309 48.0439 42.8545 48.044C42.7274 48.0447 42.6003 48.0454 42.4731 48.0462C42.2073 48.0475 41.9416 48.0476 41.6758 48.0471C41.3375 48.0465 40.9994 48.0494 40.6612 48.0532C40.3987 48.0556 40.1363 48.0559 39.8738 48.0555C39.6893 48.0558 39.5047 48.0581 39.3202 48.0604C38.3938 48.0533 37.6091 47.8271 36.9384 47.1564C36.447 46.5012 36.257 45.8746 36.2638 45.0503C36.2642 44.9549 36.2642 44.9549 36.2646 44.8576C36.2657 44.657 36.268 44.4565 36.2704 44.256C36.2714 44.1189 36.2722 43.9819 36.273 43.8449C36.275 43.5112 36.2783 43.1775 36.2821 42.8439C35.322 42.8474 34.362 42.853 33.4019 42.8611C32.956 42.8648 32.5102 42.8678 32.0643 42.8693C31.6333 42.8707 31.2023 42.8739 30.7713 42.8784C30.6076 42.8798 30.4439 42.8805 30.2801 42.8806C29.1376 42.8817 28.1932 42.9718 27.2177 43.6349C27.1325 43.6913 27.0473 43.7477 26.9595 43.8059C26.8803 43.8597 26.8012 43.9134 26.7196 43.9689C25.6319 44.7052 24.4591 44.9763 23.1483 44.7661C22.1943 44.5485 21.4549 44.1288 20.6687 43.5605C19.9719 43.0941 19.3178 42.9249 18.4886 42.9184C18.4154 42.9174 18.3422 42.9165 18.2667 42.9155C18.0253 42.9126 17.7838 42.9103 17.5424 42.9079C17.3748 42.906 17.2072 42.904 17.0395 42.902C16.5987 42.8969 16.158 42.8922 15.7172 42.8877C15.2672 42.883 14.8173 42.8778 14.3673 42.8726C13.4848 42.8625 12.6022 42.853 11.7196 42.8439C11.7226 42.9678 11.7226 42.9678 11.7256 43.0943C11.732 43.4058 11.7367 43.7173 11.7402 44.0289C11.7421 44.1628 11.7446 44.2967 11.7479 44.4306C11.7714 45.4143 11.6905 46.2422 11.1454 47.0919C10.5532 47.6455 9.9225 48.0083 9.10651 48.0182C8.99318 48.0197 8.87986 48.0212 8.7631 48.0227C8.24342 48.0269 7.72374 48.0308 7.20404 48.0329C6.93042 48.0342 6.65687 48.0368 6.38327 48.0406C6.05165 48.0453 5.72009 48.0476 5.38843 48.0482C5.20222 48.0492 5.01602 48.0524 4.82984 48.0556C3.89725 48.0535 3.24468 47.8484 2.54385 47.2267C1.99471 46.6335 1.77177 45.8933 1.76896 45.0961C1.76816 44.9588 1.76816 44.9588 1.76734 44.8186C1.76723 44.7192 1.76713 44.6198 1.76702 44.5174C1.76656 44.4118 1.76609 44.3063 1.76561 44.1975C1.76424 43.8485 1.7636 43.4994 1.76309 43.1504C1.76255 42.9074 1.76201 42.6644 1.76147 42.4214C1.76061 41.9768 1.76002 41.5322 1.75973 41.0877C1.75931 40.4354 1.75767 39.7831 1.75495 39.1307C1.75267 38.564 1.75196 37.9974 1.75179 37.4307C1.75151 37.1905 1.75076 36.9502 1.74953 36.71C1.74792 36.3732 1.7481 36.0365 1.74871 35.6997C1.74785 35.6013 1.74698 35.5028 1.74609 35.4014C1.75238 34.283 2.04671 33.4855 2.83682 32.6954C3.63551 32.1872 4.37034 32.1003 5.30398 32.1065ZM3.48721 34.2189C3.29384 34.5445 3.27032 34.8505 3.26896 35.2242C3.26843 35.3129 3.26789 35.4016 3.26734 35.493C3.26723 35.5897 3.26713 35.6864 3.26702 35.786C3.26656 35.8883 3.26609 35.9906 3.26561 36.0961C3.26424 36.4348 3.2636 36.7735 3.26309 37.1123C3.26255 37.3477 3.26201 37.5831 3.26147 37.8185C3.26061 38.2492 3.26002 38.6798 3.25973 39.1104C3.25931 39.7432 3.25767 40.376 3.25495 41.0088C3.25268 41.5579 3.25196 42.1069 3.25179 42.6559C3.25151 42.889 3.25076 43.1221 3.24953 43.3553C3.24793 43.6815 3.2481 44.0078 3.24871 44.3341C3.24785 44.4302 3.24698 44.5263 3.24609 44.6253C3.24961 45.2274 3.30185 45.7127 3.69741 46.1947C4.13492 46.5376 4.48948 46.6048 5.0333 46.6075C5.11749 46.6081 5.20168 46.6087 5.28841 46.6093C5.37826 46.6094 5.46812 46.6095 5.56069 46.6096C5.70094 46.6101 5.70094 46.6101 5.84403 46.6105C6.0415 46.611 6.23897 46.6112 6.43644 46.6112C6.73743 46.6114 7.03839 46.6131 7.33938 46.6149C7.53164 46.6152 7.7239 46.6154 7.91616 46.6155C8.00563 46.6161 8.09511 46.6168 8.18729 46.6175C8.80962 46.6154 9.33335 46.6006 9.82705 46.1837C10.1275 45.8232 10.2429 45.5788 10.2441 45.1084C10.2447 45.0172 10.2454 44.926 10.2461 44.8321C10.2458 44.7326 10.2456 44.6331 10.2454 44.5307C10.2461 44.3728 10.2461 44.3728 10.2468 44.2118C10.2481 43.8635 10.248 43.5152 10.2478 43.1669C10.2482 42.9249 10.2486 42.683 10.249 42.441C10.2497 41.9337 10.2497 41.4263 10.2492 40.9189C10.2487 40.3331 10.2498 39.7473 10.2518 39.1616C10.2537 38.5973 10.2539 38.0331 10.2536 37.4688C10.2537 37.2291 10.2542 36.9894 10.2551 36.7496C10.2563 36.4143 10.2556 36.0791 10.2545 35.7438C10.2552 35.6447 10.256 35.5456 10.2567 35.4436C10.2531 34.9343 10.2313 34.5619 9.93838 34.1251C9.5489 33.7736 9.32377 33.6452 8.80505 33.6398C8.70552 33.6386 8.606 33.6374 8.50346 33.6361C8.39545 33.6354 8.28745 33.6347 8.17617 33.634C8.0654 33.6333 7.95464 33.6325 7.84051 33.6317C7.60566 33.6304 7.3708 33.6294 7.13595 33.6287C6.77709 33.6271 6.41831 33.623 6.05947 33.6188C5.83145 33.6179 5.60342 33.6171 5.37539 33.6164C5.26815 33.6148 5.1609 33.6132 5.05041 33.6115C4.34101 33.6134 3.97342 33.6823 3.48721 34.2189ZM21.6494 37.7471C20.7238 38.4102 19.6633 38.7454 18.5312 38.7487C18.4199 38.7502 18.4199 38.7502 18.3064 38.7516C18.0639 38.7545 17.8215 38.7561 17.579 38.7577C17.4098 38.7594 17.2406 38.7613 17.0715 38.7632C16.6282 38.768 16.185 38.7717 15.7417 38.7752C15.2886 38.779 14.8355 38.7837 14.3823 38.7884C13.4948 38.7975 12.6072 38.8053 11.7196 38.8126C11.7196 39.6479 11.7196 40.4832 11.7196 41.3439C12.0594 41.3452 12.0594 41.3452 12.406 41.3465C13.1585 41.3497 13.911 41.3549 14.6635 41.3611C15.1192 41.3648 15.575 41.3678 16.0307 41.3693C16.4715 41.3707 16.9121 41.3739 17.3528 41.3784C17.5201 41.3798 17.6873 41.3805 17.8546 41.3806C19.5989 41.3823 20.8634 41.8287 22.3075 42.8138C23.0449 43.2859 23.8319 43.4092 24.6897 43.2793C25.2645 43.14 25.701 42.8489 26.1738 42.5076C27.5086 41.5454 28.7792 41.3952 30.377 41.3896C30.5479 41.388 30.7187 41.3863 30.8896 41.3845C31.3361 41.3801 31.7826 41.3773 32.2291 41.3748C32.686 41.372 33.1429 41.3677 33.5998 41.3634C34.4939 41.3554 35.388 41.3492 36.2821 41.3439C36.2821 40.5085 36.2821 39.6732 36.2821 38.8126C36.059 38.8117 35.8358 38.8109 35.6059 38.8099C34.8638 38.8068 34.1218 38.8015 33.3798 38.7954C32.9305 38.7917 32.4812 38.7887 32.0318 38.7872C31.5971 38.7858 31.1625 38.7825 30.7279 38.7781C30.5631 38.7767 30.3983 38.7759 30.2335 38.7759C28.5601 38.7742 27.2402 38.4391 25.8642 37.4356C24.4419 36.4249 22.9828 36.7766 21.6494 37.7471Z" fill="#157442"/>
<path d="M28.7131 12.9815C28.8042 12.9812 28.8954 12.9808 28.9893 12.9805C29.1812 12.9802 29.3732 12.9809 29.5651 12.9825C29.8577 12.9845 30.1501 12.9825 30.4427 12.9801C30.6298 12.9803 30.817 12.9808 31.0041 12.9815C31.1344 12.9804 31.1344 12.9804 31.2672 12.9792C31.8301 12.9873 32.164 13.0765 32.6242 13.4064C33.0182 13.904 33.1062 14.2606 33.0988 14.8829C33.098 14.9752 33.0971 15.0676 33.0963 15.1627C33.0952 15.2328 33.0941 15.3029 33.093 15.3751C33.1541 15.3775 33.2153 15.3799 33.2783 15.3824C33.9695 15.4273 34.3833 15.5935 34.8508 16.1192C35.2013 16.5964 35.2727 16.9487 35.2743 17.5386C35.2747 17.6043 35.2751 17.67 35.2756 17.7377C35.2768 17.9574 35.2766 18.177 35.2765 18.3966C35.277 18.5544 35.2777 18.7121 35.2784 18.8698C35.28 19.2979 35.2805 19.726 35.2806 20.154C35.2807 20.4216 35.2811 20.6892 35.2816 20.9568C35.2833 21.8907 35.2841 22.8247 35.284 23.7586C35.2839 24.6285 35.2858 25.4984 35.2888 26.3683C35.2912 27.1157 35.2922 27.8631 35.2921 28.6104C35.2921 29.0566 35.2926 29.5027 35.2946 29.9488C35.2964 30.3686 35.2964 30.7884 35.2951 31.2081C35.2949 31.3619 35.2953 31.5156 35.2964 31.6693C35.3064 33.1132 35.3064 33.1132 34.8742 33.7501C34.6834 33.9431 34.6834 33.9431 34.4934 34.0724C34.4304 34.1167 34.3674 34.1611 34.3026 34.2068C33.9107 34.4393 33.5307 34.4214 33.0899 34.4229C33.0132 34.4236 32.9365 34.4242 32.8575 34.4248C32.6035 34.4267 32.3494 34.4278 32.0954 34.4287C31.9652 34.4293 31.9652 34.4293 31.8323 34.4298C31.3726 34.4318 30.9129 34.4331 30.4532 34.434C29.9789 34.4351 29.5048 34.4383 29.0305 34.442C28.6654 34.4445 28.3003 34.4452 27.9351 34.4456C27.7603 34.446 27.5856 34.4471 27.4108 34.4489C27.1657 34.4512 26.9208 34.4511 26.6758 34.4504C26.5682 34.4522 26.5682 34.4522 26.4585 34.4541C25.8697 34.4484 25.4832 34.267 25.0374 33.871C24.9731 33.7937 24.9731 33.7937 24.9074 33.7149C24.8633 33.6639 24.8192 33.6129 24.7738 33.5604C24.4884 33.1133 24.4443 32.6697 24.4429 32.1491C24.4425 32.0846 24.442 32.02 24.4416 31.9534C24.4404 31.7382 24.4406 31.523 24.4407 31.3077C24.4402 31.1529 24.4395 30.9981 24.4388 30.8433C24.4372 30.4235 24.4367 30.0038 24.4366 29.584C24.4365 29.3216 24.4361 29.0591 24.4356 28.7966C24.4338 27.8802 24.4331 26.9638 24.4332 26.0473C24.4333 25.1942 24.4314 24.3411 24.4284 23.488C24.4259 22.7546 24.4249 22.0212 24.4251 21.2879C24.4251 20.8503 24.4246 20.4127 24.4226 19.9751C24.4208 19.5633 24.4208 19.1516 24.4221 18.7398C24.4223 18.5891 24.4219 18.4384 24.4207 18.2878C24.4088 16.5979 24.4088 16.5979 25.0032 15.9506C25.5277 15.4543 26.0074 15.3667 26.718 15.3751C26.7136 15.288 26.7093 15.2008 26.7048 15.1111C26.6696 13.9057 26.6696 13.9057 27.093 13.4064C27.6358 13.0192 28.0561 12.9758 28.7131 12.9815ZM28.218 14.5314C28.218 14.8098 28.218 15.0882 28.218 15.3751C29.3317 15.3751 30.4455 15.3751 31.593 15.3751C31.593 15.0967 31.593 14.8182 31.593 14.5314C30.4792 14.5314 29.3655 14.5314 28.218 14.5314ZM25.968 17.2501C25.9118 17.5435 25.9118 17.5435 25.921 17.877C25.9205 17.9399 25.9199 18.0028 25.9194 18.0676C25.9181 18.2783 25.9195 18.4889 25.9209 18.6996C25.9206 18.8507 25.9201 19.0017 25.9194 19.1528C25.9181 19.5631 25.9191 19.9733 25.9207 20.3835C25.922 20.8126 25.9214 21.2416 25.921 21.6706C25.9208 22.391 25.9221 23.1114 25.9242 23.8319C25.9267 24.6653 25.9269 25.4987 25.9258 26.3321C25.9248 27.1333 25.9254 27.9345 25.9267 28.7357C25.9272 29.077 25.9272 29.4182 25.9268 29.7594C25.9263 30.161 25.9273 30.5626 25.9293 30.9642C25.9298 31.1118 25.9299 31.2594 25.9294 31.407C25.9288 31.6081 25.93 31.809 25.9316 32.0101C25.9319 32.1227 25.9321 32.2354 25.9323 32.3514C25.9462 32.6231 25.9462 32.6231 26.0917 32.8019C26.3523 32.9747 26.6372 32.9453 26.9393 32.9427C27.0093 32.9432 27.0793 32.9437 27.1515 32.9442C27.383 32.9455 27.6144 32.9447 27.8459 32.9437C28.0067 32.9439 28.1674 32.9442 28.3282 32.9445C28.6652 32.9449 29.0022 32.9443 29.3392 32.943C29.7714 32.9414 30.2036 32.9423 30.6358 32.944C30.9678 32.945 31.2998 32.9447 31.6318 32.944C31.7912 32.9438 31.9506 32.944 32.1099 32.9447C32.3326 32.9454 32.5552 32.9443 32.7778 32.9427C32.8439 32.9433 32.9099 32.9439 32.978 32.9445C33.3203 32.9411 33.3203 32.9411 33.6255 32.8022C33.8098 32.5384 33.7846 32.3256 33.7849 32.0059C33.7854 31.9427 33.7858 31.8795 33.7863 31.8144C33.7874 31.6021 33.7865 31.3899 33.7856 31.1777C33.786 31.0257 33.7865 30.8737 33.7871 30.7217C33.7884 30.3085 33.7879 29.8954 33.787 29.4823C33.7863 29.0503 33.7869 28.6184 33.7874 28.1865C33.7879 27.4611 33.7872 26.7358 33.7859 26.0104C33.7844 25.1711 33.7849 24.3319 33.7864 23.4927C33.7877 22.7728 33.7879 22.0529 33.7871 21.333C33.7867 20.9027 33.7866 20.4725 33.7876 20.0422C33.7884 19.6378 33.7878 19.2334 33.7862 18.8289C33.7858 18.6803 33.7859 18.5316 33.7865 18.383C33.7873 18.1805 33.7863 17.978 33.7849 17.7755C33.7848 17.6621 33.7847 17.5486 33.7846 17.4318C33.7712 17.1585 33.7712 17.1585 33.6252 16.9793C33.3671 16.8083 33.0872 16.8353 32.7879 16.8372C32.719 16.8366 32.6501 16.8359 32.5791 16.8353C32.351 16.8336 32.1231 16.8339 31.8951 16.8345C31.7366 16.834 31.5782 16.8335 31.4198 16.833C31.0876 16.8321 30.7554 16.8324 30.4232 16.8333C29.9975 16.8344 29.5719 16.8325 29.1462 16.8297C28.8189 16.828 28.4917 16.828 28.1644 16.8286C28.0074 16.8286 27.8505 16.828 27.6935 16.8269C27.474 16.8255 27.2546 16.8265 27.0351 16.8281C26.9703 16.8272 26.9055 16.8263 26.8387 16.8253C26.4067 16.832 26.2291 16.9081 25.968 17.2501Z" fill="#157442"/>
<path d="M16.4381 13.0146C16.5205 13.0134 16.6028 13.0122 16.6876 13.011C16.7764 13.0103 16.8652 13.0096 16.9566 13.0089C17.0483 13.0081 17.14 13.0074 17.2344 13.0066C17.4286 13.0053 17.6228 13.0043 17.817 13.0035C18.1129 13.0019 18.4087 12.9978 18.7045 12.9937C18.8934 12.9927 19.0822 12.9919 19.2711 12.9913C19.3591 12.9897 19.4471 12.988 19.5378 12.9863C20.1069 12.9882 20.4392 13.0725 20.9044 13.4062C21.4034 13.9948 21.3164 14.6335 21.2794 15.375C21.3788 15.3719 21.4783 15.3689 21.5808 15.3658C22.118 15.3797 22.5452 15.5442 22.9515 15.9012C23.521 16.5277 23.5573 17.1562 23.5566 17.9718C23.5572 18.0717 23.5579 18.1716 23.5585 18.2746C23.5603 18.6041 23.5607 18.9335 23.5609 19.263C23.5615 19.4923 23.5621 19.7216 23.5628 19.9509C23.5639 20.431 23.5642 20.9112 23.5641 21.3914C23.5641 22.007 23.5667 22.6225 23.5699 23.2381C23.572 23.7114 23.5723 24.1847 23.5722 24.658C23.5725 24.885 23.5733 25.112 23.5747 25.339C23.5766 25.6561 23.576 25.9732 23.5749 26.2903C23.576 26.3841 23.577 26.478 23.5781 26.5747C23.5744 26.9854 23.5685 27.2171 23.3507 27.5738C23.1388 27.764 23.0596 27.812 22.7794 27.8027C22.7175 27.8028 22.6556 27.8029 22.5919 27.8031C22.3018 27.7209 22.2091 27.621 22.0294 27.375C21.9724 27.053 21.9794 26.7336 21.9827 26.4074C21.9821 26.3091 21.9816 26.2107 21.9811 26.1094C21.9802 25.8958 21.9802 25.6823 21.981 25.4688C21.9821 25.1312 21.9811 24.7936 21.9794 24.456C21.9769 23.8613 21.9764 23.2667 21.9766 22.672C21.9768 21.7198 21.9754 20.7676 21.9713 19.8154C21.9704 19.4822 21.9712 19.1491 21.9722 18.8159C21.9716 18.6124 21.9709 18.4089 21.9702 18.2054C21.9709 18.1123 21.9716 18.0192 21.9724 17.9233C21.9718 17.8383 21.9711 17.7533 21.9705 17.6657C21.9705 17.5917 21.9706 17.5178 21.9706 17.4417C21.9261 17.1979 21.8517 17.1152 21.6544 16.9687C21.4189 16.9415 21.2068 16.9312 20.9714 16.9338C20.9021 16.9335 20.8329 16.9331 20.7616 16.9328C20.5327 16.932 20.3038 16.9333 20.0749 16.9347C19.916 16.9347 19.7571 16.9347 19.5982 16.9345C19.2652 16.9345 18.9323 16.9355 18.5993 16.9372C18.1719 16.9393 17.7446 16.9394 17.3171 16.9387C16.9891 16.9384 16.6611 16.9391 16.333 16.94C16.1754 16.9403 16.0177 16.9404 15.8601 16.9403C15.6401 16.9403 15.4202 16.9414 15.2002 16.943C15.1347 16.9427 15.0692 16.9425 15.0017 16.9423C14.6302 16.9371 14.6302 16.9371 14.3419 17.1562C14.3137 17.437 14.3137 17.437 14.3193 17.7731C14.3191 17.8693 14.3191 17.8693 14.3188 17.9674C14.3185 18.1831 14.3196 18.3989 14.3206 18.6147C14.3206 18.769 14.3206 18.9232 14.3205 19.0775C14.3204 19.4972 14.3215 19.917 14.3229 20.3367C14.324 20.775 14.3241 21.2133 14.3244 21.6516C14.3249 22.482 14.3265 23.3124 14.3284 24.1427C14.3305 25.0879 14.3315 26.0331 14.3324 26.9783C14.3344 28.923 14.3377 30.8678 14.3419 32.8125C15.3043 32.8168 16.2667 32.8201 17.2291 32.8222C17.676 32.8232 18.1228 32.8245 18.5697 32.8266C19.0007 32.8286 19.4316 32.8298 19.8626 32.8303C20.0273 32.8306 20.192 32.8313 20.3567 32.8323C20.5868 32.8336 20.8169 32.8338 21.047 32.8338C21.1498 32.8348 21.1498 32.8348 21.2548 32.8358C21.6375 32.8458 21.6375 32.8458 21.9356 32.625C21.9659 32.358 21.9659 32.358 21.9645 32.0456C21.9669 31.9295 21.9693 31.8133 21.9717 31.6937C21.975 31.4481 21.9779 31.2025 21.9805 30.9569C21.983 30.8405 21.9854 30.7241 21.988 30.6042C21.9892 30.4974 21.9905 30.3906 21.9918 30.2805C22.0331 29.9717 22.09 29.8419 22.3106 29.625C22.6831 29.5215 22.8816 29.4923 23.2364 29.6543C23.4356 29.8125 23.4356 29.8125 23.5294 30C23.5515 30.3912 23.5508 30.7827 23.5519 31.1745C23.5528 31.3684 23.5557 31.5621 23.5587 31.7559C23.5643 33.1898 23.5643 33.1898 23.0698 33.7727C23.0068 33.8232 22.9438 33.8737 22.879 33.9257C22.8163 33.9777 22.7535 34.0297 22.6889 34.0832C22.2483 34.3961 21.8966 34.4341 21.3609 34.4335C21.2844 34.4341 21.2078 34.4347 21.1289 34.4354C20.8758 34.4371 20.6228 34.4375 20.3697 34.4377C20.1934 34.4383 20.017 34.4389 19.8407 34.4396C19.4709 34.4407 19.1012 34.4411 18.7314 34.441C18.2588 34.4409 17.7862 34.4435 17.3135 34.4467C16.9492 34.4488 16.5848 34.4492 16.2205 34.4491C16.0463 34.4493 15.8721 34.4501 15.698 34.4516C15.4536 34.4534 15.2094 34.4529 14.9651 34.4518C14.8938 34.4528 14.8226 34.4539 14.7492 34.455C14.1484 34.448 13.6435 34.2676 13.2114 33.8404C13.1687 33.7777 13.1261 33.715 13.0821 33.6504C13.0156 33.5559 13.0156 33.5559 12.9477 33.4596C12.7296 33.092 12.7357 32.7777 12.7343 32.359C12.734 32.2935 12.7336 32.2279 12.7333 32.1604C12.7322 31.9401 12.7319 31.7199 12.7315 31.4997C12.7309 31.342 12.7303 31.1843 12.7297 31.0266C12.7277 30.5083 12.7267 29.9899 12.7258 29.4715C12.7254 29.293 12.725 29.1145 12.7246 28.9361C12.7228 28.0974 12.7215 27.2588 12.7207 26.4201C12.7198 25.4523 12.7173 24.4846 12.7135 23.5168C12.7107 22.7686 12.7093 22.0204 12.709 21.2723C12.7088 20.8255 12.708 20.3787 12.7056 19.932C12.7034 19.5114 12.703 19.0909 12.704 18.6704C12.704 18.5163 12.7034 18.3623 12.7022 18.2083C12.6898 16.6375 12.6898 16.6375 13.2835 15.9353C13.8016 15.5145 14.224 15.3426 14.9044 15.375C14.8995 15.2764 14.8995 15.2764 14.8945 15.1758C14.8764 14.5425 14.871 13.9384 15.3196 13.4469C15.6789 13.1332 15.9705 13.0206 16.4381 13.0146ZM16.4044 14.5312C16.4044 14.8097 16.4044 15.0881 16.4044 15.375C17.5181 15.375 18.6319 15.375 19.7794 15.375C19.7794 15.0965 19.7794 14.8181 19.7794 14.5312C18.6656 14.5312 17.5519 14.5312 16.4044 14.5312Z" fill="#157442"/>
<path d="M30.9375 21.6563C31.1825 21.7986 31.2117 21.9192 31.3125 22.1836C31.3125 22.9141 30.7174 23.5438 30.2812 24.0938C30.3848 24.0958 30.3848 24.0958 30.4904 24.0978C31.2348 24.1342 31.2348 24.1342 31.6113 24.3926C31.8206 24.7173 31.83 24.8371 31.7812 25.2188C31.6503 25.4902 31.4837 25.733 31.3125 25.9805C31.2422 26.085 31.2422 26.085 31.1705 26.1917C31.0757 26.3326 30.9804 26.4733 30.8847 26.6136C30.764 26.7919 30.6466 26.9718 30.531 27.1535C30.4679 27.2517 30.4048 27.35 30.3398 27.4512C30.285 27.5369 30.2301 27.6226 30.1736 27.7109C29.9813 27.962 29.7939 28.1364 29.5312 28.3125C29.177 28.3125 28.9681 28.2969 28.6934 28.0664C28.5511 27.7484 28.5595 27.5354 28.5938 27.1875C28.722 26.9186 28.8878 26.684 29.0625 26.4434C29.1072 26.3793 29.1519 26.3152 29.198 26.2491C29.3077 26.0922 29.4193 25.9366 29.5312 25.7813C29.4465 25.771 29.3618 25.7607 29.2745 25.7502C29.164 25.7353 29.0534 25.7204 28.9395 25.7051C28.8296 25.691 28.7197 25.6768 28.6066 25.6623C28.31 25.5932 28.2071 25.5535 28.0312 25.3125C27.9434 25.1075 27.9434 25.1075 27.9375 24.8438C28.197 24.2561 28.5342 23.7586 28.916 23.2442C29.0214 23.1005 29.1267 22.9568 29.2321 22.8132C29.2826 22.7449 29.3331 22.6766 29.3851 22.6062C29.5237 22.4166 29.6582 22.2245 29.7924 22.0317C30.1124 21.5976 30.4211 21.5991 30.9375 21.6563Z" fill="#157442"/>
<path d="M18.7574 21.6175C18.9394 21.6564 18.9394 21.6564 19.1738 21.8556C19.3446 22.1831 19.3624 22.3208 19.3144 22.6876C19.1678 22.9681 18.9861 23.2182 18.7988 23.4728C18.7496 23.5418 18.7004 23.6108 18.6497 23.6819C18.5287 23.8513 18.4065 24.0198 18.2831 24.1876C18.36 24.1833 18.4369 24.1789 18.5161 24.1744C18.6676 24.1694 18.6676 24.1694 18.8222 24.1642C18.9723 24.1576 18.9723 24.1576 19.1254 24.151C19.4081 24.1876 19.4081 24.1876 19.6323 24.3356C19.8477 24.6597 19.8395 24.8342 19.7831 25.2189C19.658 25.5049 19.4965 25.7605 19.3261 26.0216C19.2796 26.0946 19.2331 26.1676 19.1852 26.2428C19.0424 26.4651 18.8972 26.6857 18.7519 26.9064C18.7089 26.9738 18.6659 27.0412 18.6216 27.1107C18.5032 27.2962 18.3821 27.4794 18.2597 27.6622C18.2246 27.7175 18.1894 27.7727 18.1532 27.8296C17.9446 28.1297 17.8317 28.2145 17.472 28.3046C17.1612 28.3125 17.0258 28.3139 16.7831 28.1251C16.5969 27.8856 16.5952 27.7575 16.6118 27.452C16.7041 27.0259 16.8725 26.7506 17.1171 26.3966C17.1569 26.337 17.1968 26.2773 17.2378 26.2159C17.3352 26.0703 17.434 25.9257 17.5331 25.7814C17.4061 25.7676 17.4061 25.7676 17.2764 25.7535C17.1658 25.7395 17.0553 25.7255 16.9413 25.7111C16.8315 25.698 16.7216 25.6849 16.6085 25.6715C16.3144 25.5939 16.3144 25.5939 16.1346 25.4401C15.9857 25.1155 15.983 24.9179 16.0331 24.5626C16.176 24.2822 16.3582 24.0389 16.5488 23.7892C16.5999 23.7197 16.651 23.6503 16.7036 23.5787C16.8063 23.4395 16.9095 23.3007 17.0134 23.1623C17.1411 22.9916 17.2663 22.8195 17.39 22.6459C18.1413 21.5926 18.1413 21.5926 18.7574 21.6175Z" fill="#157442"/>
</g>
<defs>
<clipPath id="clip0_2632_2196">
<rect width="48" height="48" fill="white"/>
</clipPath>
</defs>
</svg>
