<svg width="21" height="21" viewBox="0 0 21 21" fill="none" xmlns="http://www.w3.org/2000/svg">
<g clip-path="url(#clip0_3151_238)">
<path fill-rule="evenodd" clip-rule="evenodd" d="M14.7886 11.0775L11.0768 14.7919C10.8202 15.0478 10.4048 15.0478 10.1489 14.7919C9.89231 14.536 9.89231 14.1159 10.1489 13.86L12.8533 11.1562H5.90625C5.54334 11.1562 5.25 10.8609 5.25 10.5C5.25 10.1391 5.54334 9.84375 5.90625 9.84375H12.8533L10.1489 7.14C9.89231 6.88407 9.89231 6.4706 10.1489 6.2081C10.4048 5.95216 10.8202 5.95216 11.0768 6.2081L14.7886 9.9225C14.9461 10.08 14.9953 10.2966 14.9592 10.5C14.9953 10.7034 14.9461 10.92 14.7886 11.0775ZM10.5 0C4.70072 0 0 4.69875 0 10.5C0 16.3013 4.70072 21 10.5 21C16.2993 21 21 16.3013 21 10.5C21 4.69875 16.2993 0 10.5 0Z" fill="#F9F9F9"/>
</g>
<defs>
<clipPath id="clip0_3151_238">
<rect width="21" height="21" fill="white"/>
</clipPath>
</defs>
</svg>
