<svg width="32" height="32" viewBox="0 0 32 32" fill="none" xmlns="http://www.w3.org/2000/svg">
<circle cx="16" cy="16" r="15.5" stroke="#8F8E8E"/>
<path d="M12.68 7.99992C10.0988 7.99992 8 10.0987 8 12.6799V19.1599C8 21.7411 10.0988 23.8399 12.68 23.8399H19.16C21.7412 23.8399 23.84 21.7411 23.84 19.1599V12.6799C23.84 10.0987 21.7412 7.99992 19.16 7.99992H12.68ZM20.24 10.8799C20.636 10.8799 20.96 11.2039 20.96 11.5999C20.96 11.9959 20.636 12.3199 20.24 12.3199C19.844 12.3199 19.52 11.9959 19.52 11.5999C19.52 11.2039 19.844 10.8799 20.24 10.8799ZM15.92 11.9599C18.1052 11.9599 19.88 13.7347 19.88 15.9199C19.88 18.1051 18.1052 19.8799 15.92 19.8799C13.7348 19.8799 11.96 18.1051 11.96 15.9199C11.96 13.7347 13.7348 11.9599 15.92 11.9599ZM15.92 12.6799C14.1344 12.6799 12.68 14.1343 12.68 15.9199C12.68 17.7055 14.1344 19.1599 15.92 19.1599C17.7056 19.1599 19.16 17.7055 19.16 15.9199C19.16 14.1343 17.7056 12.6799 15.92 12.6799Z" fill="white"/>
</svg>
