<svg width="32" height="32" viewBox="0 0 32 32" fill="none" xmlns="http://www.w3.org/2000/svg">
<path d="M24.0013 20H21.3346V22.6667H24.0013M24.0013 14.6667H21.3346V17.3333H24.0013M26.668 25.3333H16.0013V22.6667H18.668V20H16.0013V17.3333H18.668V14.6667H16.0013V12H26.668M13.3346 9.33333H10.668V6.66667H13.3346M13.3346 14.6667H10.668V12H13.3346M13.3346 20H10.668V17.3333H13.3346M13.3346 25.3333H10.668V22.6667H13.3346M8.0013 9.33333H5.33464V6.66667H8.0013M8.0013 14.6667H5.33464V12H8.0013M8.0013 20H5.33464V17.3333H8.0013M8.0013 25.3333H5.33464V22.6667H8.0013M16.0013 9.33333V4H2.66797V28H29.3346V9.33333H16.0013Z" fill="#F9F9F9"/>
</svg>
