<svg width="32" height="32" viewBox="0 0 32 32" fill="none" xmlns="http://www.w3.org/2000/svg">
<path d="M26.6667 20.6667C25.0667 20.6667 23.3333 20.4 21.8667 19.8667H21.4667C21.0667 19.8667 20.8 20 20.5333 20.2667L17.6 23.2C13.8667 21.2 10.6667 18.1333 8.8 14.4L11.7333 11.4667C12.1333 11.0667 12.2667 10.5333 12 10.1333C11.6 8.66667 11.3333 6.93333 11.3333 5.33333C11.3333 4.66667 10.6667 4 10 4H5.33333C4.66667 4 4 4.66667 4 5.33333C4 17.8667 14.1333 28 26.6667 28C27.3333 28 28 27.3333 28 26.6667V22C28 21.3333 27.3333 20.6667 26.6667 20.6667ZM6.66667 6.66667H8.66667C8.8 7.86667 9.06667 9.06667 9.33333 10.1333L7.73333 11.7333C7.2 10.1333 6.8 8.4 6.66667 6.66667ZM25.3333 25.3333C23.6 25.2 21.8667 24.8 20.2667 24.2667L21.8667 22.6667C22.9333 22.9333 24.1333 23.2 25.3333 23.2V25.3333Z" fill="#F9F9F9"/>
</svg>
