<svg width="48" height="48" viewBox="0 0 48 48" fill="none" xmlns="http://www.w3.org/2000/svg">
<path d="M27.9383 1.40613C28.2862 1.5738 28.4708 1.78895 28.5997 2.15742C28.7173 2.61073 28.7805 3.07294 28.8473 3.53592C28.8693 3.68446 28.8693 3.68446 28.8917 3.83599C28.9399 4.1622 28.9874 4.4885 29.0348 4.81482C29.0681 5.04262 29.1015 5.27042 29.1349 5.49822C29.2047 5.97542 29.2741 6.45268 29.3434 6.92996C29.4319 7.53983 29.5215 8.14952 29.6113 8.75918C29.6805 9.22962 29.749 9.70015 29.8174 10.1707C29.8501 10.3955 29.8831 10.6202 29.9163 10.8448C29.9628 11.1599 30.0083 11.4751 30.0536 11.7903C30.0674 11.882 30.0811 11.9737 30.0952 12.0682C30.2305 13.0238 30.3405 13.8101 29.7548 14.619C29.6009 14.8372 29.4722 15.0448 29.3446 15.2811C29.3821 15.4915 29.3821 15.4915 29.5321 15.6561C29.5777 15.7269 29.6232 15.7978 29.6702 15.8707C29.7439 15.9791 29.7439 15.9791 29.8192 16.0897C30.0855 16.4817 30.0855 16.4817 30.1883 16.6874C30.253 16.6853 30.3176 16.6832 30.3842 16.6811C32.6106 16.6309 32.6106 16.6309 33.4612 17.4301C33.5295 17.4996 33.5295 17.4996 33.5993 17.5705C33.8942 17.8587 34.2216 18.1098 34.5419 18.369C34.6784 18.4819 34.8149 18.595 34.9513 18.7081C35.299 18.995 35.6512 19.2755 36.0067 19.5526C36.797 20.1689 37.5721 20.8036 38.3484 21.4373C38.5385 21.5924 38.7286 21.7473 38.9188 21.9022C38.9806 21.9526 39.0424 22.0029 39.1061 22.0548C39.5206 22.3914 39.9392 22.7222 40.3602 23.0507C41.6867 24.0886 41.6867 24.0886 41.8133 24.4686C41.8509 24.8672 41.8381 25.0781 41.6493 25.4354C41.3499 25.793 41.3499 25.793 41.0633 25.8749C40.5623 25.9071 40.1846 25.8213 39.7292 25.6266C39.6644 25.6 39.5996 25.5734 39.5329 25.546C39.318 25.4574 39.1038 25.3673 38.8895 25.2772C38.7365 25.2139 38.5835 25.1507 38.4304 25.0876C38.1035 24.9527 37.7769 24.8172 37.4504 24.6812C36.6715 24.3573 35.8901 24.0393 35.1091 23.7205C34.8471 23.6134 34.5853 23.5059 34.3235 23.3984C33.517 23.0671 32.7096 22.7387 31.8982 22.4197C31.6903 22.3374 31.4825 22.255 31.2747 22.1727C31.0846 22.0978 30.8939 22.0244 30.7031 21.9511C30.5903 21.9063 30.4775 21.8615 30.3612 21.8154C30.2637 21.7776 30.1663 21.7397 30.0658 21.7007C29.7173 21.5098 29.521 21.259 29.3446 20.9061C29.3474 20.9617 29.3501 21.0172 29.353 21.0744C29.3815 21.6523 29.4087 22.2302 29.435 22.8081C29.445 23.0239 29.4554 23.2396 29.4661 23.4552C29.4815 23.7652 29.4956 24.0751 29.5094 24.3851C29.5145 24.4816 29.5195 24.5781 29.5248 24.6775C29.5285 24.7676 29.5323 24.8577 29.5362 24.9505C29.5399 25.0296 29.5437 25.1087 29.5475 25.1902C29.5299 25.4362 29.4842 25.5779 29.3446 25.7811C29.0282 25.8749 29.0282 25.8749 28.6883 25.8749C28.4857 25.7514 28.4857 25.7514 28.3133 25.4999C28.2432 25.1603 28.2302 24.8207 28.2152 24.4749C28.2095 24.3745 28.2038 24.2742 28.1979 24.1709C28.18 23.8503 28.1647 23.5296 28.1493 23.2089C28.1376 22.9932 28.1258 22.7776 28.1138 22.562C28.0321 21.0623 28.0321 21.0623 28.0321 20.4374C27.6918 20.4374 27.3515 20.4374 27.0008 20.4374C26.997 20.5781 26.9932 20.7189 26.9892 20.8638C26.9222 23.1124 26.7957 25.3578 26.6735 27.604C26.6423 28.1779 26.6115 28.7519 26.5806 29.3259C26.5287 30.2876 26.4767 31.2493 26.4245 32.2109C26.3578 33.4415 26.2913 34.672 26.225 35.9025C26.1676 36.9674 26.11 38.0323 26.0525 39.0972C26.0402 39.3242 26.0279 39.5512 26.0157 39.7782C25.9808 40.4248 25.9458 41.0714 25.9107 41.718C25.9001 41.9128 25.8896 42.1077 25.8791 42.3025C25.8646 42.5706 25.85 42.8386 25.8354 43.1066C25.8294 43.2193 25.8294 43.2193 25.8232 43.3343C25.7826 44.0773 25.7348 44.8196 25.6883 45.5624C26.9258 45.5624 28.1633 45.5624 29.4383 45.5624C29.4074 45.5005 29.3765 45.4386 29.3446 45.3749C29.3241 45.1477 29.3088 44.9224 29.2971 44.6948C29.2931 44.6239 29.2892 44.5529 29.2851 44.4799C29.2718 44.2411 29.2591 44.0022 29.2464 43.7633C29.237 43.5925 29.2276 43.4218 29.2182 43.251C29.1926 42.7862 29.1676 42.3213 29.1427 41.8563C29.1219 41.4684 29.1008 41.0806 29.0797 40.6927C29.0301 39.7774 28.9808 38.862 28.9318 37.9467C28.8813 37.0024 28.83 36.0581 28.7783 35.1138C28.734 34.3035 28.6901 33.4931 28.6467 32.6828C28.6207 32.1986 28.5946 31.7145 28.5679 31.2304C28.5429 30.7748 28.5185 30.3192 28.4945 29.8636C28.4856 29.6965 28.4765 29.5294 28.4672 29.3623C28.4545 29.1339 28.4425 28.9055 28.4308 28.677C28.4269 28.6112 28.4231 28.5454 28.4191 28.4776C28.3681 27.4328 28.3681 27.4328 28.6649 27.0936C28.9384 26.9721 29.065 26.9933 29.3446 27.0936C29.6109 27.3108 29.6244 27.3653 29.6781 27.7286C29.6877 27.881 29.6957 28.0335 29.7027 28.186C29.7076 28.2703 29.7125 28.3546 29.7175 28.4414C29.7338 28.7263 29.7481 29.0111 29.7624 29.296C29.7737 29.5006 29.7851 29.7052 29.7966 29.9098C29.8215 30.3566 29.8455 30.8033 29.869 31.2502C29.9046 31.9252 29.942 32.6001 29.98 33.275C30.0543 34.5973 30.1265 35.9197 30.1978 37.2422C30.2014 37.3091 30.205 37.376 30.2087 37.445C30.2123 37.512 30.2159 37.579 30.2196 37.6481C30.2494 38.2 30.2796 38.7518 30.3098 39.3037C30.3396 39.8464 30.369 40.3891 30.3982 40.9318C30.4154 41.2515 30.4328 41.5711 30.4504 41.8908C30.5886 44.4062 30.5886 44.4062 30.5633 45.5624C30.6538 45.5601 30.6538 45.5601 30.7461 45.5577C30.9899 45.5518 31.2336 45.5483 31.4774 45.5448C31.6068 45.5413 31.6068 45.5413 31.7389 45.5377C31.8223 45.5368 31.9057 45.5359 31.9916 45.5349C32.0682 45.5334 32.1447 45.532 32.2237 45.5305C32.4936 45.5706 32.6197 45.6532 32.8133 45.8436C32.8835 46.4051 32.8835 46.4051 32.6957 46.6588C32.4901 46.8125 32.3787 46.8165 32.1235 46.8168C32.0401 46.8176 31.9566 46.8184 31.8706 46.8193C31.7336 46.8184 31.7336 46.8184 31.5939 46.8175C31.4975 46.818 31.4012 46.8185 31.3019 46.819C30.9826 46.8203 30.6633 46.8194 30.344 46.8185C30.1225 46.8187 29.901 46.819 29.6795 46.8193C29.2149 46.8197 28.7503 46.8191 28.2857 46.8178C27.6898 46.8162 27.0938 46.8171 26.4979 46.8188C26.0404 46.8198 25.5828 46.8195 25.1253 46.8188C24.9055 46.8186 24.6858 46.8188 24.466 46.8195C24.159 46.8202 23.852 46.8191 23.5449 46.8175C23.4538 46.8181 23.3627 46.8187 23.2688 46.8193C23.1851 46.8185 23.1013 46.8177 23.0151 46.8168C22.9425 46.8167 22.8699 46.8166 22.7952 46.8165C22.5379 46.7711 22.4081 46.6785 22.2196 46.4999C22.1647 46.1771 22.1726 46.0109 22.35 45.7334C22.7311 45.467 23.1034 45.5226 23.5555 45.5389C23.7138 45.5432 23.8721 45.5473 24.0305 45.5513C24.1127 45.5534 24.195 45.5555 24.2797 45.5576C24.3424 45.5592 24.405 45.5608 24.4696 45.5624C24.4711 45.5051 24.4726 45.4478 24.4742 45.3887C24.5385 43.0567 24.6716 40.7285 24.8 38.3993C24.8315 37.8265 24.8627 37.2537 24.8939 36.6809C24.9795 35.1078 25.0658 33.5348 25.152 31.9618C25.2314 30.5135 25.3107 29.0652 25.3895 27.6168C25.4265 26.9374 25.4637 26.2581 25.5012 25.5787C25.5244 25.1566 25.5474 24.7346 25.5704 24.3125C25.581 24.1176 25.5917 23.9227 25.6026 23.7278C25.6812 22.3648 25.6812 22.3648 25.6883 20.9999C25.6255 21.086 25.5626 21.1722 25.4978 21.2609C25.2243 21.5873 24.9115 21.7366 24.519 21.8861C24.4498 21.914 24.3805 21.9419 24.3091 21.9707C24.08 22.0626 23.85 22.1523 23.62 22.2421C23.4575 22.3069 23.295 22.3718 23.1327 22.437C22.7883 22.5749 22.4437 22.7121 22.0989 22.8488C21.2948 23.1685 20.4948 23.4983 19.6945 23.8271C19.2616 24.0048 18.8284 24.1818 18.3953 24.3588C18.2311 24.4258 18.067 24.4929 17.9029 24.56C17.8248 24.5919 17.7468 24.6238 17.6663 24.6567C17.4493 24.7454 17.2322 24.8342 17.0151 24.9229C16.6543 25.0704 16.2934 25.2178 15.9325 25.3651C15.83 25.407 15.7275 25.4489 15.6218 25.4921C15.5299 25.5296 15.438 25.5671 15.3433 25.6057C15.2649 25.6377 15.1866 25.6697 15.1059 25.7026C14.7041 25.8613 14.4032 25.9116 13.9696 25.8749C13.6482 25.7112 13.4596 25.5907 13.2782 25.2772C13.1784 24.858 13.1516 24.5908 13.3661 24.2057C13.6169 23.8461 13.9428 23.5939 14.286 23.3261C14.3858 23.2466 14.3858 23.2466 14.4876 23.1654C14.6893 23.0052 14.8918 22.8461 15.0946 22.6874C15.1515 22.6427 15.2085 22.5981 15.2671 22.5521C15.4794 22.3856 15.6917 22.2192 15.9044 22.0532C16.3437 21.7093 16.7743 21.3557 17.204 20.9999C17.7376 20.558 18.2758 20.1238 18.8223 19.698C19.2403 19.3716 19.6525 19.0384 20.0633 18.703C20.7442 18.1475 21.4315 17.6009 22.1258 17.0624C22.1816 17.0122 22.2373 16.962 22.2947 16.9103C22.5669 16.7398 22.7511 16.749 23.0707 16.7537C23.1794 16.7546 23.2882 16.7555 23.4003 16.7564C23.5134 16.7588 23.6265 16.7611 23.743 16.7636C23.8576 16.7648 23.9722 16.7661 24.0902 16.7674C24.373 16.7707 24.6556 16.7753 24.9383 16.7811C24.9516 16.7076 24.9649 16.6341 24.9787 16.5584C25.034 16.3035 25.1063 16.1678 25.2606 15.9608C25.3011 15.9052 25.3416 15.8496 25.3833 15.7924C25.5008 15.6561 25.5008 15.6561 25.6883 15.5624C25.6248 15.0174 25.3112 14.6482 25.0054 14.2074C24.6742 13.5224 24.8705 12.7318 24.9793 12.0021C24.9936 11.9027 25.008 11.8034 25.0227 11.701C25.0699 11.3748 25.118 11.0487 25.1661 10.7225C25.1994 10.4946 25.2325 10.2666 25.2657 10.0386C25.3351 9.56162 25.405 9.08471 25.4752 8.60785C25.5649 7.99798 25.6538 7.38799 25.7425 6.77796C25.8109 6.30742 25.8797 5.83693 25.9485 5.36646C25.9814 5.14161 26.0142 4.91675 26.047 4.69188C26.0929 4.3771 26.1392 4.06239 26.1856 3.74768C26.199 3.65561 26.2123 3.56354 26.2261 3.46868C26.4478 1.97557 26.4478 1.97557 26.7723 1.58777C27.1807 1.35758 27.4801 1.30529 27.9383 1.40613ZM27.4696 3.28113C27.2858 4.53036 27.1024 5.77966 26.9195 7.02904C26.8346 7.60918 26.7496 8.18929 26.6642 8.76935C26.5817 9.32914 26.4997 9.88899 26.418 10.4489C26.3867 10.6625 26.3553 10.8761 26.3238 11.0896C26.2796 11.3887 26.236 11.6879 26.1924 11.9871C26.1793 12.0754 26.1661 12.1636 26.1526 12.2546C26.0422 13.02 26.0152 13.5071 26.4325 14.1854C26.4675 14.2447 26.5025 14.304 26.5385 14.3651C26.7007 14.6519 26.7007 14.6519 26.9071 14.9061C27.3239 14.9693 27.7107 14.9846 28.1258 14.9061C28.4011 14.6649 28.5346 14.3904 28.6883 14.0624C28.7464 13.985 28.8044 13.9077 28.8641 13.828C29.1325 13.2316 28.9451 12.4618 28.8506 11.8354C28.838 11.7482 28.8253 11.6611 28.8123 11.5713C28.7707 11.2858 28.7282 11.0005 28.6858 10.7152C28.6565 10.5158 28.6273 10.3163 28.5982 10.1169C28.5371 9.7001 28.4757 9.28341 28.414 8.86676C28.3349 8.33292 28.2564 7.79899 28.1782 7.26503C28.1034 6.7549 28.0284 6.24482 27.9534 5.73474C27.9391 5.63761 27.9248 5.54049 27.9101 5.44041C27.8696 5.16555 27.8289 4.89071 27.7882 4.61588C27.7703 4.49416 27.7703 4.49416 27.7521 4.36998C27.6978 4.00486 27.6408 3.64223 27.5633 3.28113C27.5324 3.28113 27.5015 3.28113 27.4696 3.28113ZM26.4541 16.4482C26.0786 16.8402 25.889 17.2676 25.8758 17.8124C25.9682 18.3371 26.208 18.6988 26.6258 19.0311C27.0741 19.2898 27.4163 19.3575 27.9186 19.2787C28.3634 19.1498 28.6657 18.8896 28.9579 18.5389C29.1615 18.0412 29.2045 17.6121 29.0633 17.0917C28.7674 16.6015 28.4087 16.253 27.8563 16.0721C27.3337 15.9749 26.8678 16.121 26.4541 16.4482ZM21.8796 18.806C21.6999 18.9894 21.5027 19.144 21.2997 19.3007C20.8925 19.6234 20.4894 19.9508 20.0868 20.2792C19.5611 20.7074 19.0312 21.1296 18.4968 21.5469C18.0137 21.9251 17.5382 22.3122 17.063 22.7001C16.4445 23.204 15.8175 23.6968 15.1883 24.1874C15.3853 24.3135 15.3853 24.3135 15.6471 24.191C15.7655 24.1432 15.8835 24.0945 16.0013 24.0453C16.0664 24.0188 16.1314 23.9923 16.1984 23.9649C16.4167 23.8757 16.6345 23.7855 16.8524 23.6952C17.0059 23.6322 17.1594 23.5693 17.313 23.5064C17.7335 23.334 18.1536 23.1606 18.5735 22.9869C18.8519 22.8719 19.1302 22.757 19.4087 22.6421C20.5424 22.1743 20.5424 22.1743 21.6757 21.7053C21.763 21.6692 21.8502 21.633 21.9401 21.5958C22.1102 21.5253 22.2802 21.4546 22.4501 21.3836C22.8245 21.2278 23.199 21.0762 23.5805 20.9385C24.2978 20.7033 24.2978 20.7033 24.8574 20.2253C25.2097 19.4526 25.2097 19.4526 25.079 18.6386C25.0042 18.4865 24.9265 18.3357 24.8446 18.1874C24.7982 18.0482 24.7982 18.0482 24.7508 17.9061C23.4696 17.7722 22.7775 17.8629 21.8796 18.806ZM30.2821 17.9061C30.2367 18.0505 30.1919 18.1951 30.1473 18.3397C30.1223 18.4202 30.0973 18.5007 30.0715 18.5836C29.9293 19.1068 29.8573 19.4249 30.1122 19.9218C30.7441 20.9536 32.3221 21.3063 33.4051 21.7382C33.7551 21.8785 34.1049 22.0191 34.4547 22.1597C34.5435 22.1953 34.6322 22.2309 34.7237 22.2676C35.3438 22.5168 35.9624 22.7696 36.5802 23.0247C36.6637 23.0591 36.7473 23.0936 36.8334 23.1291C37.156 23.2623 37.4786 23.3955 37.801 23.5294C38.0215 23.621 38.2422 23.7121 38.4629 23.8032C38.527 23.83 38.5911 23.8568 38.6571 23.8844C39.0486 24.0455 39.4365 24.172 39.8446 24.2811C39.4647 23.8856 39.0564 23.5378 38.6317 23.1913C38.5612 23.1335 38.4907 23.0756 38.418 23.0161C37.9393 22.6247 37.4554 22.2408 36.9675 21.861C36.5296 21.5189 36.1006 21.1668 35.6727 20.8124C35.1394 20.3708 34.6047 19.9318 34.0534 19.5128C33.7567 19.2855 33.4804 19.0495 33.2111 18.7902C32.5259 18.1491 32.0454 17.8013 31.079 17.83C30.8105 17.8457 30.5491 17.8722 30.2821 17.9061Z" fill="#157442"/>
<path d="M34.3727 31.6742C34.5034 31.6734 34.5034 31.6734 34.6367 31.6726C34.7316 31.6725 34.8266 31.6724 34.9244 31.6723C35.0249 31.6718 35.1254 31.6714 35.2289 31.6709C35.5616 31.6695 35.8942 31.6689 36.2269 31.6684C36.4581 31.6678 36.6893 31.6673 36.9205 31.6667C37.4054 31.6658 37.8903 31.6652 38.3752 31.6649C38.9963 31.6644 39.6173 31.6621 40.2383 31.6594C40.716 31.6577 41.1936 31.6572 41.6713 31.6571C41.9002 31.6568 42.1291 31.656 42.3581 31.6548C42.6785 31.6532 42.9989 31.6534 43.3194 31.654C43.4137 31.6531 43.5081 31.6523 43.6053 31.6514C44.2444 31.6552 44.7218 31.7233 45.2171 32.1609C45.4433 32.5584 45.4882 32.9425 45.5488 33.3921C45.5636 33.4926 45.5784 33.5932 45.5936 33.6967C45.6274 33.9272 45.6606 34.1577 45.6933 34.3884C45.7545 34.8197 45.8194 35.2505 45.8844 35.6813C45.9978 36.4345 46.1096 37.1879 46.2202 37.9415C46.2976 38.4683 46.3755 38.9949 46.4538 39.5215C46.5047 39.8643 46.5551 40.2072 46.6053 40.5501C46.6292 40.7125 46.6533 40.8749 46.6776 41.0373C46.7113 41.2631 46.7443 41.4891 46.7771 41.715C46.7871 41.7805 46.797 41.846 46.8072 41.9135C46.9025 42.5791 46.9887 43.2011 46.5932 43.7812C46.1606 44.133 45.8637 44.2054 45.31 44.1972C45.1878 44.197 45.0656 44.1969 44.9397 44.1968C44.6244 44.1562 44.6244 44.1562 44.4399 44.0338C44.273 43.7594 44.3663 43.5174 44.4369 43.2187C44.6244 43.0312 44.6244 43.0312 44.8683 43.0128C45.1308 43.0189 45.3932 43.025 45.6557 43.0312C45.5629 42.2422 45.5629 42.2422 45.4682 41.4374C44.6638 41.4374 43.8594 41.4374 43.0307 41.4374C43.0307 41.9633 43.0307 42.4893 43.0307 43.0312C43.2473 43.0621 43.4638 43.093 43.6869 43.1249C43.8744 43.4062 43.8744 43.4062 43.851 43.6933C43.7807 43.9687 43.7807 43.9687 43.5932 44.1562C43.3568 44.1774 43.3568 44.1774 43.0622 44.1745C42.957 44.1739 42.8519 44.1733 42.7436 44.1726C42.5783 44.1703 42.5783 44.1703 42.4096 44.1679C42.2987 44.167 42.1877 44.1662 42.0734 44.1653C41.7987 44.1631 41.5241 44.1597 41.2494 44.1562C41.2494 44.6202 41.2494 45.0843 41.2494 45.5624C41.3804 45.5581 41.5114 45.5537 41.6464 45.5492C41.8188 45.5457 41.9911 45.5423 42.1635 45.539C42.2498 45.5358 42.3361 45.5327 42.425 45.5294C43.0621 45.5202 43.0621 45.5202 43.3724 45.7301C43.4994 45.9374 43.4994 45.9374 43.4936 46.2772C43.4057 46.5937 43.4057 46.5937 43.1244 46.7812C42.8688 46.7999 42.6227 46.8077 42.367 46.8069C42.2898 46.8074 42.2126 46.8079 42.1331 46.8084C41.8777 46.8097 41.6224 46.8096 41.367 46.8094C41.1896 46.8097 41.0123 46.8101 40.8349 46.8106C40.463 46.8113 40.0911 46.8112 39.7192 46.8107C39.2424 46.8102 38.7657 46.8118 38.2889 46.814C37.9226 46.8153 37.5562 46.8154 37.1899 46.8151C37.0141 46.8152 36.8383 46.8157 36.6625 46.8166C36.4168 46.8178 36.1711 46.8171 35.9253 46.8161C35.8526 46.8168 35.7799 46.8175 35.7049 46.8182C35.4068 46.8153 35.1892 46.7987 34.923 46.6589C34.7807 46.4999 34.7807 46.4999 34.7338 46.1718C34.7807 45.8437 34.7807 45.8437 34.9432 45.6842C35.1874 45.5442 35.3232 45.5296 35.6025 45.5349C35.6859 45.5358 35.7692 45.5367 35.8552 45.5377C35.9414 45.54 36.0277 45.5424 36.1166 45.5448C36.2044 45.5461 36.2921 45.5474 36.3825 45.5487C36.5986 45.552 36.8146 45.557 37.0307 45.5624C37.0307 45.0983 37.0307 44.6343 37.0307 44.1562C36.8179 44.1591 36.8179 44.1591 36.6007 44.1621C36.0734 44.1689 35.5461 44.1732 35.0188 44.1768C34.7908 44.1786 34.5627 44.1812 34.3346 44.1844C34.0065 44.189 33.6784 44.1911 33.3503 44.1928C33.2486 44.1947 33.1469 44.1966 33.0421 44.1986C32.4666 44.1988 32.1213 44.1726 31.6869 43.7812C31.2198 43.0961 31.4168 42.281 31.5303 41.5075C31.5502 41.3677 31.5502 41.3677 31.5705 41.225C31.6143 40.9186 31.6588 40.6124 31.7034 40.3062C31.7343 40.0923 31.7651 39.8785 31.796 39.6646C31.8606 39.2172 31.9257 38.7698 31.9911 38.3225C32.0746 37.75 32.1569 37.1773 32.2388 36.6045C32.3021 36.1631 32.3662 35.7218 32.4306 35.2806C32.4613 35.0695 32.4917 34.8583 32.5218 34.6472C32.564 34.3518 32.6073 34.0566 32.6509 33.7614C32.6631 33.6747 32.6752 33.5879 32.6877 33.4985C32.7774 32.9037 32.8761 32.3676 33.3217 31.9335C33.672 31.7114 33.9627 31.6757 34.3727 31.6742ZM34.0307 32.9062C33.9998 33.0647 33.9688 33.2233 33.9369 33.3866C33.9195 33.4758 33.9021 33.565 33.8842 33.6569C33.8296 33.9829 33.8296 33.9829 33.8432 34.4999C34.3073 34.4999 34.7713 34.4999 35.2494 34.4999C35.2494 33.974 35.2494 33.448 35.2494 32.9062C34.8473 32.9062 34.4451 32.9062 34.0307 32.9062ZM36.4682 32.9062C36.4682 33.4321 36.4682 33.958 36.4682 34.4999C37.1488 34.4999 37.8294 34.4999 38.5307 34.4999C38.5307 33.974 38.5307 33.448 38.5307 32.9062C37.8501 32.9062 37.1694 32.9062 36.4682 32.9062ZM39.7494 32.9062C39.7494 33.4321 39.7494 33.958 39.7494 34.4999C40.4301 34.4999 41.1107 34.4999 41.8119 34.4999C41.8119 33.974 41.8119 33.448 41.8119 32.9062C41.1313 32.9062 40.4507 32.9062 39.7494 32.9062ZM43.0307 32.9062C43.0307 33.4321 43.0307 33.958 43.0307 34.4999C43.4948 34.4999 43.9588 34.4999 44.4369 34.4999C44.4234 34.3239 44.4099 34.148 44.3959 33.9667C44.3883 33.8677 44.3807 33.7687 44.3729 33.6668C44.3447 33.3436 44.3447 33.3436 44.2494 32.9062C43.8473 32.9062 43.4451 32.9062 43.0307 32.9062ZM33.6557 35.6249C33.5115 36.2209 33.4261 36.795 33.3744 37.4062C33.9932 37.4062 34.6119 37.4062 35.2494 37.4062C35.2494 36.8183 35.2494 36.2305 35.2494 35.6249C34.7235 35.6249 34.1976 35.6249 33.6557 35.6249ZM36.4682 35.6249C36.4682 36.2127 36.4682 36.8005 36.4682 37.4062C37.1488 37.4062 37.8294 37.4062 38.5307 37.4062C38.5307 36.8183 38.5307 36.2305 38.5307 35.6249C37.8501 35.6249 37.1694 35.6249 36.4682 35.6249ZM39.7494 35.6249C39.7494 36.2127 39.7494 36.8005 39.7494 37.4062C40.4301 37.4062 41.1107 37.4062 41.8119 37.4062C41.8119 36.8183 41.8119 36.2305 41.8119 35.6249C41.1313 35.6249 40.4507 35.6249 39.7494 35.6249ZM43.0307 35.6249C43.0307 36.2127 43.0307 36.8005 43.0307 37.4062C43.6494 37.4062 44.2682 37.4062 44.9057 37.4062C44.8767 37.1645 44.8477 36.9228 44.8178 36.6737C44.8089 36.598 44.7999 36.5222 44.7907 36.4442C44.7557 36.1584 44.7157 35.8988 44.6244 35.6249C44.0985 35.6249 43.5726 35.6249 43.0307 35.6249ZM33.1869 38.5312C33.156 38.7206 33.1251 38.9101 33.0932 39.1054C33.0758 39.212 33.0584 39.3185 33.0405 39.4284C32.9876 39.7889 32.9876 39.7889 32.9994 40.3124C33.7419 40.3124 34.4844 40.3124 35.2494 40.3124C35.2494 39.7246 35.2494 39.1368 35.2494 38.5312C34.5688 38.5312 33.8882 38.5312 33.1869 38.5312ZM36.4682 38.5312C36.4682 39.119 36.4682 39.7068 36.4682 40.3124C37.1488 40.3124 37.8294 40.3124 38.5307 40.3124C38.5307 39.7246 38.5307 39.1368 38.5307 38.5312C37.8501 38.5312 37.1694 38.5312 36.4682 38.5312ZM39.7494 38.5312C39.7494 39.119 39.7494 39.7068 39.7494 40.3124C40.4301 40.3124 41.1107 40.3124 41.8119 40.3124C41.8119 39.7246 41.8119 39.1368 41.8119 38.5312C41.1313 38.5312 40.4507 38.5312 39.7494 38.5312ZM43.0307 38.5312C43.0307 39.119 43.0307 39.7068 43.0307 40.3124C43.7732 40.3124 44.5157 40.3124 45.2807 40.3124C45.2672 40.1403 45.2536 39.9682 45.2397 39.7909C45.2321 39.6941 45.2244 39.5973 45.2166 39.4976C45.1857 39.1743 45.1391 38.8526 45.0932 38.5312C44.4126 38.5312 43.7319 38.5312 43.0307 38.5312ZM32.8119 41.4374C32.603 42.3228 32.603 42.3228 32.6244 43.0312C33.4907 43.0312 34.3569 43.0312 35.2494 43.0312C35.2494 42.5052 35.2494 41.9793 35.2494 41.4374C34.4451 41.4374 33.6407 41.4374 32.8119 41.4374ZM36.4682 41.4374C36.4682 41.9633 36.4682 42.4893 36.4682 43.0312C37.1488 43.0312 37.8294 43.0312 38.5307 43.0312C38.5307 42.5052 38.5307 41.9793 38.5307 41.4374C37.8501 41.4374 37.1694 41.4374 36.4682 41.4374ZM39.7494 41.4374C39.7494 41.9633 39.7494 42.4893 39.7494 43.0312C40.4301 43.0312 41.1107 43.0312 41.8119 43.0312C41.8119 42.5052 41.8119 41.9793 41.8119 41.4374C41.1313 41.4374 40.4507 41.4374 39.7494 41.4374ZM38.2494 44.1562C38.2494 44.6202 38.2494 45.0843 38.2494 45.5624C38.8373 45.5624 39.4251 45.5624 40.0307 45.5624C40.0307 45.0983 40.0307 44.6343 40.0307 44.1562C39.4429 44.1562 38.8551 44.1562 38.2494 44.1562Z" fill="#157442"/>
<path d="M11.248 19.3126C11.5441 19.618 11.593 19.9085 11.6597 20.3219C11.6708 20.3894 11.6818 20.457 11.6933 20.5266C11.7338 20.7779 11.7723 21.0296 11.8105 21.2813C11.835 21.4399 11.835 21.4399 11.8599 21.6016C11.9755 22.3537 12.0874 23.1063 12.1974 23.8592C12.2464 24.1943 12.2964 24.5294 12.3465 24.8643C12.3853 25.1247 12.4235 25.3851 12.4614 25.6456C12.4882 25.8289 12.5159 26.0122 12.5435 26.1954C12.5595 26.3066 12.5755 26.4178 12.5919 26.5323C12.6063 26.6297 12.6206 26.7272 12.6354 26.8275C12.6651 27.247 12.5922 27.5486 12.3613 27.8966C12.166 28.187 12.166 28.187 12.1973 28.418C12.2243 28.4761 12.2514 28.5341 12.2793 28.5938C12.3422 28.7499 12.4047 28.9062 12.4668 29.0626C12.5618 29.0582 12.6568 29.0539 12.7546 29.0494C12.8813 29.0459 13.0081 29.0425 13.1348 29.0391C13.1971 29.036 13.2595 29.0329 13.3237 29.0296C14.1173 29.0141 14.6116 29.5721 15.1855 30.0528C15.6825 30.4657 16.1816 30.8745 16.6914 31.2716C17.2355 31.6956 17.7721 32.1284 18.3067 32.5644C18.7348 32.9137 19.1655 33.2593 19.5995 33.6014C20.0426 33.9678 20.0426 33.9678 20.1367 34.3009C20.1599 34.6872 20.0672 34.9064 19.8613 35.2266C19.5756 35.4171 19.2711 35.4419 18.9355 35.4376C18.6275 35.3637 18.3456 35.2434 18.0555 35.1171C17.9715 35.0822 17.8874 35.0473 17.8008 35.0113C17.5319 34.8992 17.264 34.7847 16.9961 34.67C16.8239 34.5976 16.6516 34.5254 16.4792 34.4534C16.1317 34.3079 15.7846 34.1615 15.4378 34.0145C14.7533 33.7251 14.0666 33.4412 13.3798 33.1574C13.254 33.1054 13.1283 33.0534 13.0025 33.0014C12.6989 32.8759 12.3954 32.7505 12.0918 32.6251C12.0957 32.6872 12.0995 32.7493 12.1035 32.8133C12.1977 34.3267 12.2916 35.84 12.3852 37.3534C12.4304 38.0852 12.4758 38.8171 12.5214 39.5489C12.5611 40.187 12.6007 40.8251 12.64 41.4632C12.6609 41.8009 12.6818 42.1385 12.7029 42.4762C12.7265 42.8537 12.7497 43.2312 12.7729 43.6087C12.78 43.7199 12.787 43.8312 12.7942 43.9458C12.8271 44.486 12.8496 45.0214 12.8418 45.5626C12.9119 45.5593 12.982 45.5561 13.0542 45.5527C13.1465 45.5502 13.2389 45.5476 13.334 45.545C13.471 45.5401 13.471 45.5401 13.6108 45.5351C13.9113 45.5666 14.0308 45.6386 14.248 45.8438C14.3359 46.0196 14.3359 46.0196 14.3418 46.2188C14.2342 46.4292 14.1346 46.6135 13.9668 46.7813C13.7613 46.7917 13.5554 46.7953 13.3496 46.7964C13.2851 46.7969 13.2206 46.7974 13.1542 46.7978C12.9399 46.7992 12.7257 46.7999 12.5115 46.8004C12.363 46.8009 12.2146 46.8015 12.0662 46.802C11.7546 46.803 11.4429 46.8035 11.1313 46.8039C10.7317 46.8044 10.332 46.8066 9.93239 46.8093C9.62565 46.811 9.31891 46.8115 9.01217 46.8117C8.86482 46.8119 8.71747 46.8127 8.57013 46.8139C8.36407 46.8155 8.15808 46.8154 7.95201 46.8147C7.83467 46.8151 7.71733 46.8154 7.59643 46.8158C7.31055 46.7813 7.31055 46.7813 7.13239 46.6591C6.95593 46.3869 6.9902 46.1566 7.0293 45.8438C7.31155 45.5603 7.55213 45.5214 7.94336 45.4981C8.03569 45.492 8.12802 45.4858 8.22314 45.4795C8.29324 45.4759 8.36333 45.4724 8.43555 45.4688C8.44121 45.3758 8.44688 45.2827 8.45271 45.1868C8.5063 44.3069 8.56008 43.427 8.61404 42.5471C8.64177 42.0948 8.66944 41.6425 8.69695 41.1902C8.72354 40.7531 8.75031 40.3161 8.77719 39.879C8.78738 39.7129 8.79751 39.5467 8.80757 39.3805C8.83433 38.939 8.86241 38.4977 8.89261 38.0564C8.9031 37.8937 8.91116 37.7309 8.9189 37.5681C8.92412 37.4843 8.92934 37.4006 8.93472 37.3144C8.93806 37.2464 8.9414 37.1785 8.94484 37.1085C9.02145 36.8624 9.15646 36.7864 9.37305 36.6563C9.63077 36.6186 9.7722 36.6129 9.9949 36.7519C10.197 37.0447 10.1596 37.3512 10.152 37.6942C10.151 37.775 10.1501 37.8558 10.1491 37.939C10.1257 39.2196 10.0356 40.4989 9.95468 41.7768C9.93682 42.0615 9.91962 42.3461 9.90243 42.6308C9.88569 42.907 9.86865 43.1832 9.85151 43.4593C9.8434 43.5902 9.83537 43.7211 9.82741 43.852C9.81627 44.034 9.8047 44.216 9.79311 44.398C9.78666 44.501 9.78021 44.604 9.77356 44.7102C9.74841 44.996 9.70146 45.2796 9.6543 45.5626C10.304 45.5626 10.9537 45.5626 11.623 45.5626C11.6062 45.3268 11.5894 45.0911 11.572 44.8482C11.3951 42.3572 11.2336 39.8654 11.0803 37.3728C11.0487 36.8592 11.0167 36.3456 10.9847 35.8319C10.9598 35.4304 10.935 35.0288 10.9102 34.6273C10.8985 34.4375 10.8867 34.2477 10.8749 34.058C10.8586 33.7961 10.8425 33.5342 10.8265 33.2722C10.8217 33.1956 10.8168 33.1189 10.8119 33.0399C10.7883 32.6509 10.7743 32.265 10.7793 31.8751C10.6865 31.8751 10.5937 31.8751 10.498 31.8751C10.4945 31.9791 10.4945 31.9791 10.4909 32.0851C10.468 32.7545 10.4433 33.4237 10.4167 34.0929C10.4092 34.2814 10.402 34.4698 10.3952 34.6582C10.3879 34.8536 10.3786 35.0489 10.3691 35.2442C10.3623 35.3992 10.3623 35.3992 10.3552 35.5573C10.3047 35.8458 10.2377 35.983 10.0293 36.1876C9.47427 36.257 9.47427 36.257 9.21255 36.0776C9.04148 35.835 9.06671 35.6696 9.08154 35.3753C9.08626 35.2701 9.09097 35.1648 9.09583 35.0564C9.10223 34.9463 9.10864 34.8362 9.11523 34.7227C9.12019 34.6148 9.12514 34.5069 9.13025 34.3957C9.15935 33.8022 9.21021 33.2151 9.2793 32.6251C9.11174 32.6937 9.11174 32.6937 8.9408 32.7636C8.8663 32.7941 8.7918 32.8246 8.71504 32.856C8.54636 32.9251 8.37768 32.9941 8.209 33.0631C7.74141 33.2545 7.27376 33.4458 6.806 33.6367C5.98402 33.9724 5.16221 34.3082 4.34314 34.651C4.22728 34.6992 4.11142 34.7473 3.99554 34.7955C3.79001 34.8811 3.58477 34.9673 3.37989 35.0545C2.16488 35.5581 2.16488 35.5581 1.60352 35.3263C1.3017 35.0688 1.22934 34.8992 1.1875 34.5059C1.23366 34.0536 1.4162 33.8214 1.75659 33.5249C1.86128 33.4449 1.96654 33.3657 2.07227 33.2872C2.19082 33.1967 2.30922 33.106 2.42749 33.0151C2.48988 32.9673 2.55227 32.9194 2.61655 32.8701C2.95265 32.608 3.27962 32.335 3.60742 32.0626C4.15121 31.612 4.70016 31.1696 5.25723 30.7356C5.60021 30.468 5.938 30.1951 6.27344 29.918C6.35694 29.8506 6.44045 29.7832 6.52649 29.7137C6.65725 29.6061 6.7857 29.4953 6.90808 29.3783C7.3707 28.9683 7.90054 29.0139 8.48938 29.0186C8.82729 28.9993 8.82729 28.9993 9.04089 28.7315C9.08863 28.6551 9.13636 28.5788 9.18555 28.5001C9.09208 28.2484 9.00356 28.039 8.8457 27.8204C8.47723 27.0834 8.79676 26.0393 8.91199 25.2511C8.93236 25.1093 8.95271 24.9675 8.97302 24.8256C9.01558 24.5296 9.05858 24.2337 9.10189 23.9378C9.15704 23.5606 9.21094 23.1833 9.26449 22.8059C9.30617 22.5134 9.34858 22.221 9.39119 21.9286C9.41135 21.7896 9.43127 21.6506 9.45094 21.5115C9.65597 20.067 9.65597 20.067 9.93555 19.4063C10.4122 19.0855 10.7271 19.0821 11.248 19.3126ZM10.5918 22.1251C10.4953 22.7671 10.4003 23.4093 10.3063 24.0517C10.2741 24.2701 10.2417 24.4884 10.2089 24.7067C10.1617 25.0209 10.1157 25.3354 10.0699 25.6499C10.0551 25.747 10.0403 25.8441 10.025 25.9441C9.93184 26.5954 9.89049 27.0923 10.1875 27.6973C10.385 27.9693 10.385 27.9693 10.709 27.9727C10.8366 27.9553 10.8366 27.9553 10.9668 27.9376C11.4119 27.2317 11.4869 26.7512 11.3444 25.9373C11.3222 25.7908 11.3222 25.7908 11.2996 25.6414C11.252 25.3321 11.2002 25.0236 11.1484 24.7149C11.116 24.5056 11.0838 24.2963 11.0519 24.0869C10.9623 23.5135 10.9623 23.5135 10.8683 22.9409C10.8493 22.8264 10.8493 22.8264 10.8299 22.7097C10.7777 22.4933 10.699 22.3195 10.5918 22.1251ZM10.0293 29.3438C9.80941 29.6737 9.78743 29.7992 9.8418 30.1876C10.0558 30.4628 10.2205 30.6203 10.5449 30.7501C10.8535 30.7501 11.0016 30.6487 11.248 30.4688C11.4723 30.2827 11.4723 30.2827 11.4824 29.9239C11.4773 29.6886 11.4631 29.5688 11.3228 29.3779C10.852 28.963 10.5192 28.9957 10.0293 29.3438ZM7.00586 30.8731C6.8678 30.9941 6.72961 31.115 6.59131 31.2357C6.48934 31.3264 6.48934 31.3264 6.38531 31.4191C6.09327 31.6746 5.78925 31.9131 5.48242 32.1505C5.37671 32.233 5.27099 32.3155 5.16528 32.398C5.06885 32.473 4.97241 32.5479 4.87305 32.6251C4.78434 32.6942 4.69564 32.7633 4.60425 32.8346C4.41276 32.9837 4.22113 33.1326 4.0293 33.2813C4.43763 33.4174 4.71436 33.2325 5.09094 33.0693C5.16784 33.0368 5.24474 33.0042 5.32396 32.9707C5.48703 32.9015 5.64991 32.8319 5.81263 32.7619C6.05955 32.6556 6.30696 32.5506 6.5545 32.4458C6.71316 32.3783 6.8718 32.3108 7.0304 32.2431C7.10357 32.212 7.17674 32.1808 7.25213 32.1487C8.10275 31.8186 8.10275 31.8186 8.82227 31.2891C8.94441 30.9052 8.8392 30.6614 8.7168 30.2813C7.94034 30.1905 7.56973 30.3492 7.00586 30.8731ZM12.6543 30.2813C12.4816 30.637 12.4438 30.8394 12.5605 31.2188C12.6529 31.4602 12.71 31.5705 12.9331 31.7072C13.0087 31.7383 13.0843 31.7694 13.1622 31.8014C13.2908 31.8553 13.2908 31.8553 13.422 31.9103C13.5148 31.9476 13.6075 31.9849 13.7031 32.0234C13.7981 32.0626 13.8931 32.1019 13.991 32.1423C14.1919 32.2249 14.393 32.3069 14.5944 32.3883C14.9037 32.5135 15.212 32.6408 15.5203 32.7685C15.7153 32.8484 15.9103 32.9281 16.1055 33.0078C16.1982 33.046 16.291 33.0843 16.3866 33.1237C16.5152 33.1754 16.5152 33.1754 16.6464 33.2282C16.722 33.2589 16.7976 33.2896 16.8755 33.3213C17.0654 33.3992 17.0654 33.3992 17.248 33.2813C16.5778 32.7057 15.9025 32.1398 15.2017 31.6015C14.9303 31.3919 14.6685 31.1787 14.4169 30.9456C13.8256 30.3877 13.8256 30.3877 13.0527 30.2227C12.8302 30.2438 12.8302 30.2438 12.6543 30.2813Z" fill="#157442"/>
<path d="M11.9692 6.25185C12.855 6.88411 13.5302 7.8058 13.753 8.88344C13.8787 9.87128 13.7987 10.8812 13.2718 11.7505C13.1235 11.9061 13.1235 11.9061 12.7954 11.953C12.4673 11.9061 12.4673 11.9061 12.2798 11.7597C12.1153 11.3587 12.2329 11.0042 12.3761 10.609C12.6059 9.8615 12.5395 9.06839 12.2087 8.36343C11.7586 7.56229 11.0849 7.14341 10.2041 6.87661C9.43569 6.73132 8.72364 6.923 8.04344 7.2831C7.36065 7.84451 6.85833 8.47444 6.74852 9.3749C6.67253 10.2564 6.96994 11.0593 7.52635 11.745C8.0881 12.3119 8.79042 12.5878 9.58446 12.5976C10.2956 12.5878 10.848 12.3919 11.436 11.9999C12.041 12.0424 12.041 12.0424 12.2798 12.2811C12.3341 12.6303 12.3165 12.7899 12.1157 13.0839C11.3826 13.7349 10.334 13.9047 9.39183 13.8954C8.16419 13.8114 7.2029 13.2612 6.37352 12.3749C6.15036 12.0764 5.97366 11.7723 5.81102 11.4374C5.77924 11.3755 5.74746 11.3136 5.71471 11.2499C5.31432 10.3052 5.40461 8.9722 5.7755 8.03786C6.30527 6.98582 7.07587 6.24559 8.15477 5.76553C9.44571 5.35005 10.8288 5.55914 11.9692 6.25185Z" fill="#157442"/>
<path d="M36 1.40621C36.1641 1.52779 36.1641 1.52779 36.2812 1.68746C36.3105 2.02145 36.3105 2.02145 36.2812 2.34371C36.0515 2.57349 35.9042 2.58556 35.5898 2.65426C35.2305 2.74646 35.0873 2.78825 34.8164 3.0527C34.5972 3.44137 34.563 3.67091 34.5938 4.12496C34.7743 4.55629 35.0309 4.74822 35.4375 4.96871C35.7361 5.02126 36.0291 5.01877 36.3317 5.01543C36.42 5.01594 36.5083 5.01646 36.5993 5.01699C36.7904 5.01787 36.9814 5.01788 37.1725 5.01713C37.4747 5.01594 37.7768 5.017 38.079 5.01863C38.6111 5.02113 39.1432 5.02166 39.6752 5.02153C40.5279 5.02132 41.3805 5.02263 42.2332 5.02674C42.5312 5.02766 42.8293 5.02684 43.1273 5.02592C43.3094 5.0265 43.4914 5.02715 43.6735 5.02788C43.7982 5.02679 43.7982 5.02679 43.9254 5.02569C44.0015 5.02632 44.0776 5.02695 44.156 5.02761C44.2551 5.02752 44.2551 5.02752 44.3562 5.02744C44.5888 5.07398 44.6717 5.15517 44.8125 5.34371C44.8418 5.6777 44.8418 5.6777 44.8125 5.99996C44.5904 6.22205 44.5472 6.21126 44.2457 6.21316C44.1664 6.2141 44.087 6.21503 44.0052 6.216C43.8743 6.21609 43.8743 6.21609 43.7408 6.21619C43.6031 6.21736 43.6031 6.21736 43.4626 6.21855C43.1577 6.22082 42.8528 6.22163 42.5479 6.22225C42.336 6.22309 42.1241 6.22395 41.9122 6.22482C41.4671 6.22637 41.0219 6.22709 40.5768 6.22736C40.0079 6.22786 39.4391 6.23138 38.8702 6.23568C38.432 6.23847 37.9938 6.23914 37.5556 6.23924C37.346 6.23963 37.1364 6.24079 36.9268 6.24275C36.6324 6.24529 36.3382 6.24482 36.0438 6.24365C35.958 6.24504 35.8723 6.24643 35.7839 6.24787C35.0858 6.24003 34.4494 6.04253 33.9452 5.53928C33.5207 5.02644 33.3164 4.45327 33.2461 3.79684C33.3206 3.10187 33.5483 2.40421 34.0876 1.93063C34.6553 1.50052 35.2833 1.27926 36 1.40621Z" fill="#157442"/>
<path d="M38.6648 7.75547C38.7808 7.75475 38.7808 7.75475 38.8992 7.75402C39.1535 7.75272 39.4078 7.7528 39.6621 7.75302C39.8393 7.75265 40.0165 7.75225 40.1937 7.7518C40.5643 7.7511 40.9349 7.75113 41.3055 7.75162C41.7809 7.75217 42.2563 7.75057 42.7317 7.7484C43.0972 7.74702 43.4628 7.74694 43.8283 7.74723C44.0036 7.74718 44.179 7.74669 44.3543 7.74575C44.599 7.7446 44.8435 7.74522 45.0881 7.74631C45.1608 7.7456 45.2334 7.74488 45.3082 7.74414C45.7948 7.74894 45.7948 7.74894 46.0282 7.90645C46.1793 8.15281 46.1591 8.34358 46.1239 8.62497C46.0254 8.78092 46.0254 8.78092 45.8426 8.90622C45.5986 8.93379 45.3767 8.94435 45.1327 8.94229C45.0605 8.94279 44.9884 8.9433 44.9141 8.94381C44.7574 8.94473 44.6007 8.94501 44.444 8.94472C44.1957 8.9443 43.9474 8.94561 43.6991 8.94738C43.1714 8.95083 42.6438 8.95211 42.1161 8.95309C41.5058 8.95422 40.8956 8.95625 40.2853 8.96059C40.0413 8.96186 39.7973 8.96147 39.5533 8.96102C39.4026 8.9619 39.2519 8.96285 39.1012 8.96389C39.0338 8.96332 38.9665 8.96274 38.8971 8.96215C38.4203 8.96791 38.1022 9.06348 37.6864 9.28122C37.4185 9.58345 37.3217 9.77186 37.2645 10.1718C37.3212 10.5687 37.4249 10.7597 37.6864 11.0625C37.9905 11.2517 38.2608 11.347 38.6063 11.4433C38.7049 11.4723 38.8035 11.5013 38.9051 11.5312C39.0464 11.8137 39.0156 12.064 38.9989 12.375C38.7631 12.6108 38.67 12.5956 38.3426 12.6035C37.6803 12.5887 37.1483 12.3903 36.6691 11.9253C36.1952 11.3416 35.9632 10.7314 36.0048 9.97848C36.1184 9.13706 36.4563 8.68243 37.0851 8.12472C37.5798 7.78369 38.0797 7.75358 38.6648 7.75547Z" fill="#157442"/>
<path d="M2.17725 9.0473C2.34311 9.04721 2.34311 9.04721 2.51233 9.04712C2.68436 9.04993 2.68436 9.04993 2.85986 9.0528C3.03189 9.0518 3.03189 9.0518 3.2074 9.05078C4.19238 9.05778 4.19238 9.05778 4.59424 9.37506C4.63944 9.69148 4.67068 9.91498 4.49003 10.1899C4.22477 10.3737 4.0034 10.3506 3.68347 10.3532C3.62233 10.3537 3.56119 10.3542 3.4982 10.3547C3.36905 10.3553 3.23989 10.3552 3.11074 10.3544C2.91356 10.3536 2.71663 10.3563 2.51947 10.3593C2.3938 10.3594 2.26813 10.3593 2.14246 10.3591C2.02838 10.3592 1.91431 10.3594 1.79678 10.3596C1.44653 10.304 1.3368 10.217 1.12549 9.93756C1.07275 9.70319 1.07275 9.70319 1.12549 9.46881C1.4699 9.12781 1.69705 9.04647 2.17725 9.0473Z" fill="#157442"/>
<path d="M9.37439 14.7188C9.69666 14.7422 9.69666 14.7422 10.0306 14.8125C10.3298 15.2613 10.2494 15.7764 10.2477 16.3011C10.2474 16.4993 10.2496 16.6974 10.252 16.8955C10.2522 17.0215 10.2523 17.1475 10.2522 17.2734C10.2525 17.388 10.2528 17.5026 10.253 17.6206C10.2181 17.9062 10.2181 17.9062 10.0959 18.0835C9.82056 18.2636 9.59722 18.2327 9.28064 18.1875C9.01323 17.8471 8.96344 17.5828 8.96204 17.1562C8.96167 17.0499 8.96131 16.9436 8.96094 16.834C8.96203 16.7238 8.96311 16.6136 8.96423 16.5C8.96315 16.3898 8.96206 16.2796 8.96094 16.166C8.9613 16.0597 8.96166 15.9533 8.96204 15.8438C8.96235 15.7471 8.96267 15.6504 8.963 15.5508C9.00845 15.2141 9.13239 14.9608 9.37439 14.7188Z" fill="#157442"/>
<path d="M4.3125 3.56261C4.59432 3.74796 4.82285 3.98277 5.0625 4.21886C5.16062 4.30935 5.2589 4.39967 5.3573 4.48985C5.46034 4.58688 5.56325 4.68405 5.66602 4.78136C5.71594 4.82689 5.76587 4.87242 5.81731 4.91933C6.16669 5.25909 6.27315 5.51427 6.28125 6.00011C6.13477 6.23448 6.13477 6.23448 5.90625 6.37511C5.49298 6.38234 5.2865 6.25589 4.99768 5.98106C4.87549 5.85577 4.75455 5.72926 4.63477 5.60167C4.57416 5.53895 4.51355 5.47623 4.45111 5.41161C4.33304 5.28933 4.21557 5.16647 4.09877 5.04297C3.95693 4.89533 3.81116 4.75428 3.66248 4.61363C3.46875 4.40636 3.46875 4.40636 3.42188 4.11339C3.46875 3.84386 3.46875 3.84386 3.57422 3.66808C3.85305 3.50078 3.9903 3.50181 4.3125 3.56261Z" fill="#157442"/>
<path d="M15.5608 3.56242C15.7483 3.71476 15.7483 3.71476 15.842 3.93742C15.7964 4.63359 15.3671 4.95367 14.8928 5.41984C14.8138 5.50148 14.7348 5.58311 14.6533 5.66722C13.996 6.322 13.996 6.322 13.5924 6.38774C13.3108 6.37492 13.3108 6.37492 13.1292 6.28117C12.9748 5.99067 13.001 5.76164 13.0295 5.43742C13.1912 5.1908 13.1912 5.1908 13.4166 4.96318C13.4983 4.8807 13.5799 4.79822 13.664 4.71324C13.7505 4.62931 13.8369 4.54538 13.926 4.4589C14.0519 4.3292 14.0519 4.3292 14.1804 4.19688C14.2628 4.11525 14.3453 4.03361 14.4303 3.94951C14.5054 3.87513 14.5805 3.80075 14.6579 3.72413C14.9779 3.51431 15.1853 3.52161 15.5608 3.56242Z" fill="#157442"/>
<path d="M13.5279 13.0886C13.9426 13.1322 14.0558 13.2256 14.3447 13.5186C14.4268 13.6011 14.5088 13.6836 14.5934 13.7686C14.6769 13.8559 14.7604 13.9432 14.8464 14.0331C14.9321 14.1187 15.0178 14.2042 15.1061 14.2922C15.8225 15.0241 15.8225 15.0241 15.8425 15.4687C15.6492 15.7382 15.6492 15.7382 15.3738 15.9374C14.683 15.909 14.3468 15.4585 13.8855 14.9941C13.7619 14.8767 13.7619 14.8767 13.6357 14.757C12.9771 14.1009 12.9771 14.1009 12.9648 13.6409C13.0493 13.2153 13.0942 13.1394 13.5279 13.0886Z" fill="#157442"/>
<path d="M6.00135 13.1249C6.18885 13.2773 6.18885 13.2773 6.2826 13.4999C6.25292 13.9638 6.13223 14.1783 5.80652 14.5037C5.72857 14.5818 5.65063 14.66 5.57032 14.7405C5.48826 14.8203 5.4062 14.9001 5.32166 14.9823C5.24105 15.064 5.16045 15.1456 5.0774 15.2297C4.39732 15.9019 4.39732 15.9019 3.93885 15.9374C3.67517 15.8437 3.67517 15.8437 3.4701 15.6562C3.42521 15.2799 3.4215 15.074 3.6318 14.7533C3.70618 14.6782 3.78055 14.6031 3.85718 14.5257C3.93882 14.4432 4.02045 14.3607 4.10456 14.2757C4.19103 14.1918 4.27749 14.1079 4.36658 14.0214C4.49248 13.8917 4.49248 13.8917 4.62091 13.7594C4.70339 13.6777 4.78587 13.5961 4.87085 13.512C4.94597 13.4376 5.02108 13.3633 5.09848 13.2866C5.41848 13.0768 5.62587 13.0841 6.00135 13.1249Z" fill="#157442"/>
<path d="M10.0316 1.31251C10.3542 1.6351 10.2475 2.10006 10.2493 2.53584C10.2491 2.60334 10.2489 2.67084 10.2487 2.74039C10.2484 2.94618 10.2506 3.15184 10.253 3.35761C10.2532 3.48829 10.2532 3.61897 10.2531 3.74964C10.2534 3.86873 10.2537 3.98782 10.254 4.11052C10.2191 4.40626 10.2191 4.40626 10.0972 4.58609C9.83129 4.7553 9.58638 4.71522 9.28158 4.68751C8.95392 4.35985 9.06558 3.87378 9.06387 3.43085C9.06407 3.36113 9.06427 3.29141 9.06448 3.21957C9.06478 3.007 9.06258 2.79454 9.0602 2.58198C9.05999 2.44703 9.05992 2.31208 9.06002 2.17713C9.05974 2.05411 9.05946 1.9311 9.05917 1.80435C9.09408 1.50001 9.09408 1.50001 9.21596 1.31596C9.49058 1.14846 9.73232 1.24177 10.0316 1.31251Z" fill="#157442"/>
<path d="M15.583 9.15341C15.6487 9.15337 15.7144 9.15332 15.7822 9.15327C15.921 9.15349 16.0597 9.1544 16.1985 9.15595C16.4113 9.15817 16.6239 9.15788 16.8367 9.15726C17.8797 9.1613 17.8797 9.1613 18.0933 9.37497C18.1457 9.95055 18.1457 9.95055 17.9902 10.1902C17.724 10.3729 17.5028 10.3506 17.1826 10.3531C17.1214 10.3536 17.0603 10.3541 16.9973 10.3546C16.8681 10.3552 16.739 10.3551 16.6098 10.3543C16.4126 10.3535 16.2157 10.3562 16.0186 10.3592C15.8929 10.3593 15.7672 10.3593 15.6415 10.359C15.5275 10.3592 15.4134 10.3593 15.2959 10.3595C14.9457 10.3039 14.835 10.2176 14.6246 9.93747C14.5796 9.67429 14.5773 9.54026 14.7254 9.31594C15.0033 9.11807 15.2458 9.15265 15.583 9.15341Z" fill="#157442"/>
<path d="M12.3809 2.74207C12.6562 2.81238 12.6562 2.81238 12.8438 2.99988C12.8926 3.51429 12.787 3.87303 12.5801 4.34168C12.5556 4.39974 12.5311 4.45781 12.5059 4.51764C12.3682 4.83077 12.2916 4.96176 12 5.15613C11.666 5.14441 11.666 5.14441 11.3438 5.06238C11.2031 4.90418 11.2031 4.90418 11.1562 4.68738C11.203 4.24718 11.3341 3.89253 11.5195 3.49207C11.5676 3.3862 11.6157 3.28034 11.6653 3.17127C11.859 2.82233 11.9751 2.70894 12.3809 2.74207Z" fill="#157442"/>
<path d="M4.875 11.3438C5.0625 11.625 5.0625 11.625 5.07422 11.9473C4.96875 12.2813 4.96875 12.2813 4.81787 12.3974C4.62156 12.4959 4.42364 12.5773 4.21875 12.6563C4.16074 12.6843 4.10273 12.7124 4.04297 12.7413C3.68366 12.9145 3.39665 12.9992 3 12.9375C2.77148 12.7852 2.77148 12.7852 2.625 12.5625C2.625 12.2754 2.625 12.2754 2.71875 12C3.00783 11.7374 3.33081 11.6039 3.69141 11.461C3.79461 11.4189 3.89782 11.3769 4.00415 11.3335C4.34313 11.2417 4.54043 11.2416 4.875 11.3438Z" fill="#157442"/>
<path d="M3.44783 6.5018C4.72771 6.87259 4.72771 6.87259 5.06392 7.31259C5.12428 7.79553 5.12428 7.79553 4.94416 8.03293C4.78267 8.15634 4.78267 8.15634 4.41353 8.1622C3.83275 8.07719 3.30757 7.80969 2.81392 7.50009C2.62642 7.21884 2.62642 7.21884 2.64399 6.98447C2.79187 6.52948 2.96298 6.40836 3.44783 6.5018Z" fill="#157442"/>
<path d="M7.69592 14.313C7.78457 14.3282 7.78457 14.3282 7.875 14.3438C8.09715 14.677 8.0987 14.7945 8.0625 15.1875C7.9827 15.424 7.90024 15.6409 7.79883 15.8672C7.77436 15.9257 7.74988 15.9842 7.72467 16.0444C7.58715 16.3595 7.5118 16.4921 7.21875 16.6875C6.9375 16.7227 6.9375 16.7227 6.65625 16.6875C6.47461 16.541 6.47461 16.541 6.375 16.3125C6.41214 15.8261 6.53965 15.4496 6.75 15.0117C6.80027 14.9056 6.85055 14.7995 6.90234 14.6902C7.1129 14.2774 7.2377 14.3296 7.69592 14.313Z" fill="#157442"/>
<path d="M16.408 6.56243C16.5955 6.74993 16.5955 6.74993 16.6541 7.06048C16.5955 7.40618 16.5955 7.40618 16.4541 7.54351C15.8918 7.90627 15.2159 8.25148 14.533 8.15618C14.3572 8.05072 14.3572 8.05072 14.2517 7.87493C14.1916 7.39377 14.1916 7.39377 14.3546 7.17327C14.6046 6.97409 14.8804 6.85215 15.1716 6.7265C15.2844 6.67574 15.3971 6.62498 15.5133 6.57269C15.8682 6.46155 16.0546 6.4572 16.408 6.56243Z" fill="#157442"/>
<path d="M7.08204 2.7305C7.42816 2.85475 7.55295 3.01892 7.72181 3.34427C8.15664 4.37325 8.15664 4.37325 8.06055 4.87504C7.90821 5.06254 7.90821 5.06254 7.68555 5.15629C7.39844 5.15043 7.39844 5.15043 7.12305 5.06254C6.85835 4.77252 6.72658 4.44678 6.58399 4.08402C6.54193 3.97973 6.49988 3.87543 6.45655 3.76798C6.36982 3.45722 6.36409 3.3023 6.4668 3.00004C6.67743 2.77436 6.77134 2.71535 7.08204 2.7305Z" fill="#157442"/>
<path d="M14.8878 11.2712C15.1964 11.3458 15.4749 11.4439 15.7678 11.5664C15.8638 11.6058 15.9599 11.6452 16.0589 11.6858C16.2931 11.8027 16.4366 11.8871 16.5939 12.0937C16.6543 12.5763 16.6543 12.5763 16.4745 12.8144C16.3127 12.9375 16.3127 12.9375 15.9377 12.9375C15.3318 12.8461 14.6387 12.6456 14.2634 12.1402C14.1564 11.9062 14.1564 11.9062 14.215 11.6543C14.3969 11.3484 14.5275 11.2421 14.8878 11.2712Z" fill="#157442"/>
<path d="M11.7558 14.2969C12.0956 14.3438 12.0956 14.3438 12.3007 14.5664C12.3615 14.6775 12.4177 14.7912 12.4706 14.9062C12.523 15.0183 12.523 15.0183 12.5765 15.1326C12.9256 15.9379 12.9256 15.9379 12.8456 16.4062C12.7402 16.582 12.7402 16.582 12.5644 16.6875C12.0832 16.7476 12.0832 16.7476 11.8627 16.5846C11.6635 16.3346 11.5416 16.0588 11.4159 15.7676C11.3652 15.6548 11.3144 15.5421 11.2621 15.4259C11.151 15.071 11.1466 14.8846 11.2519 14.5312C11.4394 14.3438 11.4394 14.3438 11.7558 14.2969Z" fill="#157442"/>
</svg>
