<svg width="48" height="44" viewBox="0 0 48 44" fill="none" xmlns="http://www.w3.org/2000/svg">
<path d="M28.2185 0.283758C28.8276 0.677895 29.097 1.21412 29.316 1.89655C29.5509 3.15218 28.7937 4.68358 28.4346 5.878C28.3953 6.0089 28.3559 6.13981 28.3166 6.27071C28.2215 6.58757 28.1263 6.90442 28.031 7.22126C28.1206 7.22074 28.1206 7.22074 28.2121 7.22021C29.6708 7.2119 31.1296 7.20571 32.5883 7.20183C33.2938 7.1999 33.9993 7.19728 34.7047 7.19297C35.3201 7.18921 35.9355 7.18681 36.5509 7.18598C36.8763 7.18549 37.2016 7.18436 37.527 7.18161C37.8916 7.17855 38.2562 7.17851 38.6208 7.17869C38.7269 7.17734 38.8329 7.17599 38.9422 7.1746C40.1627 7.18083 41.1838 7.52675 42.0935 8.34626C42.7822 9.05801 43.2317 9.97533 43.2291 10.9754C43.2291 11.0692 43.2291 11.163 43.2291 11.2597C43.2286 11.3603 43.2282 11.4609 43.2277 11.5645C43.2275 11.7198 43.2275 11.7198 43.2273 11.8782C43.2267 12.2087 43.2256 12.5392 43.2244 12.8697C43.2239 13.0938 43.2235 13.3179 43.2231 13.5421C43.222 14.0914 43.2205 14.6407 43.2185 15.19C43.3354 15.1878 43.3354 15.1878 43.4547 15.1855C43.7477 15.1807 44.0407 15.1772 44.3337 15.1746C44.5214 15.1725 44.709 15.1689 44.8967 15.1653C45.83 15.1582 46.6138 15.2406 47.35 15.8535C47.8469 16.3484 48.0517 16.9843 48.0633 17.6724C48.0623 17.7553 48.0614 17.8381 48.0604 17.9234C48.0612 18.0135 48.0621 18.1035 48.0629 18.1963C48.0649 18.4912 48.0636 18.7858 48.062 19.0806C48.0623 19.2872 48.0628 19.4938 48.0634 19.7004C48.0641 20.1323 48.0631 20.5641 48.0609 20.9959C48.0582 21.5476 48.0597 22.0991 48.0625 22.6508C48.0642 23.0771 48.0637 23.5033 48.0625 23.9296C48.0622 24.1329 48.0625 24.3363 48.0636 24.5396C48.0648 24.8245 48.063 25.1092 48.0604 25.3941C48.0614 25.4769 48.0623 25.5597 48.0633 25.6451C48.0517 26.3332 47.8469 26.9691 47.35 27.4641C46.5074 28.1655 45.5795 28.1654 44.5251 28.1451C44.398 28.1437 44.2709 28.1424 44.1437 28.1412C43.8353 28.1379 43.5269 28.1333 43.2185 28.1275C43.2193 28.1837 43.2202 28.24 43.221 28.2979C43.2294 28.8881 43.235 29.4782 43.2391 30.0684C43.241 30.2881 43.2435 30.5078 43.2468 30.7274C43.2514 31.0449 43.2535 31.3623 43.2551 31.6798C43.2571 31.7765 43.259 31.8732 43.261 31.9729C43.2613 33.0775 42.9205 34.0447 42.1873 34.8775C41.3227 35.7173 40.3848 36.1111 39.1842 36.1048C39.0863 36.1045 39.0863 36.1045 38.9864 36.1042C38.7683 36.1034 38.5502 36.102 38.3321 36.1006C38.1754 36.1 38.0188 36.0994 37.8621 36.0989C37.525 36.0977 37.1879 36.0963 36.8508 36.0949C36.3173 36.0927 35.7838 36.0922 35.2504 36.0921C35.1603 36.0921 35.0701 36.0921 34.9773 36.0921C34.6057 36.092 34.2341 36.092 33.8625 36.0921C32.8081 36.092 31.7538 36.0905 30.6994 36.0844C29.8615 36.0796 29.0235 36.078 28.1855 36.0804C27.7423 36.0815 27.2992 36.081 26.8561 36.0764C26.4389 36.0721 26.022 36.0723 25.6049 36.0757C25.4522 36.0762 25.2996 36.0751 25.147 36.0723C24.2926 36.0457 24.2926 36.0457 23.5367 36.3968C23.3238 36.6306 23.1438 36.8649 22.9685 37.1275C22.8559 37.2617 22.8559 37.2617 22.7411 37.3985C22.6827 37.4715 22.6243 37.5445 22.5642 37.6197C22.2369 38.0242 21.902 38.421 21.5623 38.815C21.229 39.2017 20.8996 39.5905 20.5779 39.9869C20.2096 40.4406 19.831 40.8846 19.4484 41.3263C19.225 41.585 19.005 41.8449 18.7948 42.1146C18.3535 42.6783 18.0222 43.0311 17.3494 43.2916C16.6479 43.3766 16.0537 43.3326 15.4762 42.8986C14.9897 42.4515 14.6786 41.9561 14.5942 41.2938C14.5654 40.2547 14.8361 39.2885 15.0876 38.2877C15.1321 38.1059 15.1765 37.9242 15.2208 37.7424C15.3016 37.4119 15.3829 37.0816 15.4656 36.7515C15.482 36.6859 15.4984 36.6203 15.5154 36.5526C15.5565 36.3988 15.6057 36.2473 15.656 36.0963C15.5866 36.0973 15.5171 36.0983 15.4456 36.0994C14.7904 36.1088 14.1353 36.1159 13.4801 36.1205C13.1432 36.123 12.8064 36.1263 12.4696 36.1316C12.1444 36.1367 11.8193 36.1395 11.494 36.1407C11.3099 36.142 11.1258 36.1457 10.9417 36.1494C10.0102 36.1497 10.0102 36.1497 9.72016 35.8795C9.51122 35.5461 9.50006 35.3583 9.56226 34.9713C9.7306 34.7131 9.84843 34.5469 10.1248 34.4088C10.3153 34.4002 10.5061 34.3977 10.6968 34.3981C10.8169 34.3981 10.937 34.3981 11.0608 34.3981C11.1924 34.3986 11.324 34.3991 11.4556 34.3996C11.5898 34.3998 11.7241 34.3999 11.8583 34.4C12.2119 34.4004 12.5654 34.4013 12.919 34.4023C13.2797 34.4033 13.6404 34.4037 14.0011 34.4042C14.709 34.4052 15.4169 34.4068 16.1248 34.4088C16.1343 34.2938 16.1439 34.1789 16.1537 34.0605C16.2171 33.4894 16.3614 32.9424 16.5056 32.3873C16.532 32.2838 16.5584 32.1803 16.5856 32.0736C16.6503 31.8206 16.7154 31.5678 16.781 31.315C16.7017 31.3154 16.6224 31.3157 16.5407 31.3161C14.6121 31.3243 12.6834 31.3305 10.7547 31.3344C9.82197 31.3364 8.88928 31.339 7.95658 31.3433C7.14371 31.347 6.33084 31.3495 5.51796 31.3503C5.08749 31.3508 4.65704 31.3519 4.22657 31.3547C3.82143 31.3572 3.41632 31.358 3.01117 31.3574C2.86246 31.3575 2.71374 31.3583 2.56503 31.3597C2.36194 31.3616 2.15898 31.3611 1.95588 31.3601C1.84224 31.3605 1.7286 31.3608 1.61152 31.3612C1.2536 31.306 1.09934 31.1912 0.843506 30.94C0.713199 30.6794 0.732423 30.4789 0.749756 30.19C0.862919 29.8766 0.929809 29.82 1.21851 29.6275C1.50348 29.6044 1.50348 29.6044 1.86094 29.605C1.92664 29.6048 1.99235 29.6046 2.06004 29.6045C2.28072 29.6042 2.50138 29.6052 2.72205 29.6062C2.88004 29.6063 3.03802 29.6062 3.196 29.6061C3.6254 29.6061 4.0548 29.6072 4.4842 29.6085C4.93276 29.6097 5.38132 29.6098 5.82988 29.61C6.67952 29.6106 7.52916 29.6121 8.3788 29.614C9.34599 29.6161 10.3132 29.6171 11.2804 29.6181C13.2702 29.62 15.26 29.6233 17.2498 29.6275C17.267 29.468 17.267 29.468 17.2845 29.3052C17.3385 28.8733 17.4333 28.4562 17.5369 28.0338C17.5543 27.9611 17.5718 27.8885 17.5898 27.8137C17.6323 27.6369 17.6754 27.4603 17.7185 27.2838C17.6338 27.2846 17.5491 27.2854 17.4618 27.2863C16.6632 27.2938 15.8645 27.2995 15.0658 27.3032C14.6552 27.3051 14.2447 27.3078 13.8341 27.312C13.4378 27.3161 13.0414 27.3184 12.6451 27.3193C12.494 27.32 12.3429 27.3214 12.1918 27.3234C11.9799 27.3261 11.7681 27.3265 11.5562 27.3263C11.4357 27.3272 11.3151 27.328 11.1909 27.3289C10.8195 27.2759 10.6664 27.1744 10.406 26.9088C10.283 26.5552 10.2948 26.3941 10.4236 26.0416C10.6044 25.7672 10.6708 25.7092 10.9685 25.5963C11.2129 25.5702 11.2129 25.5702 11.493 25.5664C11.6506 25.5636 11.6506 25.5636 11.8114 25.5607C11.9808 25.5591 11.9808 25.5591 12.1536 25.5574C12.3276 25.5547 12.3276 25.5547 12.5051 25.5519C12.8127 25.5473 13.1203 25.5434 13.428 25.5399C13.7422 25.5362 14.0564 25.5314 14.3706 25.5267C14.9866 25.5177 15.6025 25.5097 16.2185 25.5025C16.1532 25.4604 16.1532 25.4604 16.0866 25.4174C15.9514 25.3301 15.8164 25.2425 15.6815 25.1547C15.5152 25.0475 15.3477 24.9421 15.1794 24.838C14.6966 24.535 14.2708 24.2268 13.8593 23.8314C11.8362 22.0172 9.15386 22.397 6.60414 22.4595C5.49464 22.4864 4.38486 22.4952 3.27511 22.5049C2.91203 22.5094 2.54921 22.5177 2.18622 22.5266C1.96511 22.5303 1.74399 22.534 1.52287 22.5375C1.42246 22.541 1.32205 22.5445 1.2186 22.548C0.538382 22.5554 0.538384 22.5554 0.172124 22.278C0.00673892 22.0437 -0.0645144 21.9403 -0.0588379 21.6588C-0.0600464 21.5988 -0.0612549 21.5389 -0.0625 21.4771C0.0407159 21.1565 0.204806 21.0223 0.468506 20.815C0.770466 20.7479 1.0655 20.7557 1.37371 20.7618C1.4643 20.7617 1.5549 20.7617 1.64824 20.7616C1.94706 20.7619 2.24575 20.7656 2.54456 20.7692C2.75197 20.7701 2.95939 20.7708 3.16681 20.7712C3.71228 20.773 4.25768 20.7776 4.80313 20.7828C5.35989 20.7876 5.91667 20.7898 6.47345 20.7921C7.56558 20.7971 8.65766 20.8051 9.74976 20.815C9.70432 20.6842 9.70432 20.6842 9.65797 20.5507C9.43023 19.8412 9.49553 19.1399 9.8186 18.4746C9.96523 18.2388 10.1354 18.0287 10.3123 17.815C10.1891 17.8126 10.066 17.8102 9.93909 17.8077C9.77636 17.8024 9.61364 17.797 9.45093 17.7916C9.3699 17.7902 9.28887 17.7889 9.20538 17.7875C8.70974 17.7686 8.41826 17.7258 8.06226 17.3463C7.91513 17.052 7.9355 16.827 7.96851 16.5025C8.15536 16.2486 8.15536 16.2486 8.43726 16.0338C8.72103 15.9974 8.9512 15.9876 9.23267 16.0004C9.38965 16.0021 9.54663 16.0036 9.70361 16.005C9.94912 16.0099 10.1944 16.0162 10.4398 16.025C11.4126 16.0841 11.4126 16.0841 12.288 15.7405C12.5005 15.5047 12.6717 15.2688 12.8435 15.0025C12.9605 14.8658 13.0793 14.7307 13.2009 14.5982C13.4339 14.333 13.6547 14.0597 13.8748 13.7838C13.8143 13.7837 13.7539 13.7837 13.6916 13.7836C12.2206 13.7822 10.7496 13.7782 9.27857 13.7714C8.5672 13.7681 7.85584 13.7657 7.14446 13.7654C6.5244 13.7651 5.90436 13.7632 5.28431 13.7593C4.95601 13.7573 4.62775 13.7562 4.29944 13.7569C3.93287 13.7578 3.56638 13.755 3.19982 13.7518C3.09105 13.7526 2.98228 13.7534 2.87021 13.7543C2.05098 13.7425 2.05098 13.7425 1.76026 13.4641C1.50302 13.0895 1.53677 12.9181 1.59351 12.4713C1.75687 12.1679 1.82524 12.1128 2.15601 12.0025C2.33448 11.9952 2.51322 11.9937 2.69184 11.9952C2.80354 11.996 2.91524 11.9967 3.03032 11.9974C3.15305 11.9986 3.27578 11.9998 3.40222 12.0011C3.53267 12.0021 3.66312 12.0029 3.79357 12.0038C4.00214 12.0051 4.2107 12.0065 4.41927 12.008C4.93716 12.0118 5.45503 12.0138 5.97293 12.0146C6.04814 12.0147 6.12335 12.0148 6.20084 12.0149C6.51118 12.0154 6.82152 12.0158 7.13186 12.0161C8.012 12.0172 8.89204 12.0201 9.77214 12.0285C10.4714 12.0352 11.1706 12.0379 11.8699 12.036C12.2397 12.0351 12.6093 12.0362 12.979 12.0422C14.6649 12.1604 14.6649 12.1604 16.1189 11.5163C16.3074 11.2875 16.4517 11.0435 16.5935 10.7838C16.7034 10.6519 16.816 10.5222 16.9333 10.397C16.9831 10.3395 17.0329 10.282 17.0842 10.2227C17.3592 9.90881 17.6414 9.60141 17.9229 9.29328C18.097 9.10871 18.097 9.10871 18.1873 8.90876C18.1073 8.90959 18.0273 8.91042 17.9448 8.91128C17.1903 8.9188 16.4358 8.92451 15.6813 8.92819C15.2934 8.93014 14.9055 8.9328 14.5176 8.93705C14.1432 8.94113 13.7688 8.94337 13.3943 8.94434C13.2515 8.94503 13.1088 8.94638 12.9661 8.94841C12.7658 8.95114 12.5658 8.9515 12.3655 8.95133C12.1947 8.95258 12.1947 8.95258 12.0205 8.95385C11.6601 8.90003 11.5069 8.7867 11.2498 8.53376C11.1194 8.27314 11.1387 8.07264 11.156 7.78376C11.2692 7.47038 11.3361 7.41372 11.6248 7.22126C11.8815 7.20849 12.1282 7.20665 12.3846 7.21368C12.5452 7.21641 12.7059 7.21911 12.8665 7.22179C12.9518 7.22353 13.037 7.22527 13.1249 7.22705C13.5781 7.23529 14.0314 7.23722 14.4847 7.24012C15.0608 7.24401 15.6367 7.24977 16.2127 7.26335C16.6788 7.27417 17.1444 7.27797 17.6106 7.27727C17.7872 7.27825 17.9638 7.28171 18.1403 7.28782C19.2405 7.32818 19.2405 7.32818 20.1783 6.81846C20.4687 6.52601 20.7262 6.21369 20.9722 5.88336C21.121 5.68446 21.2837 5.50054 21.4509 5.31696C21.4989 5.26125 21.5469 5.20554 21.5963 5.14814C21.7853 4.93033 21.9784 4.71649 22.1716 4.50251C22.4238 4.22307 22.6744 3.94259 22.9216 3.65876C23.2397 3.29359 23.564 2.93427 23.8884 2.57477C24.0678 2.37493 24.2453 2.17374 24.4216 1.97126C24.531 1.84621 24.6403 1.72121 24.7498 1.59626C24.8185 1.51759 24.8873 1.43891 24.9581 1.35786C25.8829 0.312616 26.8169 -0.433063 28.2185 0.283758ZM26.9998 1.69001C26.5388 2.1416 26.0902 2.59747 25.6697 3.0871C25.4755 3.31181 25.277 3.5322 25.0779 3.75251C24.8257 4.03194 24.5751 4.31243 24.3279 4.59626C24.0098 4.96143 23.6855 5.32074 23.3611 5.68024C23.1817 5.88009 23.0042 6.08128 22.8279 6.28376C22.5807 6.56759 22.3301 6.84807 22.0779 7.12751C21.628 7.62657 21.1834 8.12957 20.7485 8.64179C20.224 9.25874 19.6913 9.86479 19.1394 10.4575C18.8379 10.7813 18.543 11.1095 18.2535 11.444C18.062 11.6637 17.8669 11.88 17.6716 12.0963C17.4195 12.3757 17.1688 12.6562 16.9216 12.94C16.6036 13.3052 16.2793 13.6645 15.9548 14.024C15.7755 14.2238 15.598 14.425 15.4216 14.6275C15.1036 14.9927 14.7793 15.352 14.4548 15.7115C14.2755 15.9113 14.098 16.1125 13.9216 16.315C13.6744 16.5988 13.4238 16.8793 13.1716 17.1588C12.8084 17.5619 12.4464 17.9654 12.0935 18.3775C11.9925 18.4923 11.9925 18.4923 11.8895 18.6093C11.5958 18.9552 11.3713 19.2355 11.2205 19.6666C11.2587 20.0639 11.4419 20.2646 11.7185 20.5338C11.9391 20.7001 12.1717 20.8397 12.4099 20.9791C12.5461 21.0615 12.6822 21.1442 12.8182 21.227C12.9202 21.2887 12.9202 21.2887 13.0242 21.3517C13.3029 21.5231 13.5744 21.7042 13.8455 21.8873C14.4942 22.3239 15.1481 22.7526 15.8026 23.1806C15.9833 23.2988 16.1639 23.4173 16.3444 23.5358C17.0773 24.017 17.0773 24.017 17.8152 24.4903C17.88 24.5319 17.9449 24.5736 18.0117 24.6165C18.1712 24.7188 18.3315 24.8199 18.4919 24.921C18.9832 25.3146 19.2302 25.7448 19.406 26.3463C19.4905 27.1976 19.3466 27.9857 19.1422 28.8088C19.1142 28.9264 19.0861 29.0441 19.0572 29.1654C18.9811 29.4845 18.9034 29.8032 18.8253 30.1218C18.7435 30.4572 18.6632 30.7931 18.5827 31.1288C18.4303 31.7639 18.2765 32.3986 18.1222 33.0332C17.93 33.8237 17.7397 34.6146 17.5493 35.4056C17.3547 36.2138 17.16 37.0221 16.9641 37.83C16.934 37.9542 16.9039 38.0784 16.8738 38.2026C16.8184 38.431 16.763 38.6593 16.7075 38.8876C16.3721 40.0564 16.3721 40.0564 16.3123 41.2525C16.4861 41.4813 16.4861 41.4813 16.6873 41.6275C17.0966 41.4994 17.2776 41.3324 17.5369 40.9947C17.6095 40.9024 17.6821 40.81 17.757 40.7149C17.8154 40.6405 17.8154 40.6405 17.8749 40.5646C18.0967 40.2877 18.33 40.0207 18.5623 39.7525C18.8956 39.3659 19.2249 38.977 19.5466 38.5806C19.9154 38.1263 20.2952 37.6824 20.6771 37.2392C20.9613 36.9088 21.2407 36.5753 21.5154 36.2369C21.8842 35.7826 22.2639 35.3387 22.6459 34.8955C22.93 34.565 23.2094 34.2315 23.4841 33.8931C23.8954 33.3868 24.3197 32.8924 24.745 32.3979C25.3305 31.7172 25.9119 31.0332 26.4783 30.3365C26.8493 29.8805 27.2309 29.4345 27.6146 28.9892C27.8988 28.6588 28.1782 28.3253 28.4529 27.9869C28.7746 27.5905 29.104 27.2017 29.4373 26.815C29.8416 26.3458 30.2386 25.8719 30.6271 25.3894C30.7886 25.194 30.9522 25.0043 31.1215 24.8159C31.1687 24.7625 31.216 24.709 31.2646 24.654C31.3562 24.5508 31.4489 24.4485 31.5428 24.3473C31.8542 23.9937 31.9685 23.7242 31.9685 23.2525C31.7889 22.7386 31.3343 22.5339 30.8904 22.2681C29.662 21.5107 28.471 20.6991 27.2768 19.8892C27.0191 19.7145 26.7613 19.5398 26.5035 19.3652C26.4224 19.3101 26.3413 19.2551 26.2577 19.1983C25.7628 18.8635 25.2644 18.5386 24.7519 18.2312C24.2814 17.8964 23.9967 17.4158 23.8123 16.8775C23.7154 15.9578 23.881 15.1496 24.1532 14.2763C24.1901 14.1534 24.2267 14.0305 24.2633 13.9075C24.3416 13.645 24.4211 13.3829 24.5014 13.121C24.6289 12.7055 24.7535 12.2891 24.8778 11.8726C25.192 10.8215 25.5106 9.77168 25.8294 8.72191C25.877 8.56499 25.9247 8.40806 25.9723 8.25113C25.9959 8.17343 26.0195 8.09573 26.0438 8.01568C26.2302 7.40105 26.4154 6.78605 26.5999 6.17082C26.7324 5.72939 26.8666 5.28853 27.0022 4.84802C27.0863 4.57351 27.1689 4.29857 27.2511 4.0235C27.2896 3.89607 27.3286 3.76883 27.3683 3.64178C27.673 2.7519 27.673 2.7519 27.4685 1.87751C27.2345 1.7352 27.2345 1.7352 26.9998 1.69001ZM27.4685 8.90876C27.2688 9.57796 27.0691 10.2472 26.8694 10.9164C26.7766 11.2273 26.6838 11.5383 26.591 11.8492C26.5731 11.9094 26.5551 11.9696 26.5366 12.0316C26.5006 12.1522 26.4646 12.2728 26.4286 12.3933C26.3404 12.689 26.2523 12.9848 26.1644 13.2806C26.0179 13.7738 25.871 14.2669 25.7185 14.7583C25.6961 14.8314 25.6738 14.9044 25.6507 14.9797C25.5942 15.1637 25.5369 15.3473 25.4795 15.531C25.4007 15.8692 25.3797 16.1565 25.406 16.5025C25.7402 16.9393 26.2174 17.2199 26.6731 17.5187C26.7515 17.5708 26.83 17.6228 26.9108 17.6764C27.0792 17.7881 27.2478 17.8996 27.4166 18.0108C27.6817 18.1856 27.9462 18.3614 28.2105 18.5373C28.9772 19.047 29.7449 19.5547 30.5194 20.0525C30.8039 20.2355 31.0876 20.4199 31.3711 20.6044C31.5023 20.6892 31.6339 20.7732 31.766 20.8564C32.5663 21.3604 33.2496 21.8416 33.5269 22.7977C33.6622 23.4622 33.5958 24.1513 33.281 24.7525C33.0603 25.0642 32.8176 25.3522 32.5651 25.6385C32.381 25.8477 32.2002 26.0597 32.019 26.2715C31.9225 26.3843 31.8257 26.4969 31.7288 26.6095C31.4445 26.9398 31.1651 27.2734 30.8904 27.6119C30.5216 28.0662 30.1418 28.5101 29.7599 28.9533C29.4757 29.2837 29.1963 29.6172 28.9216 29.9556C28.5528 30.4099 28.1731 30.8539 27.7911 31.2971C27.4381 31.7076 27.0943 32.1247 26.7537 32.5455C26.5822 32.753 26.4087 32.9575 26.2322 33.1607C26.1808 33.22 26.1293 33.2793 26.0764 33.3403C25.975 33.4568 25.8734 33.5729 25.7713 33.6886C25.5636 33.9273 25.4134 34.1054 25.3123 34.4088C27.1679 34.4175 29.0235 34.4241 30.8791 34.4282C31.7408 34.4301 32.6024 34.4328 33.464 34.437C34.2153 34.4408 34.9665 34.4432 35.7177 34.444C36.1153 34.4445 36.5128 34.4457 36.9104 34.4484C37.2851 34.451 37.6597 34.4517 38.0344 34.4512C38.1714 34.4513 38.3085 34.452 38.4456 34.4535C39.3902 34.4629 40.0167 34.3496 40.8044 33.8345C41.4016 33.2102 41.6013 32.5352 41.5905 31.6882C41.5913 31.5985 41.592 31.5088 41.5927 31.4164C41.5946 31.1183 41.5931 30.8203 41.5917 30.5222C41.5923 30.3074 41.5931 30.0927 41.5941 29.8779C41.5963 29.2964 41.5955 28.715 41.594 28.1335C41.5928 27.5241 41.5939 26.9147 41.5946 26.3053C41.5955 25.2166 41.5941 24.1278 41.5917 23.0391C41.5896 22.0534 41.59 21.0677 41.5921 20.0819C41.5946 18.9353 41.5956 17.7887 41.5942 16.642C41.5934 16.0357 41.5933 15.4295 41.5949 14.8232C41.5962 14.2531 41.5953 13.6831 41.5926 13.1131C41.592 12.9042 41.5922 12.6954 41.5932 12.4866C41.5945 12.2007 41.5929 11.9151 41.5905 11.6293C41.5916 11.5473 41.5926 11.4653 41.5937 11.3808C41.5829 10.6945 41.3637 10.0884 40.9004 9.57216C40.1901 8.89441 39.3851 8.86835 38.4521 8.87683C38.3331 8.87679 38.2141 8.87675 38.0915 8.87671C37.7673 8.87663 37.4431 8.87827 37.1189 8.88024C36.7794 8.88201 36.4398 8.88216 36.1002 8.8825C35.4581 8.88337 34.816 8.88568 34.1739 8.8885C33.4425 8.89165 32.7111 8.8932 31.9797 8.8946C30.4759 8.89754 28.9722 8.90248 27.4685 8.90876ZM43.2185 16.8775C43.2185 20.0331 43.2185 23.1888 43.2185 26.44C45.4791 26.6571 45.4791 26.6571 46.2185 26.1588C46.3732 25.8493 46.3278 25.5044 46.3288 25.1642C46.3295 25.0806 46.3301 24.9971 46.3307 24.911C46.3326 24.6338 46.3337 24.3566 46.3346 24.0794C46.335 23.9849 46.3354 23.8904 46.3358 23.793C46.3377 23.2929 46.3391 22.7928 46.3399 22.2927C46.341 21.7755 46.3442 21.2583 46.3479 20.741C46.3504 20.3439 46.3512 19.9468 46.3515 19.5496C46.3519 19.3589 46.353 19.1682 46.3548 18.9775C46.357 18.7108 46.357 18.4443 46.3563 18.1776C46.3575 18.0986 46.3587 18.0196 46.36 17.9382C46.3569 17.5932 46.3466 17.3912 46.1337 17.1127C45.2197 16.4548 44.9305 16.8775 43.2185 16.8775Z" fill="#157442"/>
</svg>
