<svg width="32" height="32" viewBox="0 0 32 32" fill="none" xmlns="http://www.w3.org/2000/svg">
<circle cx="16" cy="16" r="15.5" stroke="#878686"/>
<path d="M23.133 11.9864C22.9891 11.1921 22.3034 10.6137 21.5077 10.4331C20.3169 10.1805 18.1131 9.99994 15.7288 9.99994C13.3458 9.99994 11.1067 10.1805 9.91455 10.4331C9.12023 10.6137 8.43314 11.1554 8.28923 11.9864C8.14391 12.8894 8 14.1535 8 15.7789C8 17.4042 8.14391 18.6683 8.3245 19.5713C8.46982 20.3656 9.1555 20.9441 9.94983 21.1247C11.214 21.3772 13.3811 21.5578 15.7654 21.5578C18.1498 21.5578 20.3169 21.3772 21.5811 21.1247C22.3754 20.9441 23.0611 20.4023 23.2064 19.5713C23.3503 18.6683 23.5309 17.3675 23.5676 15.7789C23.4942 14.1535 23.3136 12.8894 23.133 11.9864ZM13.7789 18.3072V13.2506L18.1851 15.7789L13.7789 18.3072Z" fill="white"/>
</svg>
